{
  "song_id": "jue_bie_shu",
  "source_kind": "midi",
  "source_midi_name": "jue_bie_shu_aigei_source.mid",
  "source_note_end_sec": 108.408854,
  "rendered_note_end_sec": 108.408854,
  "was_trimmed": false,
  "trim_seconds": null,
  "note_events": [
    {
      "event_index": 0,
      "track_index": 1,
      "channel": 0,
      "midi_note": 74,
      "note_id": "midi_074",
      "sample_id": "grand_piano_074",
      "velocity": 67,
      "start_sec": 1.967448,
      "duration_sec": 0.251302
    },
    {
      "event_index": 1,
      "track_index": 1,
      "channel": 0,
      "midi_note": 58,
      "note_id": "midi_058",
      "sample_id": "grand_piano_058",
      "velocity": 58,
      "start_sec": 1.96875,
      "duration_sec": 0.290365
    },
    {
      "event_index": 2,
      "track_index": 1,
      "channel": 0,
      "midi_note": 70,
      "note_id": "midi_070",
      "sample_id": "grand_piano_070",
      "velocity": 66,
      "start_sec": 1.970052,
      "duration_sec": 0.509115
    },
    {
      "event_index": 3,
      "track_index": 1,
      "channel": 0,
      "midi_note": 81,
      "note_id": "midi_081",
      "sample_id": "grand_piano_081",
      "velocity": 79,
      "start_sec": 2.205729,
      "duration_sec": 0.19401
    },
    {
      "event_index": 4,
      "track_index": 1,
      "channel": 0,
      "midi_note": 74,
      "note_id": "midi_074",
      "sample_id": "grand_piano_074",
      "velocity": 52,
      "start_sec": 2.231771,
      "duration_sec": 0.447917
    },
    {
      "event_index": 5,
      "track_index": 1,
      "channel": 0,
      "midi_note": 65,
      "note_id": "midi_065",
      "sample_id": "grand_piano_065",
      "velocity": 58,
      "start_sec": 2.242188,
      "duration_sec": 0.4375
    },
    {
      "event_index": 6,
      "track_index": 1,
      "channel": 0,
      "midi_note": 69,
      "note_id": "midi_069",
      "sample_id": "grand_piano_069",
      "velocity": 64,
      "start_sec": 2.242188,
      "duration_sec": 0.4375
    },
    {
      "event_index": 7,
      "track_index": 1,
      "channel": 0,
      "midi_note": 79,
      "note_id": "midi_079",
      "sample_id": "grand_piano_079",
      "velocity": 76,
      "start_sec": 2.338542,
      "duration_sec": 0.401042
    },
    {
      "event_index": 8,
      "track_index": 1,
      "channel": 0,
      "midi_note": 81,
      "note_id": "midi_081",
      "sample_id": "grand_piano_081",
      "velocity": 63,
      "start_sec": 2.414062,
      "duration_sec": 0.425781
    },
    {
      "event_index": 9,
      "track_index": 1,
      "channel": 0,
      "midi_note": 69,
      "note_id": "midi_069",
      "sample_id": "grand_piano_069",
      "velocity": 67,
      "start_sec": 2.684896,
      "duration_sec": 0.315104
    },
    {
      "event_index": 10,
      "track_index": 1,
      "channel": 0,
      "midi_note": 74,
      "note_id": "midi_074",
      "sample_id": "grand_piano_074",
      "velocity": 52,
      "start_sec": 2.684896,
      "duration_sec": 0.324219
    },
    {
      "event_index": 11,
      "track_index": 1,
      "channel": 0,
      "midi_note": 65,
      "note_id": "midi_065",
      "sample_id": "grand_piano_065",
      "velocity": 59,
      "start_sec": 2.686198,
      "duration_sec": 0.113281
    },
    {
      "event_index": 12,
      "track_index": 1,
      "channel": 0,
      "midi_note": 58,
      "note_id": "midi_058",
      "sample_id": "grand_piano_058",
      "velocity": 64,
      "start_sec": 2.934896,
      "duration_sec": 0.914062
    },
    {
      "event_index": 13,
      "track_index": 1,
      "channel": 0,
      "midi_note": 69,
      "note_id": "midi_069",
      "sample_id": "grand_piano_069",
      "velocity": 74,
      "start_sec": 3.167969,
      "duration_sec": 0.460938
    },
    {
      "event_index": 14,
      "track_index": 1,
      "channel": 0,
      "midi_note": 65,
      "note_id": "midi_065",
      "sample_id": "grand_piano_065",
      "velocity": 67,
      "start_sec": 3.170573,
      "duration_sec": 0.458333
    },
    {
      "event_index": 15,
      "track_index": 1,
      "channel": 0,
      "midi_note": 62,
      "note_id": "midi_062",
      "sample_id": "grand_piano_062",
      "velocity": 62,
      "start_sec": 3.174479,
      "duration_sec": 0.454427
    },
    {
      "event_index": 16,
      "track_index": 1,
      "channel": 0,
      "midi_note": 65,
      "note_id": "midi_065",
      "sample_id": "grand_piano_065",
      "velocity": 65,
      "start_sec": 3.635417,
      "duration_sec": 0.097656
    },
    {
      "event_index": 17,
      "track_index": 1,
      "channel": 0,
      "midi_note": 62,
      "note_id": "midi_062",
      "sample_id": "grand_piano_062",
      "velocity": 60,
      "start_sec": 3.640625,
      "duration_sec": 0.208333
    },
    {
      "event_index": 18,
      "track_index": 1,
      "channel": 0,
      "midi_note": 69,
      "note_id": "midi_069",
      "sample_id": "grand_piano_069",
      "velocity": 69,
      "start_sec": 3.640625,
      "duration_sec": 0.229167
    },
    {
      "event_index": 19,
      "track_index": 1,
      "channel": 0,
      "midi_note": 72,
      "note_id": "midi_072",
      "sample_id": "grand_piano_072",
      "velocity": 77,
      "start_sec": 3.891927,
      "duration_sec": 0.667969
    },
    {
      "event_index": 20,
      "track_index": 1,
      "channel": 0,
      "midi_note": 58,
      "note_id": "midi_058",
      "sample_id": "grand_piano_058",
      "velocity": 63,
      "start_sec": 3.894531,
      "duration_sec": 0.654948
    },
    {
      "event_index": 21,
      "track_index": 1,
      "channel": 0,
      "midi_note": 79,
      "note_id": "midi_079",
      "sample_id": "grand_piano_079",
      "velocity": 77,
      "start_sec": 4.126302,
      "duration_sec": 0.183594
    },
    {
      "event_index": 22,
      "track_index": 1,
      "channel": 0,
      "midi_note": 67,
      "note_id": "midi_067",
      "sample_id": "grand_piano_067",
      "velocity": 65,
      "start_sec": 4.132812,
      "duration_sec": 0.436198
    },
    {
      "event_index": 23,
      "track_index": 1,
      "channel": 0,
      "midi_note": 48,
      "note_id": "midi_048",
      "sample_id": "grand_piano_048",
      "velocity": 45,
      "start_sec": 4.166667,
      "duration_sec": 0.372396
    },
    {
      "event_index": 24,
      "track_index": 1,
      "channel": 0,
      "midi_note": 60,
      "note_id": "midi_060",
      "sample_id": "grand_piano_060",
      "velocity": 43,
      "start_sec": 4.166667,
      "duration_sec": 0.432292
    },
    {
      "event_index": 25,
      "track_index": 1,
      "channel": 0,
      "midi_note": 64,
      "note_id": "midi_064",
      "sample_id": "grand_piano_064",
      "velocity": 46,
      "start_sec": 4.174479,
      "duration_sec": 0.404948
    },
    {
      "event_index": 26,
      "track_index": 1,
      "channel": 0,
      "midi_note": 77,
      "note_id": "midi_077",
      "sample_id": "grand_piano_077",
      "velocity": 66,
      "start_sec": 4.251302,
      "duration_sec": 0.227865
    },
    {
      "event_index": 27,
      "track_index": 1,
      "channel": 0,
      "midi_note": 79,
      "note_id": "midi_079",
      "sample_id": "grand_piano_079",
      "velocity": 72,
      "start_sec": 4.321615,
      "duration_sec": 0.138021
    },
    {
      "event_index": 28,
      "track_index": 1,
      "channel": 0,
      "midi_note": 60,
      "note_id": "midi_060",
      "sample_id": "grand_piano_060",
      "velocity": 46,
      "start_sec": 4.608073,
      "duration_sec": 0.471354
    },
    {
      "event_index": 29,
      "track_index": 1,
      "channel": 0,
      "midi_note": 67,
      "note_id": "midi_067",
      "sample_id": "grand_piano_067",
      "velocity": 60,
      "start_sec": 4.613281,
      "duration_sec": 0.466146
    },
    {
      "event_index": 30,
      "track_index": 1,
      "channel": 0,
      "midi_note": 64,
      "note_id": "midi_064",
      "sample_id": "grand_piano_064",
      "velocity": 50,
      "start_sec": 4.614583,
      "duration_sec": 0.464844
    },
    {
      "event_index": 31,
      "track_index": 1,
      "channel": 0,
      "midi_note": 58,
      "note_id": "midi_058",
      "sample_id": "grand_piano_058",
      "velocity": 59,
      "start_sec": 4.835937,
      "duration_sec": 0.295573
    },
    {
      "event_index": 32,
      "track_index": 1,
      "channel": 0,
      "midi_note": 60,
      "note_id": "midi_060",
      "sample_id": "grand_piano_060",
      "velocity": 56,
      "start_sec": 5.088542,
      "duration_sec": 0.460938
    },
    {
      "event_index": 33,
      "track_index": 1,
      "channel": 0,
      "midi_note": 64,
      "note_id": "midi_064",
      "sample_id": "grand_piano_064",
      "velocity": 57,
      "start_sec": 5.09375,
      "duration_sec": 0.455729
    },
    {
      "event_index": 34,
      "track_index": 1,
      "channel": 0,
      "midi_note": 67,
      "note_id": "midi_067",
      "sample_id": "grand_piano_067",
      "velocity": 70,
      "start_sec": 5.09375,
      "duration_sec": 0.466146
    },
    {
      "event_index": 35,
      "track_index": 1,
      "channel": 0,
      "midi_note": 60,
      "note_id": "midi_060",
      "sample_id": "grand_piano_060",
      "velocity": 51,
      "start_sec": 5.5625,
      "duration_sec": 0.15625
    },
    {
      "event_index": 36,
      "track_index": 1,
      "channel": 0,
      "midi_note": 64,
      "note_id": "midi_064",
      "sample_id": "grand_piano_064",
      "velocity": 58,
      "start_sec": 5.563802,
      "duration_sec": 0.190104
    },
    {
      "event_index": 37,
      "track_index": 1,
      "channel": 0,
      "midi_note": 67,
      "note_id": "midi_067",
      "sample_id": "grand_piano_067",
      "velocity": 63,
      "start_sec": 5.566406,
      "duration_sec": 0.252604
    },
    {
      "event_index": 38,
      "track_index": 1,
      "channel": 0,
      "midi_note": 57,
      "note_id": "midi_057",
      "sample_id": "grand_piano_057",
      "velocity": 57,
      "start_sec": 5.802083,
      "duration_sec": 0.427083
    },
    {
      "event_index": 39,
      "track_index": 1,
      "channel": 0,
      "midi_note": 72,
      "note_id": "midi_072",
      "sample_id": "grand_piano_072",
      "velocity": 74,
      "start_sec": 5.802083,
      "duration_sec": 0.647135
    },
    {
      "event_index": 40,
      "track_index": 1,
      "channel": 0,
      "midi_note": 79,
      "note_id": "midi_079",
      "sample_id": "grand_piano_079",
      "velocity": 76,
      "start_sec": 6.042969,
      "duration_sec": 0.207031
    },
    {
      "event_index": 41,
      "track_index": 1,
      "channel": 0,
      "midi_note": 60,
      "note_id": "midi_060",
      "sample_id": "grand_piano_060",
      "velocity": 44,
      "start_sec": 6.057292,
      "duration_sec": 0.321615
    },
    {
      "event_index": 42,
      "track_index": 1,
      "channel": 0,
      "midi_note": 64,
      "note_id": "midi_064",
      "sample_id": "grand_piano_064",
      "velocity": 55,
      "start_sec": 6.058594,
      "duration_sec": 0.260417
    },
    {
      "event_index": 43,
      "track_index": 1,
      "channel": 0,
      "midi_note": 67,
      "note_id": "midi_067",
      "sample_id": "grand_piano_067",
      "velocity": 62,
      "start_sec": 6.061198,
      "duration_sec": 0.347656
    },
    {
      "event_index": 44,
      "track_index": 1,
      "channel": 0,
      "midi_note": 77,
      "note_id": "midi_077",
      "sample_id": "grand_piano_077",
      "velocity": 62,
      "start_sec": 6.165365,
      "duration_sec": 0.273437
    },
    {
      "event_index": 45,
      "track_index": 1,
      "channel": 0,
      "midi_note": 79,
      "note_id": "midi_079",
      "sample_id": "grand_piano_079",
      "velocity": 66,
      "start_sec": 6.255208,
      "duration_sec": 0.230469
    },
    {
      "event_index": 46,
      "track_index": 1,
      "channel": 0,
      "midi_note": 60,
      "note_id": "midi_060",
      "sample_id": "grand_piano_060",
      "velocity": 52,
      "start_sec": 6.503906,
      "duration_sec": 0.404948
    },
    {
      "event_index": 47,
      "track_index": 1,
      "channel": 0,
      "midi_note": 64,
      "note_id": "midi_064",
      "sample_id": "grand_piano_064",
      "velocity": 58,
      "start_sec": 6.503906,
      "duration_sec": 0.455729
    },
    {
      "event_index": 48,
      "track_index": 1,
      "channel": 0,
      "midi_note": 67,
      "note_id": "midi_067",
      "sample_id": "grand_piano_067",
      "velocity": 66,
      "start_sec": 6.505208,
      "duration_sec": 0.454427
    },
    {
      "event_index": 49,
      "track_index": 1,
      "channel": 0,
      "midi_note": 57,
      "note_id": "midi_057",
      "sample_id": "grand_piano_057",
      "velocity": 54,
      "start_sec": 6.75651,
      "duration_sec": 0.292969
    },
    {
      "event_index": 50,
      "track_index": 1,
      "channel": 0,
      "midi_note": 60,
      "note_id": "midi_060",
      "sample_id": "grand_piano_060",
      "velocity": 53,
      "start_sec": 6.964844,
      "duration_sec": 0.434896
    },
    {
      "event_index": 51,
      "track_index": 1,
      "channel": 0,
      "midi_note": 64,
      "note_id": "midi_064",
      "sample_id": "grand_piano_064",
      "velocity": 57,
      "start_sec": 6.967448,
      "duration_sec": 0.432292
    },
    {
      "event_index": 52,
      "track_index": 1,
      "channel": 0,
      "midi_note": 67,
      "note_id": "midi_067",
      "sample_id": "grand_piano_067",
      "velocity": 71,
      "start_sec": 6.967448,
      "duration_sec": 0.432292
    },
    {
      "event_index": 53,
      "track_index": 1,
      "channel": 0,
      "midi_note": 64,
      "note_id": "midi_064",
      "sample_id": "grand_piano_064",
      "velocity": 56,
      "start_sec": 7.404948,
      "duration_sec": 0.205729
    },
    {
      "event_index": 54,
      "track_index": 1,
      "channel": 0,
      "midi_note": 60,
      "note_id": "midi_060",
      "sample_id": "grand_piano_060",
      "velocity": 47,
      "start_sec": 7.404948,
      "duration_sec": 0.294271
    },
    {
      "event_index": 55,
      "track_index": 1,
      "channel": 0,
      "midi_note": 67,
      "note_id": "midi_067",
      "sample_id": "grand_piano_067",
      "velocity": 65,
      "start_sec": 7.407552,
      "duration_sec": 0.351562
    },
    {
      "event_index": 56,
      "track_index": 1,
      "channel": 0,
      "midi_note": 50,
      "note_id": "midi_050",
      "sample_id": "grand_piano_050",
      "velocity": 62,
      "start_sec": 7.691406,
      "duration_sec": 0.341146
    },
    {
      "event_index": 57,
      "track_index": 1,
      "channel": 0,
      "midi_note": 84,
      "note_id": "midi_084",
      "sample_id": "grand_piano_084",
      "velocity": 72,
      "start_sec": 7.69401,
      "duration_sec": 0.395833
    },
    {
      "event_index": 58,
      "track_index": 1,
      "channel": 0,
      "midi_note": 48,
      "note_id": "midi_048",
      "sample_id": "grand_piano_048",
      "velocity": 51,
      "start_sec": 7.927083,
      "duration_sec": 0.011719
    },
    {
      "event_index": 59,
      "track_index": 1,
      "channel": 0,
      "midi_note": 77,
      "note_id": "midi_077",
      "sample_id": "grand_piano_077",
      "velocity": 74,
      "start_sec": 7.933594,
      "duration_sec": 0.15625
    },
    {
      "event_index": 60,
      "track_index": 1,
      "channel": 0,
      "midi_note": 57,
      "note_id": "midi_057",
      "sample_id": "grand_piano_057",
      "velocity": 59,
      "start_sec": 7.936198,
      "duration_sec": 0.127604
    },
    {
      "event_index": 61,
      "track_index": 1,
      "channel": 0,
      "midi_note": 60,
      "note_id": "midi_060",
      "sample_id": "grand_piano_060",
      "velocity": 54,
      "start_sec": 7.938802,
      "duration_sec": 0.230469
    },
    {
      "event_index": 62,
      "track_index": 1,
      "channel": 0,
      "midi_note": 72,
      "note_id": "midi_072",
      "sample_id": "grand_piano_072",
      "velocity": 69,
      "start_sec": 7.94401,
      "duration_sec": 0.175781
    },
    {
      "event_index": 63,
      "track_index": 1,
      "channel": 0,
      "midi_note": 76,
      "note_id": "midi_076",
      "sample_id": "grand_piano_076",
      "velocity": 63,
      "start_sec": 8.029948,
      "duration_sec": 0.05599
    },
    {
      "event_index": 64,
      "track_index": 1,
      "channel": 0,
      "midi_note": 77,
      "note_id": "midi_077",
      "sample_id": "grand_piano_077",
      "velocity": 68,
      "start_sec": 8.10026,
      "duration_sec": 0.299479
    },
    {
      "event_index": 65,
      "track_index": 1,
      "channel": 0,
      "midi_note": 60,
      "note_id": "midi_060",
      "sample_id": "grand_piano_060",
      "velocity": 54,
      "start_sec": 8.364583,
      "duration_sec": 0.074219
    },
    {
      "event_index": 66,
      "track_index": 1,
      "channel": 0,
      "midi_note": 57,
      "note_id": "midi_057",
      "sample_id": "grand_piano_057",
      "velocity": 60,
      "start_sec": 8.364583,
      "duration_sec": 0.195312
    },
    {
      "event_index": 67,
      "track_index": 1,
      "channel": 0,
      "midi_note": 69,
      "note_id": "midi_069",
      "sample_id": "grand_piano_069",
      "velocity": 53,
      "start_sec": 8.394531,
      "duration_sec": 0.27474
    },
    {
      "event_index": 68,
      "track_index": 1,
      "channel": 0,
      "midi_note": 50,
      "note_id": "midi_050",
      "sample_id": "grand_piano_050",
      "velocity": 64,
      "start_sec": 8.623698,
      "duration_sec": 0.799479
    },
    {
      "event_index": 69,
      "track_index": 1,
      "channel": 0,
      "midi_note": 57,
      "note_id": "midi_057",
      "sample_id": "grand_piano_057",
      "velocity": 67,
      "start_sec": 8.855469,
      "duration_sec": 0.49349
    },
    {
      "event_index": 70,
      "track_index": 1,
      "channel": 0,
      "midi_note": 60,
      "note_id": "midi_060",
      "sample_id": "grand_piano_060",
      "velocity": 61,
      "start_sec": 8.858073,
      "duration_sec": 0.501302
    },
    {
      "event_index": 71,
      "track_index": 1,
      "channel": 0,
      "midi_note": 69,
      "note_id": "midi_069",
      "sample_id": "grand_piano_069",
      "velocity": 61,
      "start_sec": 8.863281,
      "duration_sec": 0.496094
    },
    {
      "event_index": 72,
      "track_index": 1,
      "channel": 0,
      "midi_note": 48,
      "note_id": "midi_048",
      "sample_id": "grand_piano_048",
      "velocity": 65,
      "start_sec": 9.13151,
      "duration_sec": 0.291667
    },
    {
      "event_index": 73,
      "track_index": 1,
      "channel": 0,
      "midi_note": 57,
      "note_id": "midi_057",
      "sample_id": "grand_piano_057",
      "velocity": 69,
      "start_sec": 9.359375,
      "duration_sec": 0.220052
    },
    {
      "event_index": 74,
      "track_index": 1,
      "channel": 0,
      "midi_note": 60,
      "note_id": "midi_060",
      "sample_id": "grand_piano_060",
      "velocity": 54,
      "start_sec": 9.365885,
      "duration_sec": 0.223958
    },
    {
      "event_index": 75,
      "track_index": 1,
      "channel": 0,
      "midi_note": 69,
      "note_id": "midi_069",
      "sample_id": "grand_piano_069",
      "velocity": 61,
      "start_sec": 9.369792,
      "duration_sec": 0.25
    },
    {
      "event_index": 76,
      "track_index": 1,
      "channel": 0,
      "midi_note": 46,
      "note_id": "midi_046",
      "sample_id": "grand_piano_046",
      "velocity": 66,
      "start_sec": 9.604167,
      "duration_sec": 0.304688
    },
    {
      "event_index": 77,
      "track_index": 1,
      "channel": 0,
      "midi_note": 74,
      "note_id": "midi_074",
      "sample_id": "grand_piano_074",
      "velocity": 72,
      "start_sec": 9.604167,
      "duration_sec": 0.464844
    },
    {
      "event_index": 78,
      "track_index": 1,
      "channel": 0,
      "midi_note": 81,
      "note_id": "midi_081",
      "sample_id": "grand_piano_081",
      "velocity": 77,
      "start_sec": 9.847656,
      "duration_sec": 0.171875
    },
    {
      "event_index": 79,
      "track_index": 1,
      "channel": 0,
      "midi_note": 65,
      "note_id": "midi_065",
      "sample_id": "grand_piano_065",
      "velocity": 61,
      "start_sec": 9.848958,
      "duration_sec": 0.190104
    },
    {
      "event_index": 80,
      "track_index": 1,
      "channel": 0,
      "midi_note": 69,
      "note_id": "midi_069",
      "sample_id": "grand_piano_069",
      "velocity": 67,
      "start_sec": 9.851562,
      "duration_sec": 0.192708
    },
    {
      "event_index": 81,
      "track_index": 1,
      "channel": 0,
      "midi_note": 62,
      "note_id": "midi_062",
      "sample_id": "grand_piano_062",
      "velocity": 57,
      "start_sec": 9.854167,
      "duration_sec": 0.385417
    },
    {
      "event_index": 82,
      "track_index": 1,
      "channel": 0,
      "midi_note": 79,
      "note_id": "midi_079",
      "sample_id": "grand_piano_079",
      "velocity": 73,
      "start_sec": 9.958333,
      "duration_sec": 0.441406
    },
    {
      "event_index": 83,
      "track_index": 1,
      "channel": 0,
      "midi_note": 81,
      "note_id": "midi_081",
      "sample_id": "grand_piano_081",
      "velocity": 75,
      "start_sec": 10.02474,
      "duration_sec": 0.375
    },
    {
      "event_index": 84,
      "track_index": 1,
      "channel": 0,
      "midi_note": 69,
      "note_id": "midi_069",
      "sample_id": "grand_piano_069",
      "velocity": 65,
      "start_sec": 10.325521,
      "duration_sec": 0.354167
    },
    {
      "event_index": 85,
      "track_index": 1,
      "channel": 0,
      "midi_note": 65,
      "note_id": "midi_065",
      "sample_id": "grand_piano_065",
      "velocity": 64,
      "start_sec": 10.326823,
      "duration_sec": 0.078125
    },
    {
      "event_index": 86,
      "track_index": 1,
      "channel": 0,
      "midi_note": 62,
      "note_id": "midi_062",
      "sample_id": "grand_piano_062",
      "velocity": 59,
      "start_sec": 10.334635,
      "duration_sec": 0.22526
    },
    {
      "event_index": 87,
      "track_index": 1,
      "channel": 0,
      "midi_note": 58,
      "note_id": "midi_058",
      "sample_id": "grand_piano_058",
      "velocity": 64,
      "start_sec": 10.580729,
      "duration_sec": 0.908854
    },
    {
      "event_index": 88,
      "track_index": 1,
      "channel": 0,
      "midi_note": 65,
      "note_id": "midi_065",
      "sample_id": "grand_piano_065",
      "velocity": 67,
      "start_sec": 10.813802,
      "duration_sec": 0.445312
    },
    {
      "event_index": 89,
      "track_index": 1,
      "channel": 0,
      "midi_note": 62,
      "note_id": "midi_062",
      "sample_id": "grand_piano_062",
      "velocity": 60,
      "start_sec": 10.815104,
      "duration_sec": 0.44401
    },
    {
      "event_index": 90,
      "track_index": 1,
      "channel": 0,
      "midi_note": 69,
      "note_id": "midi_069",
      "sample_id": "grand_piano_069",
      "velocity": 71,
      "start_sec": 10.815104,
      "duration_sec": 0.44401
    },
    {
      "event_index": 91,
      "track_index": 1,
      "channel": 0,
      "midi_note": 69,
      "note_id": "midi_069",
      "sample_id": "grand_piano_069",
      "velocity": 68,
      "start_sec": 11.268229,
      "duration_sec": 0.221354
    },
    {
      "event_index": 92,
      "track_index": 1,
      "channel": 0,
      "midi_note": 65,
      "note_id": "midi_065",
      "sample_id": "grand_piano_065",
      "velocity": 58,
      "start_sec": 11.272135,
      "duration_sec": 0.095052
    },
    {
      "event_index": 93,
      "track_index": 1,
      "channel": 0,
      "midi_note": 62,
      "note_id": "midi_062",
      "sample_id": "grand_piano_062",
      "velocity": 58,
      "start_sec": 11.273437,
      "duration_sec": 0.092448
    },
    {
      "event_index": 94,
      "track_index": 1,
      "channel": 0,
      "midi_note": 86,
      "note_id": "midi_086",
      "sample_id": "grand_piano_086",
      "velocity": 77,
      "start_sec": 11.503906,
      "duration_sec": 0.363281
    },
    {
      "event_index": 95,
      "track_index": 1,
      "channel": 0,
      "midi_note": 58,
      "note_id": "midi_058",
      "sample_id": "grand_piano_058",
      "velocity": 68,
      "start_sec": 11.503906,
      "duration_sec": 0.395833
    },
    {
      "event_index": 96,
      "track_index": 1,
      "channel": 0,
      "midi_note": 79,
      "note_id": "midi_079",
      "sample_id": "grand_piano_079",
      "velocity": 78,
      "start_sec": 11.75651,
      "duration_sec": 0.16276
    },
    {
      "event_index": 97,
      "track_index": 1,
      "channel": 0,
      "midi_note": 67,
      "note_id": "midi_067",
      "sample_id": "grand_piano_067",
      "velocity": 70,
      "start_sec": 11.759115,
      "duration_sec": 0.145833
    },
    {
      "event_index": 98,
      "track_index": 1,
      "channel": 0,
      "midi_note": 64,
      "note_id": "midi_064",
      "sample_id": "grand_piano_064",
      "velocity": 61,
      "start_sec": 11.761719,
      "duration_sec": 0.111979
    },
    {
      "event_index": 99,
      "track_index": 1,
      "channel": 0,
      "midi_note": 60,
      "note_id": "midi_060",
      "sample_id": "grand_piano_060",
      "velocity": 54,
      "start_sec": 11.766927,
      "duration_sec": 0.222656
    },
    {
      "event_index": 100,
      "track_index": 1,
      "channel": 0,
      "midi_note": 77,
      "note_id": "midi_077",
      "sample_id": "grand_piano_077",
      "velocity": 66,
      "start_sec": 11.854167,
      "duration_sec": 0.095052
    },
    {
      "event_index": 101,
      "track_index": 1,
      "channel": 0,
      "midi_note": 79,
      "note_id": "midi_079",
      "sample_id": "grand_piano_079",
      "velocity": 77,
      "start_sec": 11.924479,
      "duration_sec": 0.075521
    },
    {
      "event_index": 102,
      "track_index": 1,
      "channel": 0,
      "midi_note": 64,
      "note_id": "midi_064",
      "sample_id": "grand_piano_064",
      "velocity": 60,
      "start_sec": 12.186198,
      "duration_sec": 0.246094
    },
    {
      "event_index": 103,
      "track_index": 1,
      "channel": 0,
      "midi_note": 67,
      "note_id": "midi_067",
      "sample_id": "grand_piano_067",
      "velocity": 67,
      "start_sec": 12.1875,
      "duration_sec": 0.492188
    },
    {
      "event_index": 104,
      "track_index": 1,
      "channel": 0,
      "midi_note": 48,
      "note_id": "midi_048",
      "sample_id": "grand_piano_048",
      "velocity": 38,
      "start_sec": 12.22526,
      "duration_sec": 0.048177
    },
    {
      "event_index": 105,
      "track_index": 1,
      "channel": 0,
      "midi_note": 60,
      "note_id": "midi_060",
      "sample_id": "grand_piano_060",
      "velocity": 43,
      "start_sec": 12.233073,
      "duration_sec": 0.286458
    },
    {
      "event_index": 106,
      "track_index": 1,
      "channel": 0,
      "midi_note": 58,
      "note_id": "midi_058",
      "sample_id": "grand_piano_058",
      "velocity": 66,
      "start_sec": 12.419271,
      "duration_sec": 0.279948
    },
    {
      "event_index": 107,
      "track_index": 1,
      "channel": 0,
      "midi_note": 67,
      "note_id": "midi_067",
      "sample_id": "grand_piano_067",
      "velocity": 78,
      "start_sec": 12.6875,
      "duration_sec": 0.451823
    },
    {
      "event_index": 108,
      "track_index": 1,
      "channel": 0,
      "midi_note": 64,
      "note_id": "midi_064",
      "sample_id": "grand_piano_064",
      "velocity": 68,
      "start_sec": 12.691406,
      "duration_sec": 0.447917
    },
    {
      "event_index": 109,
      "track_index": 1,
      "channel": 0,
      "midi_note": 60,
      "note_id": "midi_060",
      "sample_id": "grand_piano_060",
      "velocity": 61,
      "start_sec": 12.69401,
      "duration_sec": 0.445313
    },
    {
      "event_index": 110,
      "track_index": 1,
      "channel": 0,
      "midi_note": 60,
      "note_id": "midi_060",
      "sample_id": "grand_piano_060",
      "velocity": 59,
      "start_sec": 13.148438,
      "duration_sec": 0.053385
    },
    {
      "event_index": 111,
      "track_index": 1,
      "channel": 0,
      "midi_note": 67,
      "note_id": "midi_067",
      "sample_id": "grand_piano_067",
      "velocity": 75,
      "start_sec": 13.151042,
      "duration_sec": 0.208333
    },
    {
      "event_index": 112,
      "track_index": 1,
      "channel": 0,
      "midi_note": 64,
      "note_id": "midi_064",
      "sample_id": "grand_piano_064",
      "velocity": 64,
      "start_sec": 13.152344,
      "duration_sec": 0.196615
    },
    {
      "event_index": 113,
      "track_index": 1,
      "channel": 0,
      "midi_note": 57,
      "note_id": "midi_057",
      "sample_id": "grand_piano_057",
      "velocity": 67,
      "start_sec": 13.384115,
      "duration_sec": 0.434896
    },
    {
      "event_index": 114,
      "track_index": 1,
      "channel": 0,
      "midi_note": 88,
      "note_id": "midi_088",
      "sample_id": "grand_piano_088",
      "velocity": 73,
      "start_sec": 13.385417,
      "duration_sec": 0.44401
    },
    {
      "event_index": 115,
      "track_index": 1,
      "channel": 0,
      "midi_note": 79,
      "note_id": "midi_079",
      "sample_id": "grand_piano_079",
      "velocity": 80,
      "start_sec": 13.622396,
      "duration_sec": 0.177083
    },
    {
      "event_index": 116,
      "track_index": 1,
      "channel": 0,
      "midi_note": 64,
      "note_id": "midi_064",
      "sample_id": "grand_piano_064",
      "velocity": 65,
      "start_sec": 13.623698,
      "duration_sec": 0.18099
    },
    {
      "event_index": 117,
      "track_index": 1,
      "channel": 0,
      "midi_note": 67,
      "note_id": "midi_067",
      "sample_id": "grand_piano_067",
      "velocity": 72,
      "start_sec": 13.632813,
      "duration_sec": 0.170573
    },
    {
      "event_index": 118,
      "track_index": 1,
      "channel": 0,
      "midi_note": 60,
      "note_id": "midi_060",
      "sample_id": "grand_piano_060",
      "velocity": 41,
      "start_sec": 13.66276,
      "duration_sec": 0.25651
    },
    {
      "event_index": 119,
      "track_index": 1,
      "channel": 0,
      "midi_note": 77,
      "note_id": "midi_077",
      "sample_id": "grand_piano_077",
      "velocity": 67,
      "start_sec": 13.740885,
      "duration_sec": 0.070313
    },
    {
      "event_index": 120,
      "track_index": 1,
      "channel": 0,
      "midi_note": 79,
      "note_id": "midi_079",
      "sample_id": "grand_piano_079",
      "velocity": 76,
      "start_sec": 13.813802,
      "duration_sec": 0.095052
    },
    {
      "event_index": 121,
      "track_index": 1,
      "channel": 0,
      "midi_note": 64,
      "note_id": "midi_064",
      "sample_id": "grand_piano_064",
      "velocity": 66,
      "start_sec": 14.074219,
      "duration_sec": 0.21224
    },
    {
      "event_index": 122,
      "track_index": 1,
      "channel": 0,
      "midi_note": 67,
      "note_id": "midi_067",
      "sample_id": "grand_piano_067",
      "velocity": 74,
      "start_sec": 14.076823,
      "duration_sec": 0.242188
    },
    {
      "event_index": 123,
      "track_index": 1,
      "channel": 0,
      "midi_note": 60,
      "note_id": "midi_060",
      "sample_id": "grand_piano_060",
      "velocity": 56,
      "start_sec": 14.079427,
      "duration_sec": 0.35026
    },
    {
      "event_index": 124,
      "track_index": 1,
      "channel": 0,
      "midi_note": 57,
      "note_id": "midi_057",
      "sample_id": "grand_piano_057",
      "velocity": 67,
      "start_sec": 14.299479,
      "duration_sec": 0.309896
    },
    {
      "event_index": 125,
      "track_index": 1,
      "channel": 0,
      "midi_note": 60,
      "note_id": "midi_060",
      "sample_id": "grand_piano_060",
      "velocity": 59,
      "start_sec": 14.552083,
      "duration_sec": 0.666667
    },
    {
      "event_index": 126,
      "track_index": 1,
      "channel": 0,
      "midi_note": 67,
      "note_id": "midi_067",
      "sample_id": "grand_piano_067",
      "velocity": 77,
      "start_sec": 14.552083,
      "duration_sec": 0.707031
    },
    {
      "event_index": 127,
      "track_index": 1,
      "channel": 0,
      "midi_note": 64,
      "note_id": "midi_064",
      "sample_id": "grand_piano_064",
      "velocity": 68,
      "start_sec": 14.553385,
      "duration_sec": 0.726563
    },
    {
      "event_index": 128,
      "track_index": 1,
      "channel": 0,
      "midi_note": 45,
      "note_id": "midi_045",
      "sample_id": "grand_piano_045",
      "velocity": 55,
      "start_sec": 15.046875,
      "duration_sec": 0.496094
    },
    {
      "event_index": 129,
      "track_index": 1,
      "channel": 0,
      "midi_note": 57,
      "note_id": "midi_057",
      "sample_id": "grand_piano_057",
      "velocity": 42,
      "start_sec": 15.052083,
      "duration_sec": 0.516927
    },
    {
      "event_index": 130,
      "track_index": 1,
      "channel": 0,
      "midi_note": 38,
      "note_id": "midi_038",
      "sample_id": "grand_piano_038",
      "velocity": 57,
      "start_sec": 15.264323,
      "duration_sec": 0.278646
    },
    {
      "event_index": 131,
      "track_index": 1,
      "channel": 0,
      "midi_note": 81,
      "note_id": "midi_081",
      "sample_id": "grand_piano_081",
      "velocity": 73,
      "start_sec": 15.266927,
      "duration_sec": 0.295573
    },
    {
      "event_index": 132,
      "track_index": 1,
      "channel": 0,
      "midi_note": 89,
      "note_id": "midi_089",
      "sample_id": "grand_piano_089",
      "velocity": 73,
      "start_sec": 15.28776,
      "duration_sec": 0.332031
    },
    {
      "event_index": 133,
      "track_index": 1,
      "channel": 0,
      "midi_note": 88,
      "note_id": "midi_088",
      "sample_id": "grand_piano_088",
      "velocity": 75,
      "start_sec": 15.528646,
      "duration_sec": 0.270833
    },
    {
      "event_index": 134,
      "track_index": 1,
      "channel": 0,
      "midi_note": 79,
      "note_id": "midi_079",
      "sample_id": "grand_piano_079",
      "velocity": 77,
      "start_sec": 15.535156,
      "duration_sec": 0.204427
    },
    {
      "event_index": 135,
      "track_index": 1,
      "channel": 0,
      "midi_note": 57,
      "note_id": "midi_057",
      "sample_id": "grand_piano_057",
      "velocity": 65,
      "start_sec": 15.772135,
      "duration_sec": 1.029948
    },
    {
      "event_index": 136,
      "track_index": 1,
      "channel": 0,
      "midi_note": 77,
      "note_id": "midi_077",
      "sample_id": "grand_piano_077",
      "velocity": 73,
      "start_sec": 15.77474,
      "duration_sec": 1.020833
    },
    {
      "event_index": 137,
      "track_index": 1,
      "channel": 0,
      "midi_note": 86,
      "note_id": "midi_086",
      "sample_id": "grand_piano_086",
      "velocity": 74,
      "start_sec": 15.77474,
      "duration_sec": 1.023437
    },
    {
      "event_index": 138,
      "track_index": 1,
      "channel": 0,
      "midi_note": 81,
      "note_id": "midi_081",
      "sample_id": "grand_piano_081",
      "velocity": 79,
      "start_sec": 15.77474,
      "duration_sec": 1.026042
    },
    {
      "event_index": 139,
      "track_index": 1,
      "channel": 0,
      "midi_note": 60,
      "note_id": "midi_060",
      "sample_id": "grand_piano_060",
      "velocity": 56,
      "start_sec": 15.782552,
      "duration_sec": 1.036458
    },
    {
      "event_index": 140,
      "track_index": 1,
      "channel": 0,
      "midi_note": 50,
      "note_id": "midi_050",
      "sample_id": "grand_piano_050",
      "velocity": 57,
      "start_sec": 15.785156,
      "duration_sec": 0.464844
    },
    {
      "event_index": 141,
      "track_index": 1,
      "channel": 0,
      "midi_note": 50,
      "note_id": "midi_050",
      "sample_id": "grand_piano_050",
      "velocity": 68,
      "start_sec": 16.259115,
      "duration_sec": 0.541667
    },
    {
      "event_index": 142,
      "track_index": 1,
      "channel": 0,
      "midi_note": 38,
      "note_id": "midi_038",
      "sample_id": "grand_piano_038",
      "velocity": 63,
      "start_sec": 16.263021,
      "duration_sec": 0.536458
    },
    {
      "event_index": 143,
      "track_index": 1,
      "channel": 0,
      "midi_note": 48,
      "note_id": "midi_048",
      "sample_id": "grand_piano_048",
      "velocity": 76,
      "start_sec": 16.764323,
      "duration_sec": 0.36849
    },
    {
      "event_index": 144,
      "track_index": 1,
      "channel": 0,
      "midi_note": 36,
      "note_id": "midi_036",
      "sample_id": "grand_piano_036",
      "velocity": 58,
      "start_sec": 16.765625,
      "duration_sec": 0.473958
    },
    {
      "event_index": 145,
      "track_index": 1,
      "channel": 0,
      "midi_note": 46,
      "note_id": "midi_046",
      "sample_id": "grand_piano_046",
      "velocity": 71,
      "start_sec": 17.235677,
      "duration_sec": 0.334635
    },
    {
      "event_index": 146,
      "track_index": 1,
      "channel": 0,
      "midi_note": 74,
      "note_id": "midi_074",
      "sample_id": "grand_piano_074",
      "velocity": 71,
      "start_sec": 17.236979,
      "duration_sec": 0.358073
    },
    {
      "event_index": 147,
      "track_index": 1,
      "channel": 0,
      "midi_note": 34,
      "note_id": "midi_034",
      "sample_id": "grand_piano_034",
      "velocity": 60,
      "start_sec": 17.244792,
      "duration_sec": 0.294271
    },
    {
      "event_index": 148,
      "track_index": 1,
      "channel": 0,
      "midi_note": 81,
      "note_id": "midi_081",
      "sample_id": "grand_piano_081",
      "velocity": 72,
      "start_sec": 17.514323,
      "duration_sec": 0.184896
    },
    {
      "event_index": 149,
      "track_index": 1,
      "channel": 0,
      "midi_note": 65,
      "note_id": "midi_065",
      "sample_id": "grand_piano_065",
      "velocity": 57,
      "start_sec": 17.554687,
      "duration_sec": 0.104167
    },
    {
      "event_index": 150,
      "track_index": 1,
      "channel": 0,
      "midi_note": 62,
      "note_id": "midi_062",
      "sample_id": "grand_piano_062",
      "velocity": 58,
      "start_sec": 17.5625,
      "duration_sec": 0.386719
    },
    {
      "event_index": 151,
      "track_index": 1,
      "channel": 0,
      "midi_note": 69,
      "note_id": "midi_069",
      "sample_id": "grand_piano_069",
      "velocity": 57,
      "start_sec": 17.580729,
      "duration_sec": 0.358073
    },
    {
      "event_index": 152,
      "track_index": 1,
      "channel": 0,
      "midi_note": 79,
      "note_id": "midi_079",
      "sample_id": "grand_piano_079",
      "velocity": 72,
      "start_sec": 17.635417,
      "duration_sec": 0.324219
    },
    {
      "event_index": 153,
      "track_index": 1,
      "channel": 0,
      "midi_note": 81,
      "note_id": "midi_081",
      "sample_id": "grand_piano_081",
      "velocity": 80,
      "start_sec": 17.713542,
      "duration_sec": 0.335938
    },
    {
      "event_index": 154,
      "track_index": 1,
      "channel": 0,
      "midi_note": 79,
      "note_id": "midi_079",
      "sample_id": "grand_piano_079",
      "velocity": 78,
      "start_sec": 17.973958,
      "duration_sec": 0.315104
    },
    {
      "event_index": 155,
      "track_index": 1,
      "channel": 0,
      "midi_note": 65,
      "note_id": "midi_065",
      "sample_id": "grand_piano_065",
      "velocity": 64,
      "start_sec": 17.97526,
      "duration_sec": 0.059896
    },
    {
      "event_index": 156,
      "track_index": 1,
      "channel": 0,
      "midi_note": 69,
      "note_id": "midi_069",
      "sample_id": "grand_piano_069",
      "velocity": 72,
      "start_sec": 17.983073,
      "duration_sec": 0.286458
    },
    {
      "event_index": 157,
      "track_index": 1,
      "channel": 0,
      "midi_note": 62,
      "note_id": "midi_062",
      "sample_id": "grand_piano_062",
      "velocity": 57,
      "start_sec": 17.99349,
      "duration_sec": 0.25651
    },
    {
      "event_index": 158,
      "track_index": 1,
      "channel": 0,
      "midi_note": 81,
      "note_id": "midi_081",
      "sample_id": "grand_piano_081",
      "velocity": 78,
      "start_sec": 18.223958,
      "duration_sec": 0.485677
    },
    {
      "event_index": 159,
      "track_index": 1,
      "channel": 0,
      "midi_note": 58,
      "note_id": "midi_058",
      "sample_id": "grand_piano_058",
      "velocity": 64,
      "start_sec": 18.226562,
      "duration_sec": 0.572917
    },
    {
      "event_index": 160,
      "track_index": 1,
      "channel": 0,
      "midi_note": 86,
      "note_id": "midi_086",
      "sample_id": "grand_piano_086",
      "velocity": 76,
      "start_sec": 18.472656,
      "duration_sec": 0.527344
    },
    {
      "event_index": 161,
      "track_index": 1,
      "channel": 0,
      "midi_note": 65,
      "note_id": "midi_065",
      "sample_id": "grand_piano_065",
      "velocity": 65,
      "start_sec": 18.480469,
      "duration_sec": 0.46875
    },
    {
      "event_index": 162,
      "track_index": 1,
      "channel": 0,
      "midi_note": 69,
      "note_id": "midi_069",
      "sample_id": "grand_piano_069",
      "velocity": 73,
      "start_sec": 18.480469,
      "duration_sec": 0.488281
    },
    {
      "event_index": 163,
      "track_index": 1,
      "channel": 0,
      "midi_note": 62,
      "note_id": "midi_062",
      "sample_id": "grand_piano_062",
      "velocity": 58,
      "start_sec": 18.485677,
      "duration_sec": 0.483073
    },
    {
      "event_index": 164,
      "track_index": 1,
      "channel": 0,
      "midi_note": 81,
      "note_id": "midi_081",
      "sample_id": "grand_piano_081",
      "velocity": 81,
      "start_sec": 18.716146,
      "duration_sec": 0.313802
    },
    {
      "event_index": 165,
      "track_index": 1,
      "channel": 0,
      "midi_note": 79,
      "note_id": "midi_079",
      "sample_id": "grand_piano_079",
      "velocity": 78,
      "start_sec": 18.957031,
      "duration_sec": 0.322917
    },
    {
      "event_index": 166,
      "track_index": 1,
      "channel": 0,
      "midi_note": 65,
      "note_id": "midi_065",
      "sample_id": "grand_piano_065",
      "velocity": 61,
      "start_sec": 18.959635,
      "duration_sec": 0.078125
    },
    {
      "event_index": 167,
      "track_index": 1,
      "channel": 0,
      "midi_note": 69,
      "note_id": "midi_069",
      "sample_id": "grand_piano_069",
      "velocity": 63,
      "start_sec": 18.976562,
      "duration_sec": 0.102865
    },
    {
      "event_index": 168,
      "track_index": 1,
      "channel": 0,
      "midi_note": 62,
      "note_id": "midi_062",
      "sample_id": "grand_piano_062",
      "velocity": 55,
      "start_sec": 18.979167,
      "duration_sec": 0.200521
    },
    {
      "event_index": 169,
      "track_index": 1,
      "channel": 0,
      "midi_note": 58,
      "note_id": "midi_058",
      "sample_id": "grand_piano_058",
      "velocity": 65,
      "start_sec": 19.174479,
      "duration_sec": 0.894531
    },
    {
      "event_index": 170,
      "track_index": 1,
      "channel": 0,
      "midi_note": 81,
      "note_id": "midi_081",
      "sample_id": "grand_piano_081",
      "velocity": 77,
      "start_sec": 19.178385,
      "duration_sec": 0.210938
    },
    {
      "event_index": 171,
      "track_index": 1,
      "channel": 0,
      "midi_note": 79,
      "note_id": "midi_079",
      "sample_id": "grand_piano_079",
      "velocity": 72,
      "start_sec": 19.28776,
      "duration_sec": 0.231771
    },
    {
      "event_index": 172,
      "track_index": 1,
      "channel": 0,
      "midi_note": 64,
      "note_id": "midi_064",
      "sample_id": "grand_piano_064",
      "velocity": 65,
      "start_sec": 19.398437,
      "duration_sec": 0.490885
    },
    {
      "event_index": 173,
      "track_index": 1,
      "channel": 0,
      "midi_note": 81,
      "note_id": "midi_081",
      "sample_id": "grand_piano_081",
      "velocity": 79,
      "start_sec": 19.39974,
      "duration_sec": 0.209635
    },
    {
      "event_index": 174,
      "track_index": 1,
      "channel": 0,
      "midi_note": 67,
      "note_id": "midi_067",
      "sample_id": "grand_piano_067",
      "velocity": 64,
      "start_sec": 19.414062,
      "duration_sec": 0.485677
    },
    {
      "event_index": 175,
      "track_index": 1,
      "channel": 0,
      "midi_note": 79,
      "note_id": "midi_079",
      "sample_id": "grand_piano_079",
      "velocity": 73,
      "start_sec": 19.527344,
      "duration_sec": 0.361979
    },
    {
      "event_index": 176,
      "track_index": 1,
      "channel": 0,
      "midi_note": 81,
      "note_id": "midi_081",
      "sample_id": "grand_piano_081",
      "velocity": 79,
      "start_sec": 19.619792,
      "duration_sec": 0.559896
    },
    {
      "event_index": 177,
      "track_index": 1,
      "channel": 0,
      "midi_note": 79,
      "note_id": "midi_079",
      "sample_id": "grand_piano_079",
      "velocity": 77,
      "start_sec": 19.89974,
      "duration_sec": 0.789063
    },
    {
      "event_index": 178,
      "track_index": 1,
      "channel": 0,
      "midi_note": 64,
      "note_id": "midi_064",
      "sample_id": "grand_piano_064",
      "velocity": 58,
      "start_sec": 19.903646,
      "duration_sec": 0.265625
    },
    {
      "event_index": 179,
      "track_index": 1,
      "channel": 0,
      "midi_note": 67,
      "note_id": "midi_067",
      "sample_id": "grand_piano_067",
      "velocity": 71,
      "start_sec": 19.90625,
      "duration_sec": 0.227865
    },
    {
      "event_index": 180,
      "track_index": 1,
      "channel": 0,
      "midi_note": 72,
      "note_id": "midi_072",
      "sample_id": "grand_piano_072",
      "velocity": 76,
      "start_sec": 20.136719,
      "duration_sec": 0.492188
    },
    {
      "event_index": 181,
      "track_index": 1,
      "channel": 0,
      "midi_note": 58,
      "note_id": "midi_058",
      "sample_id": "grand_piano_058",
      "velocity": 64,
      "start_sec": 20.138021,
      "duration_sec": 0.43099
    },
    {
      "event_index": 182,
      "track_index": 1,
      "channel": 0,
      "midi_note": 67,
      "note_id": "midi_067",
      "sample_id": "grand_piano_067",
      "velocity": 74,
      "start_sec": 20.380208,
      "duration_sec": 0.289062
    },
    {
      "event_index": 183,
      "track_index": 1,
      "channel": 0,
      "midi_note": 64,
      "note_id": "midi_064",
      "sample_id": "grand_piano_064",
      "velocity": 69,
      "start_sec": 20.625,
      "duration_sec": 0.154948
    },
    {
      "event_index": 184,
      "track_index": 1,
      "channel": 0,
      "midi_note": 60,
      "note_id": "midi_060",
      "sample_id": "grand_piano_060",
      "velocity": 63,
      "start_sec": 20.873698,
      "duration_sec": 0.075521
    },
    {
      "event_index": 185,
      "track_index": 1,
      "channel": 0,
      "midi_note": 72,
      "note_id": "midi_072",
      "sample_id": "grand_piano_072",
      "velocity": 78,
      "start_sec": 21.097656,
      "duration_sec": 0.552083
    },
    {
      "event_index": 186,
      "track_index": 1,
      "channel": 0,
      "midi_note": 57,
      "note_id": "midi_057",
      "sample_id": "grand_piano_057",
      "velocity": 64,
      "start_sec": 21.115885,
      "duration_sec": 0.434896
    },
    {
      "event_index": 187,
      "track_index": 1,
      "channel": 0,
      "midi_note": 69,
      "note_id": "midi_069",
      "sample_id": "grand_piano_069",
      "velocity": 58,
      "start_sec": 21.127604,
      "duration_sec": 0.011719
    },
    {
      "event_index": 188,
      "track_index": 1,
      "channel": 0,
      "midi_note": 79,
      "note_id": "midi_079",
      "sample_id": "grand_piano_079",
      "velocity": 76,
      "start_sec": 21.332031,
      "duration_sec": 0.197917
    },
    {
      "event_index": 189,
      "track_index": 1,
      "channel": 0,
      "midi_note": 64,
      "note_id": "midi_064",
      "sample_id": "grand_piano_064",
      "velocity": 58,
      "start_sec": 21.375,
      "duration_sec": 0.182292
    },
    {
      "event_index": 190,
      "track_index": 1,
      "channel": 0,
      "midi_note": 67,
      "note_id": "midi_067",
      "sample_id": "grand_piano_067",
      "velocity": 65,
      "start_sec": 21.375,
      "duration_sec": 0.234375
    },
    {
      "event_index": 191,
      "track_index": 1,
      "channel": 0,
      "midi_note": 60,
      "note_id": "midi_060",
      "sample_id": "grand_piano_060",
      "velocity": 44,
      "start_sec": 21.382812,
      "duration_sec": 0.286458
    },
    {
      "event_index": 192,
      "track_index": 1,
      "channel": 0,
      "midi_note": 77,
      "note_id": "midi_077",
      "sample_id": "grand_piano_077",
      "velocity": 68,
      "start_sec": 21.464844,
      "duration_sec": 0.134115
    },
    {
      "event_index": 193,
      "track_index": 1,
      "channel": 0,
      "midi_note": 79,
      "note_id": "midi_079",
      "sample_id": "grand_piano_079",
      "velocity": 77,
      "start_sec": 21.539062,
      "duration_sec": 0.10026
    },
    {
      "event_index": 194,
      "track_index": 1,
      "channel": 0,
      "midi_note": 77,
      "note_id": "midi_077",
      "sample_id": "grand_piano_077",
      "velocity": 76,
      "start_sec": 21.794271,
      "duration_sec": 0.304688
    },
    {
      "event_index": 195,
      "track_index": 1,
      "channel": 0,
      "midi_note": 64,
      "note_id": "midi_064",
      "sample_id": "grand_piano_064",
      "velocity": 69,
      "start_sec": 21.798177,
      "duration_sec": 0.246094
    },
    {
      "event_index": 196,
      "track_index": 1,
      "channel": 0,
      "midi_note": 67,
      "note_id": "midi_067",
      "sample_id": "grand_piano_067",
      "velocity": 73,
      "start_sec": 21.803385,
      "duration_sec": 0.335938
    },
    {
      "event_index": 197,
      "track_index": 1,
      "channel": 0,
      "midi_note": 60,
      "note_id": "midi_060",
      "sample_id": "grand_piano_060",
      "velocity": 61,
      "start_sec": 21.804688,
      "duration_sec": 0.264323
    },
    {
      "event_index": 198,
      "track_index": 1,
      "channel": 0,
      "midi_note": 79,
      "note_id": "midi_079",
      "sample_id": "grand_piano_079",
      "velocity": 79,
      "start_sec": 22.045573,
      "duration_sec": 0.294271
    },
    {
      "event_index": 199,
      "track_index": 1,
      "channel": 0,
      "midi_note": 57,
      "note_id": "midi_057",
      "sample_id": "grand_piano_057",
      "velocity": 61,
      "start_sec": 22.052083,
      "duration_sec": 0.296875
    },
    {
      "event_index": 200,
      "track_index": 1,
      "channel": 0,
      "midi_note": 72,
      "note_id": "midi_072",
      "sample_id": "grand_piano_072",
      "velocity": 82,
      "start_sec": 22.28776,
      "duration_sec": 0.492188
    },
    {
      "event_index": 201,
      "track_index": 1,
      "channel": 0,
      "midi_note": 60,
      "note_id": "midi_060",
      "sample_id": "grand_piano_060",
      "velocity": 60,
      "start_sec": 22.292969,
      "duration_sec": 0.476562
    },
    {
      "event_index": 202,
      "track_index": 1,
      "channel": 0,
      "midi_note": 64,
      "note_id": "midi_064",
      "sample_id": "grand_piano_064",
      "velocity": 68,
      "start_sec": 22.292969,
      "duration_sec": 0.526042
    },
    {
      "event_index": 203,
      "track_index": 1,
      "channel": 0,
      "midi_note": 84,
      "note_id": "midi_084",
      "sample_id": "grand_piano_084",
      "velocity": 77,
      "start_sec": 22.294271,
      "duration_sec": 0.22526
    },
    {
      "event_index": 204,
      "track_index": 1,
      "channel": 0,
      "midi_note": 67,
      "note_id": "midi_067",
      "sample_id": "grand_piano_067",
      "velocity": 75,
      "start_sec": 22.294271,
      "duration_sec": 0.565104
    },
    {
      "event_index": 205,
      "track_index": 1,
      "channel": 0,
      "midi_note": 84,
      "note_id": "midi_084",
      "sample_id": "grand_piano_084",
      "velocity": 72,
      "start_sec": 22.532552,
      "duration_sec": 0.285156
    },
    {
      "event_index": 206,
      "track_index": 1,
      "channel": 0,
      "midi_note": 45,
      "note_id": "midi_045",
      "sample_id": "grand_piano_045",
      "velocity": 55,
      "start_sec": 22.776042,
      "duration_sec": 0.044271
    },
    {
      "event_index": 207,
      "track_index": 1,
      "channel": 0,
      "midi_note": 79,
      "note_id": "midi_079",
      "sample_id": "grand_piano_079",
      "velocity": 76,
      "start_sec": 22.782552,
      "duration_sec": 0.048177
    },
    {
      "event_index": 208,
      "track_index": 1,
      "channel": 0,
      "midi_note": 79,
      "note_id": "midi_079",
      "sample_id": "grand_piano_079",
      "velocity": 78,
      "start_sec": 22.986979,
      "duration_sec": 0.231771
    },
    {
      "event_index": 209,
      "track_index": 1,
      "channel": 0,
      "midi_note": 38,
      "note_id": "midi_038",
      "sample_id": "grand_piano_038",
      "velocity": 53,
      "start_sec": 22.988281,
      "duration_sec": 0.450521
    },
    {
      "event_index": 210,
      "track_index": 1,
      "channel": 0,
      "midi_note": 81,
      "note_id": "midi_081",
      "sample_id": "grand_piano_081",
      "velocity": 79,
      "start_sec": 23.123698,
      "duration_sec": 0.205729
    },
    {
      "event_index": 211,
      "track_index": 1,
      "channel": 0,
      "midi_note": 79,
      "note_id": "midi_079",
      "sample_id": "grand_piano_079",
      "velocity": 72,
      "start_sec": 23.230469,
      "duration_sec": 0.199219
    },
    {
      "event_index": 212,
      "track_index": 1,
      "channel": 0,
      "midi_note": 81,
      "note_id": "midi_081",
      "sample_id": "grand_piano_081",
      "velocity": 78,
      "start_sec": 23.34375,
      "duration_sec": 0.122396
    },
    {
      "event_index": 213,
      "track_index": 1,
      "channel": 0,
      "midi_note": 57,
      "note_id": "midi_057",
      "sample_id": "grand_piano_057",
      "velocity": 69,
      "start_sec": 23.43099,
      "duration_sec": 0.397135
    },
    {
      "event_index": 214,
      "track_index": 1,
      "channel": 0,
      "midi_note": 50,
      "note_id": "midi_050",
      "sample_id": "grand_piano_050",
      "velocity": 69,
      "start_sec": 23.432292,
      "duration_sec": 0.390625
    },
    {
      "event_index": 215,
      "track_index": 1,
      "channel": 0,
      "midi_note": 60,
      "note_id": "midi_060",
      "sample_id": "grand_piano_060",
      "velocity": 66,
      "start_sec": 23.438802,
      "duration_sec": 0.394531
    },
    {
      "event_index": 216,
      "track_index": 1,
      "channel": 0,
      "midi_note": 79,
      "note_id": "midi_079",
      "sample_id": "grand_piano_079",
      "velocity": 78,
      "start_sec": 23.438802,
      "duration_sec": 0.420573
    },
    {
      "event_index": 217,
      "track_index": 1,
      "channel": 0,
      "midi_note": 76,
      "note_id": "midi_076",
      "sample_id": "grand_piano_076",
      "velocity": 70,
      "start_sec": 23.686198,
      "duration_sec": 0.158854
    },
    {
      "event_index": 218,
      "track_index": 1,
      "channel": 0,
      "midi_note": 77,
      "note_id": "midi_077",
      "sample_id": "grand_piano_077",
      "velocity": 79,
      "start_sec": 23.917969,
      "duration_sec": 1.332031
    },
    {
      "event_index": 219,
      "track_index": 1,
      "channel": 0,
      "midi_note": 50,
      "note_id": "midi_050",
      "sample_id": "grand_piano_050",
      "velocity": 69,
      "start_sec": 23.925781,
      "duration_sec": 0.563802
    },
    {
      "event_index": 220,
      "track_index": 1,
      "channel": 0,
      "midi_note": 38,
      "note_id": "midi_038",
      "sample_id": "grand_piano_038",
      "velocity": 64,
      "start_sec": 23.93099,
      "duration_sec": 0.542969
    },
    {
      "event_index": 221,
      "track_index": 1,
      "channel": 0,
      "midi_note": 48,
      "note_id": "midi_048",
      "sample_id": "grand_piano_048",
      "velocity": 79,
      "start_sec": 24.428385,
      "duration_sec": 0.382812
    },
    {
      "event_index": 222,
      "track_index": 1,
      "channel": 0,
      "midi_note": 36,
      "note_id": "midi_036",
      "sample_id": "grand_piano_036",
      "velocity": 61,
      "start_sec": 24.43099,
      "duration_sec": 0.375
    },
    {
      "event_index": 223,
      "track_index": 1,
      "channel": 0,
      "midi_note": 46,
      "note_id": "midi_046",
      "sample_id": "grand_piano_046",
      "velocity": 72,
      "start_sec": 24.894531,
      "duration_sec": 0.044271
    },
    {
      "event_index": 224,
      "track_index": 1,
      "channel": 0,
      "midi_note": 74,
      "note_id": "midi_074",
      "sample_id": "grand_piano_074",
      "velocity": 71,
      "start_sec": 24.898438,
      "duration_sec": 0.315104
    },
    {
      "event_index": 225,
      "track_index": 1,
      "channel": 0,
      "midi_note": 34,
      "note_id": "midi_034",
      "sample_id": "grand_piano_034",
      "velocity": 61,
      "start_sec": 24.901042,
      "duration_sec": 0.035156
    },
    {
      "event_index": 226,
      "track_index": 1,
      "channel": 0,
      "midi_note": 81,
      "note_id": "midi_081",
      "sample_id": "grand_piano_081",
      "velocity": 76,
      "start_sec": 25.166667,
      "duration_sec": 0.182292
    },
    {
      "event_index": 227,
      "track_index": 1,
      "channel": 0,
      "midi_note": 65,
      "note_id": "midi_065",
      "sample_id": "grand_piano_065",
      "velocity": 67,
      "start_sec": 25.171875,
      "duration_sec": 0.045573
    },
    {
      "event_index": 228,
      "track_index": 1,
      "channel": 0,
      "midi_note": 69,
      "note_id": "midi_069",
      "sample_id": "grand_piano_069",
      "velocity": 72,
      "start_sec": 25.174479,
      "duration_sec": 0.415365
    },
    {
      "event_index": 229,
      "track_index": 1,
      "channel": 0,
      "midi_note": 62,
      "note_id": "midi_062",
      "sample_id": "grand_piano_062",
      "velocity": 52,
      "start_sec": 25.182292,
      "duration_sec": 0.157552
    },
    {
      "event_index": 230,
      "track_index": 1,
      "channel": 0,
      "midi_note": 79,
      "note_id": "midi_079",
      "sample_id": "grand_piano_079",
      "velocity": 75,
      "start_sec": 25.273438,
      "duration_sec": 0.335938
    },
    {
      "event_index": 231,
      "track_index": 1,
      "channel": 0,
      "midi_note": 81,
      "note_id": "midi_081",
      "sample_id": "grand_piano_081",
      "velocity": 81,
      "start_sec": 25.356771,
      "duration_sec": 0.352865
    },
    {
      "event_index": 232,
      "track_index": 1,
      "channel": 0,
      "midi_note": 79,
      "note_id": "midi_079",
      "sample_id": "grand_piano_079",
      "velocity": 79,
      "start_sec": 25.623698,
      "duration_sec": 0.295573
    },
    {
      "event_index": 233,
      "track_index": 1,
      "channel": 0,
      "midi_note": 65,
      "note_id": "midi_065",
      "sample_id": "grand_piano_065",
      "velocity": 64,
      "start_sec": 25.63151,
      "duration_sec": 0.074219
    },
    {
      "event_index": 234,
      "track_index": 1,
      "channel": 0,
      "midi_note": 69,
      "note_id": "midi_069",
      "sample_id": "grand_piano_069",
      "velocity": 72,
      "start_sec": 25.636719,
      "duration_sec": 0.282552
    },
    {
      "event_index": 235,
      "track_index": 1,
      "channel": 0,
      "midi_note": 62,
      "note_id": "midi_062",
      "sample_id": "grand_piano_062",
      "velocity": 52,
      "start_sec": 25.653646,
      "duration_sec": 0.105469
    },
    {
      "event_index": 236,
      "track_index": 1,
      "channel": 0,
      "midi_note": 81,
      "note_id": "midi_081",
      "sample_id": "grand_piano_081",
      "velocity": 78,
      "start_sec": 25.871094,
      "duration_sec": 0.488281
    },
    {
      "event_index": 237,
      "track_index": 1,
      "channel": 0,
      "midi_note": 58,
      "note_id": "midi_058",
      "sample_id": "grand_piano_058",
      "velocity": 62,
      "start_sec": 25.885417,
      "duration_sec": 0.734375
    },
    {
      "event_index": 238,
      "track_index": 1,
      "channel": 0,
      "midi_note": 86,
      "note_id": "midi_086",
      "sample_id": "grand_piano_086",
      "velocity": 76,
      "start_sec": 26.123698,
      "duration_sec": 0.645833
    },
    {
      "event_index": 239,
      "track_index": 1,
      "channel": 0,
      "midi_note": 69,
      "note_id": "midi_069",
      "sample_id": "grand_piano_069",
      "velocity": 75,
      "start_sec": 26.13151,
      "duration_sec": 0.488281
    },
    {
      "event_index": 240,
      "track_index": 1,
      "channel": 0,
      "midi_note": 65,
      "note_id": "midi_065",
      "sample_id": "grand_piano_065",
      "velocity": 63,
      "start_sec": 26.134115,
      "duration_sec": 0.485677
    },
    {
      "event_index": 241,
      "track_index": 1,
      "channel": 0,
      "midi_note": 62,
      "note_id": "midi_062",
      "sample_id": "grand_piano_062",
      "velocity": 61,
      "start_sec": 26.135417,
      "duration_sec": 0.49349
    },
    {
      "event_index": 242,
      "track_index": 1,
      "channel": 0,
      "midi_note": 81,
      "note_id": "midi_081",
      "sample_id": "grand_piano_081",
      "velocity": 81,
      "start_sec": 26.373698,
      "duration_sec": 0.335938
    },
    {
      "event_index": 243,
      "track_index": 1,
      "channel": 0,
      "midi_note": 79,
      "note_id": "midi_079",
      "sample_id": "grand_piano_079",
      "velocity": 78,
      "start_sec": 26.619792,
      "duration_sec": 0.329427
    },
    {
      "event_index": 244,
      "track_index": 1,
      "channel": 0,
      "midi_note": 65,
      "note_id": "midi_065",
      "sample_id": "grand_piano_065",
      "velocity": 59,
      "start_sec": 26.626302,
      "duration_sec": 0.078125
    },
    {
      "event_index": 245,
      "track_index": 1,
      "channel": 0,
      "midi_note": 69,
      "note_id": "midi_069",
      "sample_id": "grand_piano_069",
      "velocity": 66,
      "start_sec": 26.630208,
      "duration_sec": 0.119792
    },
    {
      "event_index": 246,
      "track_index": 1,
      "channel": 0,
      "midi_note": 62,
      "note_id": "midi_062",
      "sample_id": "grand_piano_062",
      "velocity": 49,
      "start_sec": 26.635417,
      "duration_sec": 0.19401
    },
    {
      "event_index": 247,
      "track_index": 1,
      "channel": 0,
      "midi_note": 81,
      "note_id": "midi_081",
      "sample_id": "grand_piano_081",
      "velocity": 78,
      "start_sec": 26.84375,
      "duration_sec": 0.216146
    },
    {
      "event_index": 248,
      "track_index": 1,
      "channel": 0,
      "midi_note": 58,
      "note_id": "midi_058",
      "sample_id": "grand_piano_058",
      "velocity": 65,
      "start_sec": 26.847656,
      "duration_sec": 0.761719
    },
    {
      "event_index": 249,
      "track_index": 1,
      "channel": 0,
      "midi_note": 79,
      "note_id": "midi_079",
      "sample_id": "grand_piano_079",
      "velocity": 66,
      "start_sec": 26.959635,
      "duration_sec": 0.220052
    },
    {
      "event_index": 250,
      "track_index": 1,
      "channel": 0,
      "midi_note": 81,
      "note_id": "midi_081",
      "sample_id": "grand_piano_081",
      "velocity": 82,
      "start_sec": 27.065104,
      "duration_sec": 0.19401
    },
    {
      "event_index": 251,
      "track_index": 1,
      "channel": 0,
      "midi_note": 64,
      "note_id": "midi_064",
      "sample_id": "grand_piano_064",
      "velocity": 63,
      "start_sec": 27.098958,
      "duration_sec": 0.470052
    },
    {
      "event_index": 252,
      "track_index": 1,
      "channel": 0,
      "midi_note": 67,
      "note_id": "midi_067",
      "sample_id": "grand_piano_067",
      "velocity": 70,
      "start_sec": 27.102865,
      "duration_sec": 0.476562
    },
    {
      "event_index": 253,
      "track_index": 1,
      "channel": 0,
      "midi_note": 60,
      "note_id": "midi_060",
      "sample_id": "grand_piano_060",
      "velocity": 40,
      "start_sec": 27.126302,
      "duration_sec": 0.483073
    },
    {
      "event_index": 254,
      "track_index": 1,
      "channel": 0,
      "midi_note": 79,
      "note_id": "midi_079",
      "sample_id": "grand_piano_079",
      "velocity": 74,
      "start_sec": 27.192708,
      "duration_sec": 0.376302
    },
    {
      "event_index": 255,
      "track_index": 1,
      "channel": 0,
      "midi_note": 81,
      "note_id": "midi_081",
      "sample_id": "grand_piano_081",
      "velocity": 78,
      "start_sec": 27.272135,
      "duration_sec": 0.367188
    },
    {
      "event_index": 256,
      "track_index": 1,
      "channel": 0,
      "midi_note": 64,
      "note_id": "midi_064",
      "sample_id": "grand_piano_064",
      "velocity": 61,
      "start_sec": 27.582031,
      "duration_sec": 0.234375
    },
    {
      "event_index": 257,
      "track_index": 1,
      "channel": 0,
      "midi_note": 79,
      "note_id": "midi_079",
      "sample_id": "grand_piano_079",
      "velocity": 77,
      "start_sec": 27.582031,
      "duration_sec": 0.927083
    },
    {
      "event_index": 258,
      "track_index": 1,
      "channel": 0,
      "midi_note": 67,
      "note_id": "midi_067",
      "sample_id": "grand_piano_067",
      "velocity": 71,
      "start_sec": 27.584635,
      "duration_sec": 0.464844
    },
    {
      "event_index": 259,
      "track_index": 1,
      "channel": 0,
      "midi_note": 60,
      "note_id": "midi_060",
      "sample_id": "grand_piano_060",
      "velocity": 47,
      "start_sec": 27.614583,
      "duration_sec": 0.255208
    },
    {
      "event_index": 260,
      "track_index": 1,
      "channel": 0,
      "midi_note": 58,
      "note_id": "midi_058",
      "sample_id": "grand_piano_058",
      "velocity": 65,
      "start_sec": 27.822917,
      "duration_sec": 0.226562
    },
    {
      "event_index": 261,
      "track_index": 1,
      "channel": 0,
      "midi_note": 72,
      "note_id": "midi_072",
      "sample_id": "grand_piano_072",
      "velocity": 79,
      "start_sec": 27.824219,
      "duration_sec": 0.52474
    },
    {
      "event_index": 262,
      "track_index": 1,
      "channel": 0,
      "midi_note": 67,
      "note_id": "midi_067",
      "sample_id": "grand_piano_067",
      "velocity": 78,
      "start_sec": 28.061198,
      "duration_sec": 0.317708
    },
    {
      "event_index": 263,
      "track_index": 1,
      "channel": 0,
      "midi_note": 64,
      "note_id": "midi_064",
      "sample_id": "grand_piano_064",
      "velocity": 69,
      "start_sec": 28.3125,
      "duration_sec": 0.177083
    },
    {
      "event_index": 264,
      "track_index": 1,
      "channel": 0,
      "midi_note": 60,
      "note_id": "midi_060",
      "sample_id": "grand_piano_060",
      "velocity": 60,
      "start_sec": 28.554688,
      "duration_sec": 0.074219
    },
    {
      "event_index": 265,
      "track_index": 1,
      "channel": 0,
      "midi_note": 72,
      "note_id": "midi_072",
      "sample_id": "grand_piano_072",
      "velocity": 77,
      "start_sec": 28.791667,
      "duration_sec": 0.638021
    },
    {
      "event_index": 266,
      "track_index": 1,
      "channel": 0,
      "midi_note": 57,
      "note_id": "midi_057",
      "sample_id": "grand_piano_057",
      "velocity": 60,
      "start_sec": 28.792969,
      "duration_sec": 0.486979
    },
    {
      "event_index": 267,
      "track_index": 1,
      "channel": 0,
      "midi_note": 79,
      "note_id": "midi_079",
      "sample_id": "grand_piano_079",
      "velocity": 77,
      "start_sec": 29.007813,
      "duration_sec": 0.251302
    },
    {
      "event_index": 268,
      "track_index": 1,
      "channel": 0,
      "midi_note": 67,
      "note_id": "midi_067",
      "sample_id": "grand_piano_067",
      "velocity": 62,
      "start_sec": 29.048177,
      "duration_sec": 0.371094
    },
    {
      "event_index": 269,
      "track_index": 1,
      "channel": 0,
      "midi_note": 64,
      "note_id": "midi_064",
      "sample_id": "grand_piano_064",
      "velocity": 58,
      "start_sec": 29.052083,
      "duration_sec": 0.347656
    },
    {
      "event_index": 270,
      "track_index": 1,
      "channel": 0,
      "midi_note": 60,
      "note_id": "midi_060",
      "sample_id": "grand_piano_060",
      "velocity": 46,
      "start_sec": 29.054688,
      "duration_sec": 0.315104
    },
    {
      "event_index": 271,
      "track_index": 1,
      "channel": 0,
      "midi_note": 77,
      "note_id": "midi_077",
      "sample_id": "grand_piano_077",
      "velocity": 67,
      "start_sec": 29.15625,
      "duration_sec": 0.13151
    },
    {
      "event_index": 272,
      "track_index": 1,
      "channel": 0,
      "midi_note": 79,
      "note_id": "midi_079",
      "sample_id": "grand_piano_079",
      "velocity": 73,
      "start_sec": 29.265625,
      "duration_sec": 0.223958
    },
    {
      "event_index": 273,
      "track_index": 1,
      "channel": 0,
      "midi_note": 64,
      "note_id": "midi_064",
      "sample_id": "grand_piano_064",
      "velocity": 62,
      "start_sec": 29.454427,
      "duration_sec": 0.263021
    },
    {
      "event_index": 274,
      "track_index": 1,
      "channel": 0,
      "midi_note": 67,
      "note_id": "midi_067",
      "sample_id": "grand_piano_067",
      "velocity": 71,
      "start_sec": 29.470052,
      "duration_sec": 0.248698
    },
    {
      "event_index": 275,
      "track_index": 1,
      "channel": 0,
      "midi_note": 48,
      "note_id": "midi_048",
      "sample_id": "grand_piano_048",
      "velocity": 49,
      "start_sec": 29.481771,
      "duration_sec": 0.24349
    },
    {
      "event_index": 276,
      "track_index": 1,
      "channel": 0,
      "midi_note": 60,
      "note_id": "midi_060",
      "sample_id": "grand_piano_060",
      "velocity": 48,
      "start_sec": 29.485677,
      "duration_sec": 0.294271
    },
    {
      "event_index": 277,
      "track_index": 1,
      "channel": 0,
      "midi_note": 77,
      "note_id": "midi_077",
      "sample_id": "grand_piano_077",
      "velocity": 73,
      "start_sec": 29.486979,
      "duration_sec": 0.268229
    },
    {
      "event_index": 278,
      "track_index": 1,
      "channel": 0,
      "midi_note": 57,
      "note_id": "midi_057",
      "sample_id": "grand_piano_057",
      "velocity": 62,
      "start_sec": 29.717448,
      "duration_sec": 0.361979
    },
    {
      "event_index": 279,
      "track_index": 1,
      "channel": 0,
      "midi_note": 79,
      "note_id": "midi_079",
      "sample_id": "grand_piano_079",
      "velocity": 78,
      "start_sec": 29.717448,
      "duration_sec": 0.761719
    },
    {
      "event_index": 280,
      "track_index": 1,
      "channel": 0,
      "midi_note": 67,
      "note_id": "midi_067",
      "sample_id": "grand_piano_067",
      "velocity": 73,
      "start_sec": 29.945313,
      "duration_sec": 0.523438
    },
    {
      "event_index": 281,
      "track_index": 1,
      "channel": 0,
      "midi_note": 64,
      "note_id": "midi_064",
      "sample_id": "grand_piano_064",
      "velocity": 65,
      "start_sec": 29.966146,
      "duration_sec": 0.502604
    },
    {
      "event_index": 282,
      "track_index": 1,
      "channel": 0,
      "midi_note": 60,
      "note_id": "midi_060",
      "sample_id": "grand_piano_060",
      "velocity": 56,
      "start_sec": 29.96875,
      "duration_sec": 0.440104
    },
    {
      "event_index": 283,
      "track_index": 1,
      "channel": 0,
      "midi_note": 84,
      "note_id": "midi_084",
      "sample_id": "grand_piano_084",
      "velocity": 75,
      "start_sec": 29.972656,
      "duration_sec": 0.216146
    },
    {
      "event_index": 284,
      "track_index": 1,
      "channel": 0,
      "midi_note": 84,
      "note_id": "midi_084",
      "sample_id": "grand_piano_084",
      "velocity": 82,
      "start_sec": 30.203125,
      "duration_sec": 0.326823
    },
    {
      "event_index": 285,
      "track_index": 1,
      "channel": 0,
      "midi_note": 45,
      "note_id": "midi_045",
      "sample_id": "grand_piano_045",
      "velocity": 57,
      "start_sec": 30.446615,
      "duration_sec": 0.182292
    },
    {
      "event_index": 286,
      "track_index": 1,
      "channel": 0,
      "midi_note": 88,
      "note_id": "midi_088",
      "sample_id": "grand_piano_088",
      "velocity": 76,
      "start_sec": 30.453125,
      "duration_sec": 0.356771
    },
    {
      "event_index": 287,
      "track_index": 1,
      "channel": 0,
      "midi_note": 86,
      "note_id": "midi_086",
      "sample_id": "grand_piano_086",
      "velocity": 78,
      "start_sec": 30.671875,
      "duration_sec": 0.247396
    },
    {
      "event_index": 288,
      "track_index": 1,
      "channel": 0,
      "midi_note": 38,
      "note_id": "midi_038",
      "sample_id": "grand_piano_038",
      "velocity": 49,
      "start_sec": 30.673177,
      "duration_sec": 0.895833
    },
    {
      "event_index": 289,
      "track_index": 1,
      "channel": 0,
      "midi_note": 88,
      "note_id": "midi_088",
      "sample_id": "grand_piano_088",
      "velocity": 73,
      "start_sec": 30.824219,
      "duration_sec": 0.214844
    },
    {
      "event_index": 290,
      "track_index": 1,
      "channel": 0,
      "midi_note": 86,
      "note_id": "midi_086",
      "sample_id": "grand_piano_086",
      "velocity": 77,
      "start_sec": 30.933594,
      "duration_sec": 0.195312
    },
    {
      "event_index": 291,
      "track_index": 1,
      "channel": 0,
      "midi_note": 88,
      "note_id": "midi_088",
      "sample_id": "grand_piano_088",
      "velocity": 76,
      "start_sec": 31.053385,
      "duration_sec": 0.575521
    },
    {
      "event_index": 292,
      "track_index": 1,
      "channel": 0,
      "midi_note": 50,
      "note_id": "midi_050",
      "sample_id": "grand_piano_050",
      "velocity": 68,
      "start_sec": 31.115885,
      "duration_sec": 0.473958
    },
    {
      "event_index": 293,
      "track_index": 1,
      "channel": 0,
      "midi_note": 57,
      "note_id": "midi_057",
      "sample_id": "grand_piano_057",
      "velocity": 64,
      "start_sec": 31.123698,
      "duration_sec": 0.47526
    },
    {
      "event_index": 294,
      "track_index": 1,
      "channel": 0,
      "midi_note": 60,
      "note_id": "midi_060",
      "sample_id": "grand_piano_060",
      "velocity": 59,
      "start_sec": 31.127604,
      "duration_sec": 0.421875
    },
    {
      "event_index": 295,
      "track_index": 1,
      "channel": 0,
      "midi_note": 86,
      "note_id": "midi_086",
      "sample_id": "grand_piano_086",
      "velocity": 74,
      "start_sec": 31.134115,
      "duration_sec": 0.464844
    },
    {
      "event_index": 296,
      "track_index": 1,
      "channel": 0,
      "midi_note": 84,
      "note_id": "midi_084",
      "sample_id": "grand_piano_084",
      "velocity": 74,
      "start_sec": 31.371094,
      "duration_sec": 0.507812
    },
    {
      "event_index": 297,
      "track_index": 1,
      "channel": 0,
      "midi_note": 50,
      "note_id": "midi_050",
      "sample_id": "grand_piano_050",
      "velocity": 69,
      "start_sec": 31.602865,
      "duration_sec": 0.085937
    },
    {
      "event_index": 298,
      "track_index": 1,
      "channel": 0,
      "midi_note": 38,
      "note_id": "midi_038",
      "sample_id": "grand_piano_038",
      "velocity": 64,
      "start_sec": 31.604167,
      "duration_sec": 0.095052
    },
    {
      "event_index": 299,
      "track_index": 1,
      "channel": 0,
      "midi_note": 86,
      "note_id": "midi_086",
      "sample_id": "grand_piano_086",
      "velocity": 78,
      "start_sec": 31.604167,
      "duration_sec": 0.253906
    },
    {
      "event_index": 300,
      "track_index": 1,
      "channel": 0,
      "midi_note": 81,
      "note_id": "midi_081",
      "sample_id": "grand_piano_081",
      "velocity": 79,
      "start_sec": 31.833333,
      "duration_sec": 0.105469
    },
    {
      "event_index": 301,
      "track_index": 1,
      "channel": 0,
      "midi_note": 36,
      "note_id": "midi_036",
      "sample_id": "grand_piano_036",
      "velocity": 61,
      "start_sec": 31.83724,
      "duration_sec": 0.041667
    },
    {
      "event_index": 302,
      "track_index": 1,
      "channel": 0,
      "midi_note": 48,
      "note_id": "midi_048",
      "sample_id": "grand_piano_048",
      "velocity": 71,
      "start_sec": 31.83724,
      "duration_sec": 0.0625
    },
    {
      "event_index": 303,
      "track_index": 1,
      "channel": 0,
      "midi_note": 46,
      "note_id": "midi_046",
      "sample_id": "grand_piano_046",
      "velocity": 65,
      "start_sec": 32.072917,
      "duration_sec": 0.246094
    },
    {
      "event_index": 304,
      "track_index": 1,
      "channel": 0,
      "midi_note": 34,
      "note_id": "midi_034",
      "sample_id": "grand_piano_034",
      "velocity": 53,
      "start_sec": 32.074219,
      "duration_sec": 0.235677
    },
    {
      "event_index": 305,
      "track_index": 1,
      "channel": 0,
      "midi_note": 86,
      "note_id": "midi_086",
      "sample_id": "grand_piano_086",
      "velocity": 77,
      "start_sec": 32.075521,
      "duration_sec": 0.268229
    },
    {
      "event_index": 306,
      "track_index": 1,
      "channel": 0,
      "midi_note": 81,
      "note_id": "midi_081",
      "sample_id": "grand_piano_081",
      "velocity": 77,
      "start_sec": 32.080729,
      "duration_sec": 0.229167
    },
    {
      "event_index": 307,
      "track_index": 1,
      "channel": 0,
      "midi_note": 45,
      "note_id": "midi_045",
      "sample_id": "grand_piano_045",
      "velocity": 60,
      "start_sec": 32.316406,
      "duration_sec": 0.203125
    },
    {
      "event_index": 308,
      "track_index": 1,
      "channel": 0,
      "midi_note": 33,
      "note_id": "midi_033",
      "sample_id": "grand_piano_033",
      "velocity": 54,
      "start_sec": 32.317708,
      "duration_sec": 0.141927
    },
    {
      "event_index": 309,
      "track_index": 1,
      "channel": 0,
      "midi_note": 81,
      "note_id": "midi_081",
      "sample_id": "grand_piano_081",
      "velocity": 75,
      "start_sec": 32.322917,
      "duration_sec": 0.076823
    },
    {
      "event_index": 310,
      "track_index": 1,
      "channel": 0,
      "midi_note": 88,
      "note_id": "midi_088",
      "sample_id": "grand_piano_088",
      "velocity": 77,
      "start_sec": 32.324219,
      "duration_sec": 0.269531
    },
    {
      "event_index": 311,
      "track_index": 1,
      "channel": 0,
      "midi_note": 31,
      "note_id": "midi_031",
      "sample_id": "grand_piano_031",
      "velocity": 62,
      "start_sec": 32.561198,
      "duration_sec": 0.067708
    },
    {
      "event_index": 312,
      "track_index": 1,
      "channel": 0,
      "midi_note": 43,
      "note_id": "midi_043",
      "sample_id": "grand_piano_043",
      "velocity": 61,
      "start_sec": 32.5625,
      "duration_sec": 0.785156
    },
    {
      "event_index": 313,
      "track_index": 1,
      "channel": 0,
      "midi_note": 82,
      "note_id": "midi_082",
      "sample_id": "grand_piano_082",
      "velocity": 80,
      "start_sec": 32.570313,
      "duration_sec": 0.729167
    },
    {
      "event_index": 314,
      "track_index": 1,
      "channel": 0,
      "midi_note": 77,
      "note_id": "midi_077",
      "sample_id": "grand_piano_077",
      "velocity": 81,
      "start_sec": 32.571615,
      "duration_sec": 0.717448
    },
    {
      "event_index": 315,
      "track_index": 1,
      "channel": 0,
      "midi_note": 89,
      "note_id": "midi_089",
      "sample_id": "grand_piano_089",
      "velocity": 76,
      "start_sec": 32.571615,
      "duration_sec": 0.817708
    },
    {
      "event_index": 316,
      "track_index": 1,
      "channel": 0,
      "midi_note": 58,
      "note_id": "midi_058",
      "sample_id": "grand_piano_058",
      "velocity": 59,
      "start_sec": 33.065104,
      "duration_sec": 0.286458
    },
    {
      "event_index": 317,
      "track_index": 1,
      "channel": 0,
      "midi_note": 86,
      "note_id": "midi_086",
      "sample_id": "grand_piano_086",
      "velocity": 76,
      "start_sec": 33.298177,
      "duration_sec": 1.24349
    },
    {
      "event_index": 318,
      "track_index": 1,
      "channel": 0,
      "midi_note": 77,
      "note_id": "midi_077",
      "sample_id": "grand_piano_077",
      "velocity": 80,
      "start_sec": 33.299479,
      "duration_sec": 1.25
    },
    {
      "event_index": 319,
      "track_index": 1,
      "channel": 0,
      "midi_note": 62,
      "note_id": "midi_062",
      "sample_id": "grand_piano_062",
      "velocity": 64,
      "start_sec": 33.304688,
      "duration_sec": 0.494792
    },
    {
      "event_index": 320,
      "track_index": 1,
      "channel": 0,
      "midi_note": 82,
      "note_id": "midi_082",
      "sample_id": "grand_piano_082",
      "velocity": 77,
      "start_sec": 33.304688,
      "duration_sec": 1.174479
    },
    {
      "event_index": 321,
      "track_index": 1,
      "channel": 0,
      "midi_note": 65,
      "note_id": "midi_065",
      "sample_id": "grand_piano_065",
      "velocity": 66,
      "start_sec": 33.5625,
      "duration_sec": 0.976562
    },
    {
      "event_index": 322,
      "track_index": 1,
      "channel": 0,
      "midi_note": 62,
      "note_id": "midi_062",
      "sample_id": "grand_piano_062",
      "velocity": 63,
      "start_sec": 33.804688,
      "duration_sec": 0.734375
    },
    {
      "event_index": 323,
      "track_index": 1,
      "channel": 0,
      "midi_note": 93,
      "note_id": "midi_093",
      "sample_id": "grand_piano_093",
      "velocity": 75,
      "start_sec": 34.00651,
      "duration_sec": 0.483073
    },
    {
      "event_index": 324,
      "track_index": 1,
      "channel": 0,
      "midi_note": 81,
      "note_id": "midi_081",
      "sample_id": "grand_piano_081",
      "velocity": 80,
      "start_sec": 34.011719,
      "duration_sec": 0.528646
    },
    {
      "event_index": 325,
      "track_index": 1,
      "channel": 0,
      "midi_note": 58,
      "note_id": "midi_058",
      "sample_id": "grand_piano_058",
      "velocity": 65,
      "start_sec": 34.03776,
      "duration_sec": 0.309896
    },
    {
      "event_index": 326,
      "track_index": 1,
      "channel": 0,
      "midi_note": 43,
      "note_id": "midi_043",
      "sample_id": "grand_piano_043",
      "velocity": 51,
      "start_sec": 34.285156,
      "duration_sec": 0.114583
    },
    {
      "event_index": 327,
      "track_index": 1,
      "channel": 0,
      "midi_note": 85,
      "note_id": "midi_085",
      "sample_id": "grand_piano_085",
      "velocity": 78,
      "start_sec": 34.513021,
      "duration_sec": 0.716146
    },
    {
      "event_index": 328,
      "track_index": 1,
      "channel": 0,
      "midi_note": 36,
      "note_id": "midi_036",
      "sample_id": "grand_piano_036",
      "velocity": 53,
      "start_sec": 34.513021,
      "duration_sec": 1.955729
    },
    {
      "event_index": 329,
      "track_index": 1,
      "channel": 0,
      "midi_note": 24,
      "note_id": "midi_024",
      "sample_id": "grand_piano_024",
      "velocity": 63,
      "start_sec": 34.514323,
      "duration_sec": 0.154948
    },
    {
      "event_index": 330,
      "track_index": 1,
      "channel": 0,
      "midi_note": 82,
      "note_id": "midi_082",
      "sample_id": "grand_piano_082",
      "velocity": 79,
      "start_sec": 34.523438,
      "duration_sec": 0.716146
    },
    {
      "event_index": 331,
      "track_index": 1,
      "channel": 0,
      "midi_note": 76,
      "note_id": "midi_076",
      "sample_id": "grand_piano_076",
      "velocity": 52,
      "start_sec": 34.542969,
      "duration_sec": 1.915365
    },
    {
      "event_index": 332,
      "track_index": 1,
      "channel": 0,
      "midi_note": 48,
      "note_id": "midi_048",
      "sample_id": "grand_piano_048",
      "velocity": 59,
      "start_sec": 34.770833,
      "duration_sec": 1.428385
    },
    {
      "event_index": 333,
      "track_index": 1,
      "channel": 0,
      "midi_note": 52,
      "note_id": "midi_052",
      "sample_id": "grand_piano_052",
      "velocity": 55,
      "start_sec": 35.011719,
      "duration_sec": 0.947917
    },
    {
      "event_index": 334,
      "track_index": 1,
      "channel": 0,
      "midi_note": 85,
      "note_id": "midi_085",
      "sample_id": "grand_piano_085",
      "velocity": 79,
      "start_sec": 35.242188,
      "duration_sec": 1.216146
    },
    {
      "event_index": 335,
      "track_index": 1,
      "channel": 0,
      "midi_note": 94,
      "note_id": "midi_094",
      "sample_id": "grand_piano_094",
      "velocity": 72,
      "start_sec": 35.252604,
      "duration_sec": 1.204427
    },
    {
      "event_index": 336,
      "track_index": 1,
      "channel": 0,
      "midi_note": 82,
      "note_id": "midi_082",
      "sample_id": "grand_piano_082",
      "velocity": 80,
      "start_sec": 35.252604,
      "duration_sec": 1.205729
    },
    {
      "event_index": 337,
      "track_index": 1,
      "channel": 0,
      "midi_note": 91,
      "note_id": "midi_091",
      "sample_id": "grand_piano_091",
      "velocity": 75,
      "start_sec": 35.255208,
      "duration_sec": 1.201823
    },
    {
      "event_index": 338,
      "track_index": 1,
      "channel": 0,
      "midi_note": 55,
      "note_id": "midi_055",
      "sample_id": "grand_piano_055",
      "velocity": 58,
      "start_sec": 35.259115,
      "duration_sec": 0.459635
    },
    {
      "event_index": 339,
      "track_index": 1,
      "channel": 0,
      "midi_note": 58,
      "note_id": "midi_058",
      "sample_id": "grand_piano_058",
      "velocity": 63,
      "start_sec": 35.483073,
      "duration_sec": 0.977865
    },
    {
      "event_index": 340,
      "track_index": 1,
      "channel": 0,
      "midi_note": 55,
      "note_id": "midi_055",
      "sample_id": "grand_piano_055",
      "velocity": 50,
      "start_sec": 35.734375,
      "duration_sec": 0.72526
    },
    {
      "event_index": 341,
      "track_index": 1,
      "channel": 0,
      "midi_note": 52,
      "note_id": "midi_052",
      "sample_id": "grand_piano_052",
      "velocity": 60,
      "start_sec": 35.971354,
      "duration_sec": 0.485677
    },
    {
      "event_index": 342,
      "track_index": 1,
      "channel": 0,
      "midi_note": 48,
      "note_id": "midi_048",
      "sample_id": "grand_piano_048",
      "velocity": 52,
      "start_sec": 36.207031,
      "duration_sec": 0.248698
    },
    {
      "event_index": 343,
      "track_index": 1,
      "channel": 0,
      "midi_note": 77,
      "note_id": "midi_077",
      "sample_id": "grand_piano_077",
      "velocity": 62,
      "start_sec": 36.333333,
      "duration_sec": 0.825521
    },
    {
      "event_index": 344,
      "track_index": 1,
      "channel": 0,
      "midi_note": 81,
      "note_id": "midi_081",
      "sample_id": "grand_piano_081",
      "velocity": 72,
      "start_sec": 36.385417,
      "duration_sec": 0.773438
    },
    {
      "event_index": 345,
      "track_index": 1,
      "channel": 0,
      "midi_note": 29,
      "note_id": "midi_029",
      "sample_id": "grand_piano_029",
      "velocity": 60,
      "start_sec": 36.436198,
      "duration_sec": 0.083333
    },
    {
      "event_index": 346,
      "track_index": 1,
      "channel": 0,
      "midi_note": 41,
      "note_id": "midi_041",
      "sample_id": "grand_piano_041",
      "velocity": 52,
      "start_sec": 36.441406,
      "duration_sec": 1.11849
    },
    {
      "event_index": 347,
      "track_index": 1,
      "channel": 0,
      "midi_note": 88,
      "note_id": "midi_088",
      "sample_id": "grand_piano_088",
      "velocity": 75,
      "start_sec": 36.454427,
      "duration_sec": 1.174479
    },
    {
      "event_index": 348,
      "track_index": 1,
      "channel": 0,
      "midi_note": 53,
      "note_id": "midi_053",
      "sample_id": "grand_piano_053",
      "velocity": 61,
      "start_sec": 36.697917,
      "duration_sec": 1.421875
    },
    {
      "event_index": 349,
      "track_index": 1,
      "channel": 0,
      "midi_note": 57,
      "note_id": "midi_057",
      "sample_id": "grand_piano_057",
      "velocity": 56,
      "start_sec": 36.932292,
      "duration_sec": 0.217448
    },
    {
      "event_index": 350,
      "track_index": 1,
      "channel": 0,
      "midi_note": 57,
      "note_id": "midi_057",
      "sample_id": "grand_piano_057",
      "velocity": 58,
      "start_sec": 37.164063,
      "duration_sec": 0.72526
    },
    {
      "event_index": 351,
      "track_index": 1,
      "channel": 0,
      "midi_note": 84,
      "note_id": "midi_084",
      "sample_id": "grand_piano_084",
      "velocity": 81,
      "start_sec": 37.165365,
      "duration_sec": 1.204427
    },
    {
      "event_index": 352,
      "track_index": 1,
      "channel": 0,
      "midi_note": 72,
      "note_id": "midi_072",
      "sample_id": "grand_piano_072",
      "velocity": 76,
      "start_sec": 37.171875,
      "duration_sec": 1.03776
    },
    {
      "event_index": 353,
      "track_index": 1,
      "channel": 0,
      "midi_note": 81,
      "note_id": "midi_081",
      "sample_id": "grand_piano_081",
      "velocity": 79,
      "start_sec": 37.171875,
      "duration_sec": 1.1875
    },
    {
      "event_index": 354,
      "track_index": 1,
      "channel": 0,
      "midi_note": 77,
      "note_id": "midi_077",
      "sample_id": "grand_piano_077",
      "velocity": 72,
      "start_sec": 37.173177,
      "duration_sec": 1.192708
    },
    {
      "event_index": 355,
      "track_index": 1,
      "channel": 0,
      "midi_note": 64,
      "note_id": "midi_064",
      "sample_id": "grand_piano_064",
      "velocity": 61,
      "start_sec": 37.389323,
      "duration_sec": 0.96875
    },
    {
      "event_index": 356,
      "track_index": 1,
      "channel": 0,
      "midi_note": 60,
      "note_id": "midi_060",
      "sample_id": "grand_piano_060",
      "velocity": 49,
      "start_sec": 37.64974,
      "duration_sec": 0.723958
    },
    {
      "event_index": 357,
      "track_index": 1,
      "channel": 0,
      "midi_note": 57,
      "note_id": "midi_057",
      "sample_id": "grand_piano_057",
      "velocity": 54,
      "start_sec": 37.902344,
      "duration_sec": 0.46224
    },
    {
      "event_index": 358,
      "track_index": 1,
      "channel": 0,
      "midi_note": 53,
      "note_id": "midi_053",
      "sample_id": "grand_piano_053",
      "velocity": 57,
      "start_sec": 38.134115,
      "duration_sec": 0.234375
    },
    {
      "event_index": 359,
      "track_index": 1,
      "channel": 0,
      "midi_note": 72,
      "note_id": "midi_072",
      "sample_id": "grand_piano_072",
      "velocity": 67,
      "start_sec": 38.223958,
      "duration_sec": 0.875
    },
    {
      "event_index": 360,
      "track_index": 1,
      "channel": 0,
      "midi_note": 74,
      "note_id": "midi_074",
      "sample_id": "grand_piano_074",
      "velocity": 64,
      "start_sec": 38.285156,
      "duration_sec": 0.804688
    },
    {
      "event_index": 361,
      "track_index": 1,
      "channel": 0,
      "midi_note": 46,
      "note_id": "midi_046",
      "sample_id": "grand_piano_046",
      "velocity": 57,
      "start_sec": 38.36849,
      "duration_sec": 1.710938
    },
    {
      "event_index": 362,
      "track_index": 1,
      "channel": 0,
      "midi_note": 81,
      "note_id": "midi_081",
      "sample_id": "grand_piano_081",
      "velocity": 78,
      "start_sec": 38.36849,
      "duration_sec": 1.878906
    },
    {
      "event_index": 363,
      "track_index": 1,
      "channel": 0,
      "midi_note": 50,
      "note_id": "midi_050",
      "sample_id": "grand_piano_050",
      "velocity": 57,
      "start_sec": 38.864583,
      "duration_sec": 0.964844
    },
    {
      "event_index": 364,
      "track_index": 1,
      "channel": 0,
      "midi_note": 79,
      "note_id": "midi_079",
      "sample_id": "grand_piano_079",
      "velocity": 78,
      "start_sec": 39.10026,
      "duration_sec": 1.21875
    },
    {
      "event_index": 365,
      "track_index": 1,
      "channel": 0,
      "midi_note": 74,
      "note_id": "midi_074",
      "sample_id": "grand_piano_074",
      "velocity": 73,
      "start_sec": 39.102865,
      "duration_sec": 1.106771
    },
    {
      "event_index": 366,
      "track_index": 1,
      "channel": 0,
      "midi_note": 53,
      "note_id": "midi_053",
      "sample_id": "grand_piano_053",
      "velocity": 64,
      "start_sec": 39.105469,
      "duration_sec": 0.49349
    },
    {
      "event_index": 367,
      "track_index": 1,
      "channel": 0,
      "midi_note": 72,
      "note_id": "midi_072",
      "sample_id": "grand_piano_072",
      "velocity": 83,
      "start_sec": 39.105469,
      "duration_sec": 1.223958
    },
    {
      "event_index": 368,
      "track_index": 1,
      "channel": 0,
      "midi_note": 57,
      "note_id": "midi_057",
      "sample_id": "grand_piano_057",
      "velocity": 55,
      "start_sec": 39.333333,
      "duration_sec": 0.916667
    },
    {
      "event_index": 369,
      "track_index": 1,
      "channel": 0,
      "midi_note": 53,
      "note_id": "midi_053",
      "sample_id": "grand_piano_053",
      "velocity": 62,
      "start_sec": 39.604167,
      "duration_sec": 0.640625
    },
    {
      "event_index": 370,
      "track_index": 1,
      "channel": 0,
      "midi_note": 50,
      "note_id": "midi_050",
      "sample_id": "grand_piano_050",
      "velocity": 53,
      "start_sec": 39.834635,
      "duration_sec": 0.415365
    },
    {
      "event_index": 371,
      "track_index": 1,
      "channel": 0,
      "midi_note": 46,
      "note_id": "midi_046",
      "sample_id": "grand_piano_046",
      "velocity": 51,
      "start_sec": 40.092448,
      "duration_sec": 0.967448
    },
    {
      "event_index": 372,
      "track_index": 1,
      "channel": 0,
      "midi_note": 82,
      "note_id": "midi_082",
      "sample_id": "grand_piano_082",
      "velocity": 57,
      "start_sec": 40.134115,
      "duration_sec": 0.154948
    },
    {
      "event_index": 373,
      "track_index": 1,
      "channel": 0,
      "midi_note": 70,
      "note_id": "midi_070",
      "sample_id": "grand_piano_070",
      "velocity": 60,
      "start_sec": 40.136719,
      "duration_sec": 0.90625
    },
    {
      "event_index": 374,
      "track_index": 1,
      "channel": 0,
      "midi_note": 74,
      "note_id": "midi_074",
      "sample_id": "grand_piano_074",
      "velocity": 65,
      "start_sec": 40.216146,
      "duration_sec": 2.053385
    },
    {
      "event_index": 375,
      "track_index": 1,
      "channel": 0,
      "midi_note": 79,
      "note_id": "midi_079",
      "sample_id": "grand_piano_079",
      "velocity": 74,
      "start_sec": 40.325521,
      "duration_sec": 0.709635
    },
    {
      "event_index": 376,
      "track_index": 1,
      "channel": 0,
      "midi_note": 40,
      "note_id": "midi_040",
      "sample_id": "grand_piano_040",
      "velocity": 46,
      "start_sec": 40.347656,
      "duration_sec": 1.621094
    },
    {
      "event_index": 377,
      "track_index": 1,
      "channel": 0,
      "midi_note": 82,
      "note_id": "midi_082",
      "sample_id": "grand_piano_082",
      "velocity": 75,
      "start_sec": 40.35026,
      "duration_sec": 0.686198
    },
    {
      "event_index": 378,
      "track_index": 1,
      "channel": 0,
      "midi_note": 52,
      "note_id": "midi_052",
      "sample_id": "grand_piano_052",
      "velocity": 67,
      "start_sec": 40.979167,
      "duration_sec": 1.300781
    },
    {
      "event_index": 379,
      "track_index": 1,
      "channel": 0,
      "midi_note": 58,
      "note_id": "midi_058",
      "sample_id": "grand_piano_058",
      "velocity": 71,
      "start_sec": 40.981771,
      "duration_sec": 1.285156
    },
    {
      "event_index": 380,
      "track_index": 1,
      "channel": 0,
      "midi_note": 55,
      "note_id": "midi_055",
      "sample_id": "grand_piano_055",
      "velocity": 65,
      "start_sec": 40.984375,
      "duration_sec": 1.282552
    },
    {
      "event_index": 381,
      "track_index": 1,
      "channel": 0,
      "midi_note": 62,
      "note_id": "midi_062",
      "sample_id": "grand_piano_062",
      "velocity": 66,
      "start_sec": 40.985677,
      "duration_sec": 1.282552
    },
    {
      "event_index": 382,
      "track_index": 1,
      "channel": 0,
      "midi_note": 81,
      "note_id": "midi_081",
      "sample_id": "grand_piano_081",
      "velocity": 77,
      "start_sec": 41.657552,
      "duration_sec": 0.611979
    },
    {
      "event_index": 383,
      "track_index": 1,
      "channel": 0,
      "midi_note": 69,
      "note_id": "midi_069",
      "sample_id": "grand_piano_069",
      "velocity": 78,
      "start_sec": 41.665365,
      "duration_sec": 0.598958
    },
    {
      "event_index": 384,
      "track_index": 1,
      "channel": 0,
      "midi_note": 46,
      "note_id": "midi_046",
      "sample_id": "grand_piano_046",
      "velocity": 47,
      "start_sec": 41.671875,
      "duration_sec": 0.617188
    },
    {
      "event_index": 385,
      "track_index": 1,
      "channel": 0,
      "midi_note": 40,
      "note_id": "midi_040",
      "sample_id": "grand_piano_040",
      "velocity": 46,
      "start_sec": 41.973958,
      "duration_sec": 0.294271
    },
    {
      "event_index": 386,
      "track_index": 1,
      "channel": 0,
      "midi_note": 82,
      "note_id": "midi_082",
      "sample_id": "grand_piano_082",
      "velocity": 76,
      "start_sec": 41.981771,
      "duration_sec": 0.291667
    },
    {
      "event_index": 387,
      "track_index": 1,
      "channel": 0,
      "midi_note": 70,
      "note_id": "midi_070",
      "sample_id": "grand_piano_070",
      "velocity": 72,
      "start_sec": 41.984375,
      "duration_sec": 0.277344
    },
    {
      "event_index": 388,
      "track_index": 1,
      "channel": 0,
      "midi_note": 33,
      "note_id": "midi_033",
      "sample_id": "grand_piano_033",
      "velocity": 52,
      "start_sec": 42.295573,
      "duration_sec": 0.69401
    },
    {
      "event_index": 389,
      "track_index": 1,
      "channel": 0,
      "midi_note": 45,
      "note_id": "midi_045",
      "sample_id": "grand_piano_045",
      "velocity": 62,
      "start_sec": 42.295573,
      "duration_sec": 0.723958
    },
    {
      "event_index": 390,
      "track_index": 1,
      "channel": 0,
      "midi_note": 84,
      "note_id": "midi_084",
      "sample_id": "grand_piano_084",
      "velocity": 80,
      "start_sec": 42.299479,
      "duration_sec": 1.981771
    },
    {
      "event_index": 391,
      "track_index": 1,
      "channel": 0,
      "midi_note": 76,
      "note_id": "midi_076",
      "sample_id": "grand_piano_076",
      "velocity": 72,
      "start_sec": 42.302083,
      "duration_sec": 0.717448
    },
    {
      "event_index": 392,
      "track_index": 1,
      "channel": 0,
      "midi_note": 73,
      "note_id": "midi_073",
      "sample_id": "grand_piano_073",
      "velocity": 64,
      "start_sec": 42.304688,
      "duration_sec": 0.714844
    },
    {
      "event_index": 393,
      "track_index": 1,
      "channel": 0,
      "midi_note": 61,
      "note_id": "midi_061",
      "sample_id": "grand_piano_061",
      "velocity": 55,
      "start_sec": 42.791667,
      "duration_sec": 0.9375
    },
    {
      "event_index": 394,
      "track_index": 1,
      "channel": 0,
      "midi_note": 45,
      "note_id": "midi_045",
      "sample_id": "grand_piano_045",
      "velocity": 51,
      "start_sec": 43.027344,
      "duration_sec": 0.951823
    },
    {
      "event_index": 395,
      "track_index": 1,
      "channel": 0,
      "midi_note": 82,
      "note_id": "midi_082",
      "sample_id": "grand_piano_082",
      "velocity": 76,
      "start_sec": 43.028646,
      "duration_sec": 1.248698
    },
    {
      "event_index": 396,
      "track_index": 1,
      "channel": 0,
      "midi_note": 76,
      "note_id": "midi_076",
      "sample_id": "grand_piano_076",
      "velocity": 72,
      "start_sec": 43.032552,
      "duration_sec": 0.696615
    },
    {
      "event_index": 397,
      "track_index": 1,
      "channel": 0,
      "midi_note": 73,
      "note_id": "midi_073",
      "sample_id": "grand_piano_073",
      "velocity": 70,
      "start_sec": 43.033854,
      "duration_sec": 0.695312
    },
    {
      "event_index": 398,
      "track_index": 1,
      "channel": 0,
      "midi_note": 64,
      "note_id": "midi_064",
      "sample_id": "grand_piano_064",
      "velocity": 65,
      "start_sec": 43.042969,
      "duration_sec": 0.457031
    },
    {
      "event_index": 399,
      "track_index": 1,
      "channel": 0,
      "midi_note": 67,
      "note_id": "midi_067",
      "sample_id": "grand_piano_067",
      "velocity": 74,
      "start_sec": 43.27474,
      "duration_sec": 1.007813
    },
    {
      "event_index": 400,
      "track_index": 1,
      "channel": 0,
      "midi_note": 64,
      "note_id": "midi_064",
      "sample_id": "grand_piano_064",
      "velocity": 67,
      "start_sec": 43.511719,
      "duration_sec": 0.766927
    },
    {
      "event_index": 401,
      "track_index": 1,
      "channel": 0,
      "midi_note": 81,
      "note_id": "midi_081",
      "sample_id": "grand_piano_081",
      "velocity": 74,
      "start_sec": 43.734375,
      "duration_sec": 0.548177
    },
    {
      "event_index": 402,
      "track_index": 1,
      "channel": 0,
      "midi_note": 76,
      "note_id": "midi_076",
      "sample_id": "grand_piano_076",
      "velocity": 68,
      "start_sec": 43.736979,
      "duration_sec": 0.546875
    },
    {
      "event_index": 403,
      "track_index": 1,
      "channel": 0,
      "midi_note": 73,
      "note_id": "midi_073",
      "sample_id": "grand_piano_073",
      "velocity": 70,
      "start_sec": 43.738281,
      "duration_sec": 0.544271
    },
    {
      "event_index": 404,
      "track_index": 1,
      "channel": 0,
      "midi_note": 61,
      "note_id": "midi_061",
      "sample_id": "grand_piano_061",
      "velocity": 56,
      "start_sec": 43.74349,
      "duration_sec": 0.53776
    },
    {
      "event_index": 405,
      "track_index": 1,
      "channel": 0,
      "midi_note": 45,
      "note_id": "midi_045",
      "sample_id": "grand_piano_045",
      "velocity": 59,
      "start_sec": 43.994792,
      "duration_sec": 0.28776
    },
    {
      "event_index": 406,
      "track_index": 1,
      "channel": 0,
      "midi_note": 79,
      "note_id": "midi_079",
      "sample_id": "grand_piano_079",
      "velocity": 77,
      "start_sec": 44.230469,
      "duration_sec": 0.760417
    },
    {
      "event_index": 407,
      "track_index": 1,
      "channel": 0,
      "midi_note": 38,
      "note_id": "midi_038",
      "sample_id": "grand_piano_038",
      "velocity": 56,
      "start_sec": 44.234375,
      "duration_sec": 1.825521
    },
    {
      "event_index": 408,
      "track_index": 1,
      "channel": 0,
      "midi_note": 72,
      "note_id": "midi_072",
      "sample_id": "grand_piano_072",
      "velocity": 81,
      "start_sec": 44.235677,
      "duration_sec": 0.69401
    },
    {
      "event_index": 409,
      "track_index": 1,
      "channel": 0,
      "midi_note": 50,
      "note_id": "midi_050",
      "sample_id": "grand_piano_050",
      "velocity": 58,
      "start_sec": 44.24349,
      "duration_sec": 0.686198
    },
    {
      "event_index": 410,
      "track_index": 1,
      "channel": 0,
      "midi_note": 69,
      "note_id": "midi_069",
      "sample_id": "grand_piano_069",
      "velocity": 74,
      "start_sec": 44.24349,
      "duration_sec": 0.695312
    },
    {
      "event_index": 411,
      "track_index": 1,
      "channel": 0,
      "midi_note": 57,
      "note_id": "midi_057",
      "sample_id": "grand_piano_057",
      "velocity": 67,
      "start_sec": 44.924479,
      "duration_sec": 1.195313
    },
    {
      "event_index": 412,
      "track_index": 1,
      "channel": 0,
      "midi_note": 72,
      "note_id": "midi_072",
      "sample_id": "grand_piano_072",
      "velocity": 81,
      "start_sec": 44.936198,
      "duration_sec": 0.733073
    },
    {
      "event_index": 413,
      "track_index": 1,
      "channel": 0,
      "midi_note": 81,
      "note_id": "midi_081",
      "sample_id": "grand_piano_081",
      "velocity": 74,
      "start_sec": 44.941406,
      "duration_sec": 0.717448
    },
    {
      "event_index": 414,
      "track_index": 1,
      "channel": 0,
      "midi_note": 77,
      "note_id": "midi_077",
      "sample_id": "grand_piano_077",
      "velocity": 79,
      "start_sec": 44.942708,
      "duration_sec": 1.33724
    },
    {
      "event_index": 415,
      "track_index": 1,
      "channel": 0,
      "midi_note": 69,
      "note_id": "midi_069",
      "sample_id": "grand_piano_069",
      "velocity": 75,
      "start_sec": 44.94401,
      "duration_sec": 0.72526
    },
    {
      "event_index": 416,
      "track_index": 1,
      "channel": 0,
      "midi_note": 50,
      "note_id": "midi_050",
      "sample_id": "grand_piano_050",
      "velocity": 64,
      "start_sec": 44.94401,
      "duration_sec": 1.175781
    },
    {
      "event_index": 417,
      "track_index": 1,
      "channel": 0,
      "midi_note": 60,
      "note_id": "midi_060",
      "sample_id": "grand_piano_060",
      "velocity": 65,
      "start_sec": 44.945313,
      "duration_sec": 1.114583
    },
    {
      "event_index": 418,
      "track_index": 1,
      "channel": 0,
      "midi_note": 79,
      "note_id": "midi_079",
      "sample_id": "grand_piano_079",
      "velocity": 76,
      "start_sec": 45.670573,
      "duration_sec": 0.789063
    },
    {
      "event_index": 419,
      "track_index": 1,
      "channel": 0,
      "midi_note": 81,
      "note_id": "midi_081",
      "sample_id": "grand_piano_081",
      "velocity": 73,
      "start_sec": 45.671875,
      "duration_sec": 0.457031
    },
    {
      "event_index": 420,
      "track_index": 1,
      "channel": 0,
      "midi_note": 45,
      "note_id": "midi_045",
      "sample_id": "grand_piano_045",
      "velocity": 61,
      "start_sec": 45.673177,
      "duration_sec": 0.496094
    },
    {
      "event_index": 421,
      "track_index": 1,
      "channel": 0,
      "midi_note": 72,
      "note_id": "midi_072",
      "sample_id": "grand_piano_072",
      "velocity": 75,
      "start_sec": 45.674479,
      "duration_sec": 0.36849
    },
    {
      "event_index": 422,
      "track_index": 1,
      "channel": 0,
      "midi_note": 69,
      "note_id": "midi_069",
      "sample_id": "grand_piano_069",
      "velocity": 71,
      "start_sec": 45.68099,
      "duration_sec": 0.458333
    },
    {
      "event_index": 423,
      "track_index": 1,
      "channel": 0,
      "midi_note": 50,
      "note_id": "midi_050",
      "sample_id": "grand_piano_050",
      "velocity": 65,
      "start_sec": 46.128906,
      "duration_sec": 0.980469
    },
    {
      "event_index": 424,
      "track_index": 1,
      "channel": 0,
      "midi_note": 38,
      "note_id": "midi_038",
      "sample_id": "grand_piano_038",
      "velocity": 60,
      "start_sec": 46.134115,
      "duration_sec": 0.97526
    },
    {
      "event_index": 425,
      "track_index": 1,
      "channel": 0,
      "midi_note": 81,
      "note_id": "midi_081",
      "sample_id": "grand_piano_081",
      "velocity": 78,
      "start_sec": 46.135417,
      "duration_sec": 1.033854
    },
    {
      "event_index": 426,
      "track_index": 1,
      "channel": 0,
      "midi_note": 75,
      "note_id": "midi_075",
      "sample_id": "grand_piano_075",
      "velocity": 73,
      "start_sec": 46.141927,
      "duration_sec": 0.467448
    },
    {
      "event_index": 427,
      "track_index": 1,
      "channel": 0,
      "midi_note": 69,
      "note_id": "midi_069",
      "sample_id": "grand_piano_069",
      "velocity": 78,
      "start_sec": 46.144531,
      "duration_sec": 0.484375
    },
    {
      "event_index": 428,
      "track_index": 1,
      "channel": 0,
      "midi_note": 75,
      "note_id": "midi_075",
      "sample_id": "grand_piano_075",
      "velocity": 73,
      "start_sec": 46.617188,
      "duration_sec": 0.492188
    },
    {
      "event_index": 429,
      "track_index": 1,
      "channel": 0,
      "midi_note": 78,
      "note_id": "midi_078",
      "sample_id": "grand_piano_078",
      "velocity": 79,
      "start_sec": 46.61849,
      "duration_sec": 0.507813
    },
    {
      "event_index": 430,
      "track_index": 1,
      "channel": 0,
      "midi_note": 72,
      "note_id": "midi_072",
      "sample_id": "grand_piano_072",
      "velocity": 66,
      "start_sec": 46.627604,
      "duration_sec": 0.971354
    },
    {
      "event_index": 431,
      "track_index": 1,
      "channel": 0,
      "midi_note": 57,
      "note_id": "midi_057",
      "sample_id": "grand_piano_057",
      "velocity": 69,
      "start_sec": 46.628906,
      "duration_sec": 0.496094
    },
    {
      "event_index": 432,
      "track_index": 1,
      "channel": 0,
      "midi_note": 45,
      "note_id": "midi_045",
      "sample_id": "grand_piano_045",
      "velocity": 58,
      "start_sec": 46.634115,
      "duration_sec": 0.005208
    },
    {
      "event_index": 433,
      "track_index": 1,
      "channel": 0,
      "midi_note": 54,
      "note_id": "midi_054",
      "sample_id": "grand_piano_054",
      "velocity": 65,
      "start_sec": 46.634115,
      "duration_sec": 0.489583
    },
    {
      "event_index": 434,
      "track_index": 1,
      "channel": 0,
      "midi_note": 69,
      "note_id": "midi_069",
      "sample_id": "grand_piano_069",
      "velocity": 70,
      "start_sec": 46.641927,
      "duration_sec": 0.467448
    },
    {
      "event_index": 435,
      "track_index": 1,
      "channel": 0,
      "midi_note": 79,
      "note_id": "midi_079",
      "sample_id": "grand_piano_079",
      "velocity": 75,
      "start_sec": 47.114583,
      "duration_sec": 0.938802
    },
    {
      "event_index": 436,
      "track_index": 1,
      "channel": 0,
      "midi_note": 38,
      "note_id": "midi_038",
      "sample_id": "grand_piano_038",
      "velocity": 58,
      "start_sec": 47.115885,
      "duration_sec": 0.933594
    },
    {
      "event_index": 437,
      "track_index": 1,
      "channel": 0,
      "midi_note": 50,
      "note_id": "midi_050",
      "sample_id": "grand_piano_050",
      "velocity": 68,
      "start_sec": 47.115885,
      "duration_sec": 0.94401
    },
    {
      "event_index": 438,
      "track_index": 1,
      "channel": 0,
      "midi_note": 75,
      "note_id": "midi_075",
      "sample_id": "grand_piano_075",
      "velocity": 69,
      "start_sec": 47.121094,
      "duration_sec": 0.46875
    },
    {
      "event_index": 439,
      "track_index": 1,
      "channel": 0,
      "midi_note": 69,
      "note_id": "midi_069",
      "sample_id": "grand_piano_069",
      "velocity": 74,
      "start_sec": 47.121094,
      "duration_sec": 0.477865
    },
    {
      "event_index": 440,
      "track_index": 1,
      "channel": 0,
      "midi_note": 48,
      "note_id": "midi_048",
      "sample_id": "grand_piano_048",
      "velocity": 72,
      "start_sec": 47.364583,
      "duration_sec": 0.505208
    },
    {
      "event_index": 441,
      "track_index": 1,
      "channel": 0,
      "midi_note": 36,
      "note_id": "midi_036",
      "sample_id": "grand_piano_036",
      "velocity": 57,
      "start_sec": 47.367188,
      "duration_sec": 0.502604
    },
    {
      "event_index": 442,
      "track_index": 1,
      "channel": 0,
      "midi_note": 81,
      "note_id": "midi_081",
      "sample_id": "grand_piano_081",
      "velocity": 81,
      "start_sec": 47.596354,
      "duration_sec": 0.458333
    },
    {
      "event_index": 443,
      "track_index": 1,
      "channel": 0,
      "midi_note": 75,
      "note_id": "midi_075",
      "sample_id": "grand_piano_075",
      "velocity": 79,
      "start_sec": 47.601563,
      "duration_sec": 0.44401
    },
    {
      "event_index": 444,
      "track_index": 1,
      "channel": 0,
      "midi_note": 69,
      "note_id": "midi_069",
      "sample_id": "grand_piano_069",
      "velocity": 77,
      "start_sec": 47.606771,
      "duration_sec": 0.453125
    },
    {
      "event_index": 445,
      "track_index": 1,
      "channel": 0,
      "midi_note": 46,
      "note_id": "midi_046",
      "sample_id": "grand_piano_046",
      "velocity": 62,
      "start_sec": 47.608073,
      "duration_sec": 0.44401
    },
    {
      "event_index": 446,
      "track_index": 1,
      "channel": 0,
      "midi_note": 34,
      "note_id": "midi_034",
      "sample_id": "grand_piano_034",
      "velocity": 58,
      "start_sec": 47.614583,
      "duration_sec": 0.464844
    },
    {
      "event_index": 447,
      "track_index": 1,
      "channel": 0,
      "midi_note": 33,
      "note_id": "midi_033",
      "sample_id": "grand_piano_033",
      "velocity": 57,
      "start_sec": 47.855469,
      "duration_sec": 0.223958
    },
    {
      "event_index": 448,
      "track_index": 1,
      "channel": 0,
      "midi_note": 45,
      "note_id": "midi_045",
      "sample_id": "grand_piano_045",
      "velocity": 61,
      "start_sec": 47.856771,
      "duration_sec": 0.233073
    },
    {
      "event_index": 449,
      "track_index": 1,
      "channel": 0,
      "midi_note": 36,
      "note_id": "midi_036",
      "sample_id": "grand_piano_036",
      "velocity": 51,
      "start_sec": 47.88151,
      "duration_sec": 0.164062
    },
    {
      "event_index": 450,
      "track_index": 1,
      "channel": 0,
      "midi_note": 48,
      "note_id": "midi_048",
      "sample_id": "grand_piano_048",
      "velocity": 57,
      "start_sec": 47.88151,
      "duration_sec": 0.166667
    },
    {
      "event_index": 451,
      "track_index": 1,
      "channel": 0,
      "midi_note": 31,
      "note_id": "midi_031",
      "sample_id": "grand_piano_031",
      "velocity": 64,
      "start_sec": 48.084635,
      "duration_sec": 0.744792
    },
    {
      "event_index": 452,
      "track_index": 1,
      "channel": 0,
      "midi_note": 77,
      "note_id": "midi_077",
      "sample_id": "grand_piano_077",
      "velocity": 79,
      "start_sec": 48.084635,
      "duration_sec": 0.744792
    },
    {
      "event_index": 453,
      "track_index": 1,
      "channel": 0,
      "midi_note": 43,
      "note_id": "midi_043",
      "sample_id": "grand_piano_043",
      "velocity": 64,
      "start_sec": 48.085938,
      "duration_sec": 1.602865
    },
    {
      "event_index": 454,
      "track_index": 1,
      "channel": 0,
      "midi_note": 82,
      "note_id": "midi_082",
      "sample_id": "grand_piano_082",
      "velocity": 77,
      "start_sec": 48.08724,
      "duration_sec": 0.742188
    },
    {
      "event_index": 455,
      "track_index": 1,
      "channel": 0,
      "midi_note": 89,
      "note_id": "midi_089",
      "sample_id": "grand_piano_089",
      "velocity": 72,
      "start_sec": 48.08724,
      "duration_sec": 0.832031
    },
    {
      "event_index": 456,
      "track_index": 1,
      "channel": 0,
      "midi_note": 86,
      "note_id": "midi_086",
      "sample_id": "grand_piano_086",
      "velocity": 76,
      "start_sec": 48.09375,
      "duration_sec": 0.72526
    },
    {
      "event_index": 457,
      "track_index": 1,
      "channel": 0,
      "midi_note": 58,
      "note_id": "midi_058",
      "sample_id": "grand_piano_058",
      "velocity": 64,
      "start_sec": 48.58724,
      "duration_sec": 0.951823
    },
    {
      "event_index": 458,
      "track_index": 1,
      "channel": 0,
      "midi_note": 86,
      "note_id": "midi_086",
      "sample_id": "grand_piano_086",
      "velocity": 79,
      "start_sec": 48.832031,
      "duration_sec": 1.192708
    },
    {
      "event_index": 459,
      "track_index": 1,
      "channel": 0,
      "midi_note": 82,
      "note_id": "midi_082",
      "sample_id": "grand_piano_082",
      "velocity": 78,
      "start_sec": 48.834635,
      "duration_sec": 1.195312
    },
    {
      "event_index": 460,
      "track_index": 1,
      "channel": 0,
      "midi_note": 77,
      "note_id": "midi_077",
      "sample_id": "grand_piano_077",
      "velocity": 78,
      "start_sec": 48.834635,
      "duration_sec": 1.204427
    },
    {
      "event_index": 461,
      "track_index": 1,
      "channel": 0,
      "midi_note": 62,
      "note_id": "midi_062",
      "sample_id": "grand_piano_062",
      "velocity": 61,
      "start_sec": 48.83724,
      "duration_sec": 0.451823
    },
    {
      "event_index": 462,
      "track_index": 1,
      "channel": 0,
      "midi_note": 65,
      "note_id": "midi_065",
      "sample_id": "grand_piano_065",
      "velocity": 65,
      "start_sec": 49.076823,
      "duration_sec": 0.949219
    },
    {
      "event_index": 463,
      "track_index": 1,
      "channel": 0,
      "midi_note": 62,
      "note_id": "midi_062",
      "sample_id": "grand_piano_062",
      "velocity": 65,
      "start_sec": 49.304688,
      "duration_sec": 0.720052
    },
    {
      "event_index": 464,
      "track_index": 1,
      "channel": 0,
      "midi_note": 93,
      "note_id": "midi_093",
      "sample_id": "grand_piano_093",
      "velocity": 76,
      "start_sec": 49.539063,
      "duration_sec": 0.470052
    },
    {
      "event_index": 465,
      "track_index": 1,
      "channel": 0,
      "midi_note": 81,
      "note_id": "midi_081",
      "sample_id": "grand_piano_081",
      "velocity": 81,
      "start_sec": 49.541667,
      "duration_sec": 0.483073
    },
    {
      "event_index": 466,
      "track_index": 1,
      "channel": 0,
      "midi_note": 58,
      "note_id": "midi_058",
      "sample_id": "grand_piano_058",
      "velocity": 69,
      "start_sec": 49.545573,
      "duration_sec": 0.479167
    },
    {
      "event_index": 467,
      "track_index": 1,
      "channel": 0,
      "midi_note": 43,
      "note_id": "midi_043",
      "sample_id": "grand_piano_043",
      "velocity": 55,
      "start_sec": 49.802083,
      "duration_sec": 0.221354
    },
    {
      "event_index": 468,
      "track_index": 1,
      "channel": 0,
      "midi_note": 36,
      "note_id": "midi_036",
      "sample_id": "grand_piano_036",
      "velocity": 52,
      "start_sec": 50.026042,
      "duration_sec": 0.063802
    },
    {
      "event_index": 469,
      "track_index": 1,
      "channel": 0,
      "midi_note": 85,
      "note_id": "midi_085",
      "sample_id": "grand_piano_085",
      "velocity": 78,
      "start_sec": 50.027344,
      "duration_sec": 0.701823
    },
    {
      "event_index": 470,
      "track_index": 1,
      "channel": 0,
      "midi_note": 82,
      "note_id": "midi_082",
      "sample_id": "grand_piano_082",
      "velocity": 75,
      "start_sec": 50.041667,
      "duration_sec": 0.697917
    },
    {
      "event_index": 471,
      "track_index": 1,
      "channel": 0,
      "midi_note": 48,
      "note_id": "midi_048",
      "sample_id": "grand_piano_048",
      "velocity": 62,
      "start_sec": 50.283854,
      "duration_sec": 1.434896
    },
    {
      "event_index": 472,
      "track_index": 1,
      "channel": 0,
      "midi_note": 52,
      "note_id": "midi_052",
      "sample_id": "grand_piano_052",
      "velocity": 62,
      "start_sec": 50.542969,
      "duration_sec": 0.946615
    },
    {
      "event_index": 473,
      "track_index": 1,
      "channel": 0,
      "midi_note": 85,
      "note_id": "midi_085",
      "sample_id": "grand_piano_085",
      "velocity": 80,
      "start_sec": 50.74349,
      "duration_sec": 1.240885
    },
    {
      "event_index": 474,
      "track_index": 1,
      "channel": 0,
      "midi_note": 94,
      "note_id": "midi_094",
      "sample_id": "grand_piano_094",
      "velocity": 76,
      "start_sec": 50.746094,
      "duration_sec": 1.203125
    },
    {
      "event_index": 475,
      "track_index": 1,
      "channel": 0,
      "midi_note": 82,
      "note_id": "midi_082",
      "sample_id": "grand_piano_082",
      "velocity": 80,
      "start_sec": 50.747396,
      "duration_sec": 1.201823
    },
    {
      "event_index": 476,
      "track_index": 1,
      "channel": 0,
      "midi_note": 91,
      "note_id": "midi_091",
      "sample_id": "grand_piano_091",
      "velocity": 73,
      "start_sec": 50.759115,
      "duration_sec": 1.217448
    },
    {
      "event_index": 477,
      "track_index": 1,
      "channel": 0,
      "midi_note": 55,
      "note_id": "midi_055",
      "sample_id": "grand_piano_055",
      "velocity": 65,
      "start_sec": 50.760417,
      "duration_sec": 0.46875
    },
    {
      "event_index": 478,
      "track_index": 1,
      "channel": 0,
      "midi_note": 58,
      "note_id": "midi_058",
      "sample_id": "grand_piano_058",
      "velocity": 64,
      "start_sec": 50.99349,
      "duration_sec": 0.979167
    },
    {
      "event_index": 479,
      "track_index": 1,
      "channel": 0,
      "midi_note": 55,
      "note_id": "midi_055",
      "sample_id": "grand_piano_055",
      "velocity": 57,
      "start_sec": 51.239583,
      "duration_sec": 0.735677
    },
    {
      "event_index": 480,
      "track_index": 1,
      "channel": 0,
      "midi_note": 52,
      "note_id": "midi_052",
      "sample_id": "grand_piano_052",
      "velocity": 62,
      "start_sec": 51.501302,
      "duration_sec": 0.472656
    },
    {
      "event_index": 481,
      "track_index": 1,
      "channel": 0,
      "midi_note": 48,
      "note_id": "midi_048",
      "sample_id": "grand_piano_048",
      "velocity": 60,
      "start_sec": 51.733073,
      "duration_sec": 0.216146
    },
    {
      "event_index": 482,
      "track_index": 1,
      "channel": 0,
      "midi_note": 84,
      "note_id": "midi_084",
      "sample_id": "grand_piano_084",
      "velocity": 66,
      "start_sec": 51.824219,
      "duration_sec": 0.195313
    },
    {
      "event_index": 483,
      "track_index": 1,
      "channel": 0,
      "midi_note": 88,
      "note_id": "midi_088",
      "sample_id": "grand_piano_088",
      "velocity": 68,
      "start_sec": 51.873698,
      "duration_sec": 0.10026
    },
    {
      "event_index": 484,
      "track_index": 1,
      "channel": 0,
      "midi_note": 41,
      "note_id": "midi_041",
      "sample_id": "grand_piano_041",
      "velocity": 60,
      "start_sec": 51.951823,
      "duration_sec": 1.897135
    },
    {
      "event_index": 485,
      "track_index": 1,
      "channel": 0,
      "midi_note": 94,
      "note_id": "midi_094",
      "sample_id": "grand_piano_094",
      "velocity": 81,
      "start_sec": 51.955729,
      "duration_sec": 1.773438
    },
    {
      "event_index": 486,
      "track_index": 1,
      "channel": 0,
      "midi_note": 48,
      "note_id": "midi_048",
      "sample_id": "grand_piano_048",
      "velocity": 58,
      "start_sec": 51.957031,
      "duration_sec": 0.0625
    },
    {
      "event_index": 487,
      "track_index": 1,
      "channel": 0,
      "midi_note": 82,
      "note_id": "midi_082",
      "sample_id": "grand_piano_082",
      "velocity": 69,
      "start_sec": 51.963542,
      "duration_sec": 2.695313
    },
    {
      "event_index": 488,
      "track_index": 1,
      "channel": 0,
      "midi_note": 53,
      "note_id": "midi_053",
      "sample_id": "grand_piano_053",
      "velocity": 59,
      "start_sec": 52.24349,
      "duration_sec": 1.355469
    },
    {
      "event_index": 489,
      "track_index": 1,
      "channel": 0,
      "midi_note": 57,
      "note_id": "midi_057",
      "sample_id": "grand_piano_057",
      "velocity": 64,
      "start_sec": 52.46224,
      "duration_sec": 0.907552
    },
    {
      "event_index": 490,
      "track_index": 1,
      "channel": 0,
      "midi_note": 93,
      "note_id": "midi_093",
      "sample_id": "grand_piano_093",
      "velocity": 80,
      "start_sec": 52.6875,
      "duration_sec": 1.15625
    },
    {
      "event_index": 491,
      "track_index": 1,
      "channel": 0,
      "midi_note": 84,
      "note_id": "midi_084",
      "sample_id": "grand_piano_084",
      "velocity": 80,
      "start_sec": 52.691406,
      "duration_sec": 1.151042
    },
    {
      "event_index": 492,
      "track_index": 1,
      "channel": 0,
      "midi_note": 60,
      "note_id": "midi_060",
      "sample_id": "grand_piano_060",
      "velocity": 61,
      "start_sec": 52.697917,
      "duration_sec": 0.441406
    },
    {
      "event_index": 493,
      "track_index": 1,
      "channel": 0,
      "midi_note": 88,
      "note_id": "midi_088",
      "sample_id": "grand_piano_088",
      "velocity": 74,
      "start_sec": 52.699219,
      "duration_sec": 1.143229
    },
    {
      "event_index": 494,
      "track_index": 1,
      "channel": 0,
      "midi_note": 64,
      "note_id": "midi_064",
      "sample_id": "grand_piano_064",
      "velocity": 69,
      "start_sec": 52.911458,
      "duration_sec": 0.93099
    },
    {
      "event_index": 495,
      "track_index": 1,
      "channel": 0,
      "midi_note": 60,
      "note_id": "midi_060",
      "sample_id": "grand_piano_060",
      "velocity": 64,
      "start_sec": 53.151042,
      "duration_sec": 0.686198
    },
    {
      "event_index": 496,
      "track_index": 1,
      "channel": 0,
      "midi_note": 57,
      "note_id": "midi_057",
      "sample_id": "grand_piano_057",
      "velocity": 68,
      "start_sec": 53.384115,
      "duration_sec": 0.457031
    },
    {
      "event_index": 497,
      "track_index": 1,
      "channel": 0,
      "midi_note": 53,
      "note_id": "midi_053",
      "sample_id": "grand_piano_053",
      "velocity": 62,
      "start_sec": 53.613281,
      "duration_sec": 0.226562
    },
    {
      "event_index": 498,
      "track_index": 1,
      "channel": 0,
      "midi_note": 81,
      "note_id": "midi_081",
      "sample_id": "grand_piano_081",
      "velocity": 69,
      "start_sec": 53.683594,
      "duration_sec": 0.158854
    },
    {
      "event_index": 499,
      "track_index": 1,
      "channel": 0,
      "midi_note": 86,
      "note_id": "midi_086",
      "sample_id": "grand_piano_086",
      "velocity": 78,
      "start_sec": 53.75651,
      "duration_sec": 0.8125
    },
    {
      "event_index": 500,
      "track_index": 1,
      "channel": 0,
      "midi_note": 46,
      "note_id": "midi_046",
      "sample_id": "grand_piano_046",
      "velocity": 69,
      "start_sec": 53.84375,
      "duration_sec": 1.496094
    },
    {
      "event_index": 501,
      "track_index": 1,
      "channel": 0,
      "midi_note": 91,
      "note_id": "midi_091",
      "sample_id": "grand_piano_091",
      "velocity": 80,
      "start_sec": 53.845052,
      "duration_sec": 0.804688
    },
    {
      "event_index": 502,
      "track_index": 1,
      "channel": 0,
      "midi_note": 34,
      "note_id": "midi_034",
      "sample_id": "grand_piano_034",
      "velocity": 62,
      "start_sec": 53.847656,
      "duration_sec": 1.311198
    },
    {
      "event_index": 503,
      "track_index": 1,
      "channel": 0,
      "midi_note": 58,
      "note_id": "midi_058",
      "sample_id": "grand_piano_058",
      "velocity": 75,
      "start_sec": 54.575521,
      "duration_sec": 1.303385
    },
    {
      "event_index": 504,
      "track_index": 1,
      "channel": 0,
      "midi_note": 86,
      "note_id": "midi_086",
      "sample_id": "grand_piano_086",
      "velocity": 79,
      "start_sec": 54.576823,
      "duration_sec": 0.763021
    },
    {
      "event_index": 505,
      "track_index": 1,
      "channel": 0,
      "midi_note": 62,
      "note_id": "midi_062",
      "sample_id": "grand_piano_062",
      "velocity": 75,
      "start_sec": 54.576823,
      "duration_sec": 0.802083
    },
    {
      "event_index": 506,
      "track_index": 1,
      "channel": 0,
      "midi_note": 69,
      "note_id": "midi_069",
      "sample_id": "grand_piano_069",
      "velocity": 79,
      "start_sec": 54.578125,
      "duration_sec": 1.30599
    },
    {
      "event_index": 507,
      "track_index": 1,
      "channel": 0,
      "midi_note": 65,
      "note_id": "midi_065",
      "sample_id": "grand_piano_065",
      "velocity": 73,
      "start_sec": 54.578125,
      "duration_sec": 1.309896
    },
    {
      "event_index": 508,
      "track_index": 1,
      "channel": 0,
      "midi_note": 81,
      "note_id": "midi_081",
      "sample_id": "grand_piano_081",
      "velocity": 77,
      "start_sec": 54.583333,
      "duration_sec": 1.309896
    },
    {
      "event_index": 509,
      "track_index": 1,
      "channel": 0,
      "midi_note": 74,
      "note_id": "midi_074",
      "sample_id": "grand_piano_074",
      "velocity": 72,
      "start_sec": 54.584635,
      "duration_sec": 1.304688
    },
    {
      "event_index": 510,
      "track_index": 1,
      "channel": 0,
      "midi_note": 86,
      "note_id": "midi_086",
      "sample_id": "grand_piano_086",
      "velocity": 81,
      "start_sec": 55.354167,
      "duration_sec": 0.485677
    },
    {
      "event_index": 511,
      "track_index": 1,
      "channel": 0,
      "midi_note": 46,
      "note_id": "midi_046",
      "sample_id": "grand_piano_046",
      "velocity": 76,
      "start_sec": 55.354167,
      "duration_sec": 0.535156
    },
    {
      "event_index": 512,
      "track_index": 1,
      "channel": 0,
      "midi_note": 34,
      "note_id": "midi_034",
      "sample_id": "grand_piano_034",
      "velocity": 59,
      "start_sec": 55.358073,
      "duration_sec": 0.532552
    },
    {
      "event_index": 513,
      "track_index": 1,
      "channel": 0,
      "midi_note": 77,
      "note_id": "midi_077",
      "sample_id": "grand_piano_077",
      "velocity": 63,
      "start_sec": 55.360677,
      "duration_sec": 0.548177
    },
    {
      "event_index": 514,
      "track_index": 1,
      "channel": 0,
      "midi_note": 82,
      "note_id": "midi_082",
      "sample_id": "grand_piano_082",
      "velocity": 63,
      "start_sec": 55.373698,
      "duration_sec": 0.47526
    },
    {
      "event_index": 515,
      "track_index": 1,
      "channel": 0,
      "midi_note": 94,
      "note_id": "midi_094",
      "sample_id": "grand_piano_094",
      "velocity": 77,
      "start_sec": 55.852865,
      "duration_sec": 0.186198
    },
    {
      "event_index": 516,
      "track_index": 1,
      "channel": 0,
      "midi_note": 86,
      "note_id": "midi_086",
      "sample_id": "grand_piano_086",
      "velocity": 80,
      "start_sec": 55.854167,
      "duration_sec": 0.364583
    },
    {
      "event_index": 517,
      "track_index": 1,
      "channel": 0,
      "midi_note": 82,
      "note_id": "midi_082",
      "sample_id": "grand_piano_082",
      "velocity": 81,
      "start_sec": 55.855469,
      "duration_sec": 0.363281
    },
    {
      "event_index": 518,
      "track_index": 1,
      "channel": 0,
      "midi_note": 40,
      "note_id": "midi_040",
      "sample_id": "grand_piano_040",
      "velocity": 58,
      "start_sec": 55.865885,
      "duration_sec": 0.402344
    },
    {
      "event_index": 519,
      "track_index": 1,
      "channel": 0,
      "midi_note": 91,
      "note_id": "midi_091",
      "sample_id": "grand_piano_091",
      "velocity": 74,
      "start_sec": 56.223958,
      "duration_sec": 0.494792
    },
    {
      "event_index": 520,
      "track_index": 1,
      "channel": 0,
      "midi_note": 82,
      "note_id": "midi_082",
      "sample_id": "grand_piano_082",
      "velocity": 75,
      "start_sec": 56.22526,
      "duration_sec": 0.414062
    },
    {
      "event_index": 521,
      "track_index": 1,
      "channel": 0,
      "midi_note": 86,
      "note_id": "midi_086",
      "sample_id": "grand_piano_086",
      "velocity": 75,
      "start_sec": 56.233073,
      "duration_sec": 0.40625
    },
    {
      "event_index": 522,
      "track_index": 1,
      "channel": 0,
      "midi_note": 48,
      "note_id": "midi_048",
      "sample_id": "grand_piano_048",
      "velocity": 33,
      "start_sec": 56.261719,
      "duration_sec": 0.007812
    },
    {
      "event_index": 523,
      "track_index": 1,
      "channel": 0,
      "midi_note": 58,
      "note_id": "midi_058",
      "sample_id": "grand_piano_058",
      "velocity": 75,
      "start_sec": 56.636719,
      "duration_sec": 1.132813
    },
    {
      "event_index": 524,
      "track_index": 1,
      "channel": 0,
      "midi_note": 62,
      "note_id": "midi_062",
      "sample_id": "grand_piano_062",
      "velocity": 72,
      "start_sec": 56.636719,
      "duration_sec": 1.143229
    },
    {
      "event_index": 525,
      "track_index": 1,
      "channel": 0,
      "midi_note": 86,
      "note_id": "midi_086",
      "sample_id": "grand_piano_086",
      "velocity": 72,
      "start_sec": 56.644531,
      "duration_sec": 1.096354
    },
    {
      "event_index": 526,
      "track_index": 1,
      "channel": 0,
      "midi_note": 55,
      "note_id": "midi_055",
      "sample_id": "grand_piano_055",
      "velocity": 69,
      "start_sec": 56.645833,
      "duration_sec": 1.143229
    },
    {
      "event_index": 527,
      "track_index": 1,
      "channel": 0,
      "midi_note": 82,
      "note_id": "midi_082",
      "sample_id": "grand_piano_082",
      "velocity": 78,
      "start_sec": 56.645833,
      "duration_sec": 1.183594
    },
    {
      "event_index": 528,
      "track_index": 1,
      "channel": 0,
      "midi_note": 52,
      "note_id": "midi_052",
      "sample_id": "grand_piano_052",
      "velocity": 67,
      "start_sec": 56.647135,
      "duration_sec": 1.097656
    },
    {
      "event_index": 529,
      "track_index": 1,
      "channel": 0,
      "midi_note": 40,
      "note_id": "midi_040",
      "sample_id": "grand_piano_040",
      "velocity": 57,
      "start_sec": 57.352865,
      "duration_sec": 0.446615
    },
    {
      "event_index": 530,
      "track_index": 1,
      "channel": 0,
      "midi_note": 89,
      "note_id": "midi_089",
      "sample_id": "grand_piano_089",
      "velocity": 70,
      "start_sec": 57.825521,
      "duration_sec": 0.723958
    },
    {
      "event_index": 531,
      "track_index": 1,
      "channel": 0,
      "midi_note": 45,
      "note_id": "midi_045",
      "sample_id": "grand_piano_045",
      "velocity": 64,
      "start_sec": 57.825521,
      "duration_sec": 0.833333
    },
    {
      "event_index": 532,
      "track_index": 1,
      "channel": 0,
      "midi_note": 85,
      "note_id": "midi_085",
      "sample_id": "grand_piano_085",
      "velocity": 77,
      "start_sec": 57.826823,
      "duration_sec": 0.342448
    },
    {
      "event_index": 533,
      "track_index": 1,
      "channel": 0,
      "midi_note": 79,
      "note_id": "midi_079",
      "sample_id": "grand_piano_079",
      "velocity": 78,
      "start_sec": 57.832031,
      "duration_sec": 0.347656
    },
    {
      "event_index": 534,
      "track_index": 1,
      "channel": 0,
      "midi_note": 88,
      "note_id": "midi_088",
      "sample_id": "grand_piano_088",
      "velocity": 73,
      "start_sec": 58.184896,
      "duration_sec": 0.33724
    },
    {
      "event_index": 535,
      "track_index": 1,
      "channel": 0,
      "midi_note": 79,
      "note_id": "midi_079",
      "sample_id": "grand_piano_079",
      "velocity": 73,
      "start_sec": 58.184896,
      "duration_sec": 0.338542
    },
    {
      "event_index": 536,
      "track_index": 1,
      "channel": 0,
      "midi_note": 85,
      "note_id": "midi_085",
      "sample_id": "grand_piano_085",
      "velocity": 80,
      "start_sec": 58.184896,
      "duration_sec": 0.424479
    },
    {
      "event_index": 537,
      "track_index": 1,
      "channel": 0,
      "midi_note": 57,
      "note_id": "midi_057",
      "sample_id": "grand_piano_057",
      "velocity": 67,
      "start_sec": 58.626302,
      "duration_sec": 1.208333
    },
    {
      "event_index": 538,
      "track_index": 1,
      "channel": 0,
      "midi_note": 76,
      "note_id": "midi_076",
      "sample_id": "grand_piano_076",
      "velocity": 68,
      "start_sec": 58.627604,
      "duration_sec": 1.214844
    },
    {
      "event_index": 539,
      "track_index": 1,
      "channel": 0,
      "midi_note": 61,
      "note_id": "midi_061",
      "sample_id": "grand_piano_061",
      "velocity": 63,
      "start_sec": 58.628906,
      "duration_sec": 1.190104
    },
    {
      "event_index": 540,
      "track_index": 1,
      "channel": 0,
      "midi_note": 81,
      "note_id": "midi_081",
      "sample_id": "grand_piano_081",
      "velocity": 73,
      "start_sec": 58.630208,
      "duration_sec": 1.158854
    },
    {
      "event_index": 541,
      "track_index": 1,
      "channel": 0,
      "midi_note": 67,
      "note_id": "midi_067",
      "sample_id": "grand_piano_067",
      "velocity": 74,
      "start_sec": 58.630208,
      "duration_sec": 1.239583
    },
    {
      "event_index": 542,
      "track_index": 1,
      "channel": 0,
      "midi_note": 73,
      "note_id": "midi_073",
      "sample_id": "grand_piano_073",
      "velocity": 68,
      "start_sec": 58.63151,
      "duration_sec": 0.988281
    },
    {
      "event_index": 543,
      "track_index": 1,
      "channel": 0,
      "midi_note": 64,
      "note_id": "midi_064",
      "sample_id": "grand_piano_064",
      "velocity": 67,
      "start_sec": 58.634115,
      "duration_sec": 1.205729
    },
    {
      "event_index": 544,
      "track_index": 1,
      "channel": 0,
      "midi_note": 45,
      "note_id": "midi_045",
      "sample_id": "grand_piano_045",
      "velocity": 65,
      "start_sec": 59.334635,
      "duration_sec": 2.035156
    },
    {
      "event_index": 545,
      "track_index": 1,
      "channel": 0,
      "midi_note": 77,
      "note_id": "midi_077",
      "sample_id": "grand_piano_077",
      "velocity": 63,
      "start_sec": 59.764323,
      "duration_sec": 0.144531
    },
    {
      "event_index": 546,
      "track_index": 1,
      "channel": 0,
      "midi_note": 81,
      "note_id": "midi_081",
      "sample_id": "grand_piano_081",
      "velocity": 73,
      "start_sec": 59.803385,
      "duration_sec": 2.066406
    },
    {
      "event_index": 547,
      "track_index": 1,
      "channel": 0,
      "midi_note": 84,
      "note_id": "midi_084",
      "sample_id": "grand_piano_084",
      "velocity": 72,
      "start_sec": 59.825521,
      "duration_sec": 2.03776
    },
    {
      "event_index": 548,
      "track_index": 1,
      "channel": 0,
      "midi_note": 38,
      "note_id": "midi_038",
      "sample_id": "grand_piano_038",
      "velocity": 54,
      "start_sec": 59.858073,
      "duration_sec": 2.00651
    },
    {
      "event_index": 549,
      "track_index": 1,
      "channel": 0,
      "midi_note": 88,
      "note_id": "midi_088",
      "sample_id": "grand_piano_088",
      "velocity": 74,
      "start_sec": 59.86849,
      "duration_sec": 1.994792
    },
    {
      "event_index": 550,
      "track_index": 1,
      "channel": 0,
      "midi_note": 57,
      "note_id": "midi_057",
      "sample_id": "grand_piano_057",
      "velocity": 68,
      "start_sec": 60.363281,
      "duration_sec": 0.996094
    },
    {
      "event_index": 551,
      "track_index": 1,
      "channel": 0,
      "midi_note": 64,
      "note_id": "midi_064",
      "sample_id": "grand_piano_064",
      "velocity": 67,
      "start_sec": 60.875,
      "duration_sec": 0.989583
    },
    {
      "event_index": 552,
      "track_index": 1,
      "channel": 0,
      "midi_note": 57,
      "note_id": "midi_057",
      "sample_id": "grand_piano_057",
      "velocity": 55,
      "start_sec": 61.372396,
      "duration_sec": 0.490885
    },
    {
      "event_index": 553,
      "track_index": 1,
      "channel": 0,
      "midi_note": 65,
      "note_id": "midi_065",
      "sample_id": "grand_piano_065",
      "velocity": 65,
      "start_sec": 61.375,
      "duration_sec": 0.52474
    },
    {
      "event_index": 554,
      "track_index": 1,
      "channel": 0,
      "midi_note": 45,
      "note_id": "midi_045",
      "sample_id": "grand_piano_045",
      "velocity": 44,
      "start_sec": 61.380208,
      "duration_sec": 0.459635
    },
    {
      "event_index": 555,
      "track_index": 1,
      "channel": 0,
      "midi_note": 76,
      "note_id": "midi_076",
      "sample_id": "grand_piano_076",
      "velocity": 62,
      "start_sec": 61.384115,
      "duration_sec": 0.479167
    },
    {
      "event_index": 556,
      "track_index": 1,
      "channel": 0,
      "midi_note": 69,
      "note_id": "midi_069",
      "sample_id": "grand_piano_069",
      "velocity": 67,
      "start_sec": 61.388021,
      "duration_sec": 0.511719
    },
    {
      "event_index": 557,
      "track_index": 1,
      "channel": 0,
      "midi_note": 45,
      "note_id": "midi_045",
      "sample_id": "grand_piano_045",
      "velocity": 39,
      "start_sec": 61.846354,
      "duration_sec": 0.072917
    },
    {
      "event_index": 558,
      "track_index": 1,
      "channel": 0,
      "midi_note": 74,
      "note_id": "midi_074",
      "sample_id": "grand_piano_074",
      "velocity": 58,
      "start_sec": 61.904948,
      "duration_sec": 1.109375
    },
    {
      "event_index": 559,
      "track_index": 1,
      "channel": 0,
      "midi_note": 65,
      "note_id": "midi_065",
      "sample_id": "grand_piano_065",
      "velocity": 55,
      "start_sec": 61.910156,
      "duration_sec": 2.128906
    },
    {
      "event_index": 560,
      "track_index": 1,
      "channel": 0,
      "midi_note": 60,
      "note_id": "midi_060",
      "sample_id": "grand_piano_060",
      "velocity": 47,
      "start_sec": 61.911458,
      "duration_sec": 1.048177
    },
    {
      "event_index": 561,
      "track_index": 1,
      "channel": 0,
      "midi_note": 69,
      "note_id": "midi_069",
      "sample_id": "grand_piano_069",
      "velocity": 66,
      "start_sec": 61.91276,
      "duration_sec": 2.136719
    },
    {
      "event_index": 562,
      "track_index": 1,
      "channel": 0,
      "midi_note": 36,
      "note_id": "midi_036",
      "sample_id": "grand_piano_036",
      "velocity": 58,
      "start_sec": 62.964844,
      "duration_sec": 1.128906
    },
    {
      "event_index": 563,
      "track_index": 1,
      "channel": 0,
      "midi_note": 48,
      "note_id": "midi_048",
      "sample_id": "grand_piano_048",
      "velocity": 77,
      "start_sec": 62.964844,
      "duration_sec": 1.136719
    },
    {
      "event_index": 564,
      "track_index": 1,
      "channel": 0,
      "midi_note": 60,
      "note_id": "midi_060",
      "sample_id": "grand_piano_060",
      "velocity": 64,
      "start_sec": 62.964844,
      "duration_sec": 1.154948
    },
    {
      "event_index": 565,
      "track_index": 1,
      "channel": 0,
      "midi_note": 57,
      "note_id": "midi_057",
      "sample_id": "grand_piano_057",
      "velocity": 75,
      "start_sec": 64.039063,
      "duration_sec": 0.309896
    },
    {
      "event_index": 566,
      "track_index": 1,
      "channel": 0,
      "midi_note": 76,
      "note_id": "midi_076",
      "sample_id": "grand_piano_076",
      "velocity": 74,
      "start_sec": 64.044271,
      "duration_sec": 0.174479
    },
    {
      "event_index": 567,
      "track_index": 1,
      "channel": 0,
      "midi_note": 46,
      "note_id": "midi_046",
      "sample_id": "grand_piano_046",
      "velocity": 68,
      "start_sec": 64.050781,
      "duration_sec": 0.063802
    },
    {
      "event_index": 568,
      "track_index": 1,
      "channel": 0,
      "midi_note": 65,
      "note_id": "midi_065",
      "sample_id": "grand_piano_065",
      "velocity": 73,
      "start_sec": 64.053385,
      "duration_sec": 0.115885
    },
    {
      "event_index": 569,
      "track_index": 1,
      "channel": 0,
      "midi_note": 69,
      "note_id": "midi_069",
      "sample_id": "grand_piano_069",
      "velocity": 71,
      "start_sec": 64.05599,
      "duration_sec": 0.09375
    },
    {
      "event_index": 570,
      "track_index": 1,
      "channel": 0,
      "midi_note": 74,
      "note_id": "midi_074",
      "sample_id": "grand_piano_074",
      "velocity": 64,
      "start_sec": 64.321615,
      "duration_sec": 0.347656
    },
    {
      "event_index": 571,
      "track_index": 1,
      "channel": 0,
      "midi_note": 65,
      "note_id": "midi_065",
      "sample_id": "grand_piano_065",
      "velocity": 62,
      "start_sec": 64.322917,
      "duration_sec": 0.085938
    },
    {
      "event_index": 572,
      "track_index": 1,
      "channel": 0,
      "midi_note": 65,
      "note_id": "midi_065",
      "sample_id": "grand_piano_065",
      "velocity": 66,
      "start_sec": 64.5625,
      "duration_sec": 0.049479
    },
    {
      "event_index": 573,
      "track_index": 1,
      "channel": 0,
      "midi_note": 69,
      "note_id": "midi_069",
      "sample_id": "grand_piano_069",
      "velocity": 73,
      "start_sec": 64.5625,
      "duration_sec": 0.096354
    },
    {
      "event_index": 574,
      "track_index": 1,
      "channel": 0,
      "midi_note": 76,
      "note_id": "midi_076",
      "sample_id": "grand_piano_076",
      "velocity": 72,
      "start_sec": 64.766927,
      "duration_sec": 0.061198
    },
    {
      "event_index": 575,
      "track_index": 1,
      "channel": 0,
      "midi_note": 57,
      "note_id": "midi_057",
      "sample_id": "grand_piano_057",
      "velocity": 70,
      "start_sec": 64.768229,
      "duration_sec": 0.048177
    },
    {
      "event_index": 576,
      "track_index": 1,
      "channel": 0,
      "midi_note": 46,
      "note_id": "midi_046",
      "sample_id": "grand_piano_046",
      "velocity": 61,
      "start_sec": 64.78125,
      "duration_sec": 0.054688
    },
    {
      "event_index": 577,
      "track_index": 1,
      "channel": 0,
      "midi_note": 65,
      "note_id": "midi_065",
      "sample_id": "grand_piano_065",
      "velocity": 70,
      "start_sec": 64.78125,
      "duration_sec": 0.108073
    },
    {
      "event_index": 578,
      "track_index": 1,
      "channel": 0,
      "midi_note": 69,
      "note_id": "midi_069",
      "sample_id": "grand_piano_069",
      "velocity": 66,
      "start_sec": 64.792969,
      "duration_sec": 0.186198
    },
    {
      "event_index": 579,
      "track_index": 1,
      "channel": 0,
      "midi_note": 74,
      "note_id": "midi_074",
      "sample_id": "grand_piano_074",
      "velocity": 65,
      "start_sec": 65.007813,
      "duration_sec": 0.121094
    },
    {
      "event_index": 580,
      "track_index": 1,
      "channel": 0,
      "midi_note": 65,
      "note_id": "midi_065",
      "sample_id": "grand_piano_065",
      "velocity": 63,
      "start_sec": 65.009115,
      "duration_sec": 0.042969
    },
    {
      "event_index": 581,
      "track_index": 1,
      "channel": 0,
      "midi_note": 65,
      "note_id": "midi_065",
      "sample_id": "grand_piano_065",
      "velocity": 64,
      "start_sec": 65.25,
      "duration_sec": 0.072917
    },
    {
      "event_index": 582,
      "track_index": 1,
      "channel": 0,
      "midi_note": 69,
      "note_id": "midi_069",
      "sample_id": "grand_piano_069",
      "velocity": 77,
      "start_sec": 65.253906,
      "duration_sec": 0.052083
    },
    {
      "event_index": 583,
      "track_index": 1,
      "channel": 0,
      "midi_note": 74,
      "note_id": "midi_074",
      "sample_id": "grand_piano_074",
      "velocity": 68,
      "start_sec": 65.483073,
      "duration_sec": 0.25651
    },
    {
      "event_index": 584,
      "track_index": 1,
      "channel": 0,
      "midi_note": 65,
      "note_id": "midi_065",
      "sample_id": "grand_piano_065",
      "velocity": 65,
      "start_sec": 65.489583,
      "duration_sec": 0.10026
    },
    {
      "event_index": 585,
      "track_index": 1,
      "channel": 0,
      "midi_note": 46,
      "note_id": "midi_046",
      "sample_id": "grand_piano_046",
      "velocity": 65,
      "start_sec": 65.49349,
      "duration_sec": 0.040365
    },
    {
      "event_index": 586,
      "track_index": 1,
      "channel": 0,
      "midi_note": 69,
      "note_id": "midi_069",
      "sample_id": "grand_piano_069",
      "velocity": 69,
      "start_sec": 65.49349,
      "duration_sec": 0.105469
    },
    {
      "event_index": 587,
      "track_index": 1,
      "channel": 0,
      "midi_note": 76,
      "note_id": "midi_076",
      "sample_id": "grand_piano_076",
      "velocity": 70,
      "start_sec": 65.71224,
      "duration_sec": 0.03776
    },
    {
      "event_index": 588,
      "track_index": 1,
      "channel": 0,
      "midi_note": 65,
      "note_id": "midi_065",
      "sample_id": "grand_piano_065",
      "velocity": 64,
      "start_sec": 65.714844,
      "duration_sec": 0.032552
    },
    {
      "event_index": 589,
      "track_index": 1,
      "channel": 0,
      "midi_note": 69,
      "note_id": "midi_069",
      "sample_id": "grand_piano_069",
      "velocity": 68,
      "start_sec": 65.716146,
      "duration_sec": 0.063802
    },
    {
      "event_index": 590,
      "track_index": 1,
      "channel": 0,
      "midi_note": 48,
      "note_id": "midi_048",
      "sample_id": "grand_piano_048",
      "velocity": 69,
      "start_sec": 65.941406,
      "duration_sec": 0.221354
    },
    {
      "event_index": 591,
      "track_index": 1,
      "channel": 0,
      "midi_note": 36,
      "note_id": "midi_036",
      "sample_id": "grand_piano_036",
      "velocity": 60,
      "start_sec": 65.945313,
      "duration_sec": 0.208333
    },
    {
      "event_index": 592,
      "track_index": 1,
      "channel": 0,
      "midi_note": 77,
      "note_id": "midi_077",
      "sample_id": "grand_piano_077",
      "velocity": 78,
      "start_sec": 65.953125,
      "duration_sec": 0.209635
    },
    {
      "event_index": 593,
      "track_index": 1,
      "channel": 0,
      "midi_note": 69,
      "note_id": "midi_069",
      "sample_id": "grand_piano_069",
      "velocity": 80,
      "start_sec": 65.96224,
      "duration_sec": 0.226562
    },
    {
      "event_index": 594,
      "track_index": 1,
      "channel": 0,
      "midi_note": 65,
      "note_id": "midi_065",
      "sample_id": "grand_piano_065",
      "velocity": 64,
      "start_sec": 65.966146,
      "duration_sec": 0.203125
    },
    {
      "event_index": 595,
      "track_index": 1,
      "channel": 0,
      "midi_note": 76,
      "note_id": "midi_076",
      "sample_id": "grand_piano_076",
      "velocity": 66,
      "start_sec": 66.174479,
      "duration_sec": 0.154948
    },
    {
      "event_index": 596,
      "track_index": 1,
      "channel": 0,
      "midi_note": 65,
      "note_id": "midi_065",
      "sample_id": "grand_piano_065",
      "velocity": 59,
      "start_sec": 66.175781,
      "duration_sec": 0.104167
    },
    {
      "event_index": 597,
      "track_index": 1,
      "channel": 0,
      "midi_note": 69,
      "note_id": "midi_069",
      "sample_id": "grand_piano_069",
      "velocity": 37,
      "start_sec": 66.200521,
      "duration_sec": 0.06901
    },
    {
      "event_index": 598,
      "track_index": 1,
      "channel": 0,
      "midi_note": 69,
      "note_id": "midi_069",
      "sample_id": "grand_piano_069",
      "velocity": 75,
      "start_sec": 66.411458,
      "duration_sec": 0.217448
    },
    {
      "event_index": 599,
      "track_index": 1,
      "channel": 0,
      "midi_note": 65,
      "note_id": "midi_065",
      "sample_id": "grand_piano_065",
      "velocity": 63,
      "start_sec": 66.414063,
      "duration_sec": 0.095052
    },
    {
      "event_index": 600,
      "track_index": 1,
      "channel": 0,
      "midi_note": 48,
      "note_id": "midi_048",
      "sample_id": "grand_piano_048",
      "velocity": 68,
      "start_sec": 66.628906,
      "duration_sec": 0.080729
    },
    {
      "event_index": 601,
      "track_index": 1,
      "channel": 0,
      "midi_note": 77,
      "note_id": "midi_077",
      "sample_id": "grand_piano_077",
      "velocity": 82,
      "start_sec": 66.628906,
      "duration_sec": 0.279948
    },
    {
      "event_index": 602,
      "track_index": 1,
      "channel": 0,
      "midi_note": 36,
      "note_id": "midi_036",
      "sample_id": "grand_piano_036",
      "velocity": 62,
      "start_sec": 66.63151,
      "duration_sec": 0.033854
    },
    {
      "event_index": 603,
      "track_index": 1,
      "channel": 0,
      "midi_note": 69,
      "note_id": "midi_069",
      "sample_id": "grand_piano_069",
      "velocity": 74,
      "start_sec": 66.636719,
      "duration_sec": 0.0625
    },
    {
      "event_index": 604,
      "track_index": 1,
      "channel": 0,
      "midi_note": 65,
      "note_id": "midi_065",
      "sample_id": "grand_piano_065",
      "velocity": 66,
      "start_sec": 66.639323,
      "duration_sec": 0.070313
    },
    {
      "event_index": 605,
      "track_index": 1,
      "channel": 0,
      "midi_note": 65,
      "note_id": "midi_065",
      "sample_id": "grand_piano_065",
      "velocity": 64,
      "start_sec": 66.856771,
      "duration_sec": 0.052083
    },
    {
      "event_index": 606,
      "track_index": 1,
      "channel": 0,
      "midi_note": 76,
      "note_id": "midi_076",
      "sample_id": "grand_piano_076",
      "velocity": 69,
      "start_sec": 66.856771,
      "duration_sec": 0.102865
    },
    {
      "event_index": 607,
      "track_index": 1,
      "channel": 0,
      "midi_note": 69,
      "note_id": "midi_069",
      "sample_id": "grand_piano_069",
      "velocity": 54,
      "start_sec": 66.863281,
      "duration_sec": 0.105469
    },
    {
      "event_index": 608,
      "track_index": 1,
      "channel": 0,
      "midi_note": 65,
      "note_id": "midi_065",
      "sample_id": "grand_piano_065",
      "velocity": 62,
      "start_sec": 67.089844,
      "duration_sec": 0.098958
    },
    {
      "event_index": 609,
      "track_index": 1,
      "channel": 0,
      "midi_note": 69,
      "note_id": "midi_069",
      "sample_id": "grand_piano_069",
      "velocity": 78,
      "start_sec": 67.089844,
      "duration_sec": 0.209635
    },
    {
      "event_index": 610,
      "track_index": 1,
      "channel": 0,
      "midi_note": 48,
      "note_id": "midi_048",
      "sample_id": "grand_piano_048",
      "velocity": 67,
      "start_sec": 67.299479,
      "duration_sec": 0.050781
    },
    {
      "event_index": 611,
      "track_index": 1,
      "channel": 0,
      "midi_note": 36,
      "note_id": "midi_036",
      "sample_id": "grand_piano_036",
      "velocity": 58,
      "start_sec": 67.303385,
      "duration_sec": 0.046875
    },
    {
      "event_index": 612,
      "track_index": 1,
      "channel": 0,
      "midi_note": 69,
      "note_id": "midi_069",
      "sample_id": "grand_piano_069",
      "velocity": 72,
      "start_sec": 67.304688,
      "duration_sec": 0.040365
    },
    {
      "event_index": 613,
      "track_index": 1,
      "channel": 0,
      "midi_note": 65,
      "note_id": "midi_065",
      "sample_id": "grand_piano_065",
      "velocity": 65,
      "start_sec": 67.304688,
      "duration_sec": 0.042969
    },
    {
      "event_index": 614,
      "track_index": 1,
      "channel": 0,
      "midi_note": 76,
      "note_id": "midi_076",
      "sample_id": "grand_piano_076",
      "velocity": 72,
      "start_sec": 67.304688,
      "duration_sec": 0.104167
    },
    {
      "event_index": 615,
      "track_index": 1,
      "channel": 0,
      "midi_note": 77,
      "note_id": "midi_077",
      "sample_id": "grand_piano_077",
      "velocity": 76,
      "start_sec": 67.535156,
      "duration_sec": 0.084635
    },
    {
      "event_index": 616,
      "track_index": 1,
      "channel": 0,
      "midi_note": 69,
      "note_id": "midi_069",
      "sample_id": "grand_piano_069",
      "velocity": 77,
      "start_sec": 67.536458,
      "duration_sec": 0.083333
    },
    {
      "event_index": 617,
      "track_index": 1,
      "channel": 0,
      "midi_note": 65,
      "note_id": "midi_065",
      "sample_id": "grand_piano_065",
      "velocity": 63,
      "start_sec": 67.541667,
      "duration_sec": 0.035156
    },
    {
      "event_index": 618,
      "track_index": 1,
      "channel": 0,
      "midi_note": 50,
      "note_id": "midi_050",
      "sample_id": "grand_piano_050",
      "velocity": 73,
      "start_sec": 67.753906,
      "duration_sec": 0.240885
    },
    {
      "event_index": 619,
      "track_index": 1,
      "channel": 0,
      "midi_note": 79,
      "note_id": "midi_079",
      "sample_id": "grand_piano_079",
      "velocity": 81,
      "start_sec": 67.75651,
      "duration_sec": 0.238281
    },
    {
      "event_index": 620,
      "track_index": 1,
      "channel": 0,
      "midi_note": 38,
      "note_id": "midi_038",
      "sample_id": "grand_piano_038",
      "velocity": 65,
      "start_sec": 67.757813,
      "duration_sec": 0.236979
    },
    {
      "event_index": 621,
      "track_index": 1,
      "channel": 0,
      "midi_note": 69,
      "note_id": "midi_069",
      "sample_id": "grand_piano_069",
      "velocity": 83,
      "start_sec": 67.763021,
      "duration_sec": 0.216146
    },
    {
      "event_index": 622,
      "track_index": 1,
      "channel": 0,
      "midi_note": 72,
      "note_id": "midi_072",
      "sample_id": "grand_piano_072",
      "velocity": 77,
      "start_sec": 67.765625,
      "duration_sec": 0.213542
    },
    {
      "event_index": 623,
      "track_index": 1,
      "channel": 0,
      "midi_note": 77,
      "note_id": "midi_077",
      "sample_id": "grand_piano_077",
      "velocity": 70,
      "start_sec": 67.985677,
      "duration_sec": 0.313802
    },
    {
      "event_index": 624,
      "track_index": 1,
      "channel": 0,
      "midi_note": 81,
      "note_id": "midi_081",
      "sample_id": "grand_piano_081",
      "velocity": 67,
      "start_sec": 67.985677,
      "duration_sec": 0.324219
    },
    {
      "event_index": 625,
      "track_index": 1,
      "channel": 0,
      "midi_note": 69,
      "note_id": "midi_069",
      "sample_id": "grand_piano_069",
      "velocity": 72,
      "start_sec": 67.986979,
      "duration_sec": 0.21224
    },
    {
      "event_index": 626,
      "track_index": 1,
      "channel": 0,
      "midi_note": 72,
      "note_id": "midi_072",
      "sample_id": "grand_piano_072",
      "velocity": 58,
      "start_sec": 67.99349,
      "duration_sec": 0.115885
    },
    {
      "event_index": 627,
      "track_index": 1,
      "channel": 0,
      "midi_note": 72,
      "note_id": "midi_072",
      "sample_id": "grand_piano_072",
      "velocity": 71,
      "start_sec": 68.208333,
      "duration_sec": 0.230469
    },
    {
      "event_index": 628,
      "track_index": 1,
      "channel": 0,
      "midi_note": 69,
      "note_id": "midi_069",
      "sample_id": "grand_piano_069",
      "velocity": 77,
      "start_sec": 68.213542,
      "duration_sec": 0.22526
    },
    {
      "event_index": 629,
      "track_index": 1,
      "channel": 0,
      "midi_note": 79,
      "note_id": "midi_079",
      "sample_id": "grand_piano_079",
      "velocity": 80,
      "start_sec": 68.440104,
      "duration_sec": 0.35026
    },
    {
      "event_index": 630,
      "track_index": 1,
      "channel": 0,
      "midi_note": 50,
      "note_id": "midi_050",
      "sample_id": "grand_piano_050",
      "velocity": 70,
      "start_sec": 68.440104,
      "duration_sec": 0.498698
    },
    {
      "event_index": 631,
      "track_index": 1,
      "channel": 0,
      "midi_note": 38,
      "note_id": "midi_038",
      "sample_id": "grand_piano_038",
      "velocity": 62,
      "start_sec": 68.442708,
      "duration_sec": 0.345052
    },
    {
      "event_index": 632,
      "track_index": 1,
      "channel": 0,
      "midi_note": 69,
      "note_id": "midi_069",
      "sample_id": "grand_piano_069",
      "velocity": 79,
      "start_sec": 68.44401,
      "duration_sec": 0.214844
    },
    {
      "event_index": 633,
      "track_index": 1,
      "channel": 0,
      "midi_note": 72,
      "note_id": "midi_072",
      "sample_id": "grand_piano_072",
      "velocity": 70,
      "start_sec": 68.445313,
      "duration_sec": 0.213542
    },
    {
      "event_index": 634,
      "track_index": 1,
      "channel": 0,
      "midi_note": 77,
      "note_id": "midi_077",
      "sample_id": "grand_piano_077",
      "velocity": 69,
      "start_sec": 68.664063,
      "duration_sec": 0.304688
    },
    {
      "event_index": 635,
      "track_index": 1,
      "channel": 0,
      "midi_note": 69,
      "note_id": "midi_069",
      "sample_id": "grand_piano_069",
      "velocity": 66,
      "start_sec": 68.667969,
      "duration_sec": 0.221354
    },
    {
      "event_index": 636,
      "track_index": 1,
      "channel": 0,
      "midi_note": 72,
      "note_id": "midi_072",
      "sample_id": "grand_piano_072",
      "velocity": 54,
      "start_sec": 68.673177,
      "duration_sec": 0.205729
    },
    {
      "event_index": 637,
      "track_index": 1,
      "channel": 0,
      "midi_note": 72,
      "note_id": "midi_072",
      "sample_id": "grand_piano_072",
      "velocity": 71,
      "start_sec": 68.891927,
      "duration_sec": 0.207031
    },
    {
      "event_index": 638,
      "track_index": 1,
      "channel": 0,
      "midi_note": 69,
      "note_id": "midi_069",
      "sample_id": "grand_piano_069",
      "velocity": 75,
      "start_sec": 68.894531,
      "duration_sec": 0.204427
    },
    {
      "event_index": 639,
      "track_index": 1,
      "channel": 0,
      "midi_note": 77,
      "note_id": "midi_077",
      "sample_id": "grand_piano_077",
      "velocity": 81,
      "start_sec": 69.104167,
      "duration_sec": 0.257812
    },
    {
      "event_index": 640,
      "track_index": 1,
      "channel": 0,
      "midi_note": 38,
      "note_id": "midi_038",
      "sample_id": "grand_piano_038",
      "velocity": 62,
      "start_sec": 69.109375,
      "duration_sec": 0.054688
    },
    {
      "event_index": 641,
      "track_index": 1,
      "channel": 0,
      "midi_note": 72,
      "note_id": "midi_072",
      "sample_id": "grand_piano_072",
      "velocity": 78,
      "start_sec": 69.110677,
      "duration_sec": 0.108073
    },
    {
      "event_index": 642,
      "track_index": 1,
      "channel": 0,
      "midi_note": 69,
      "note_id": "midi_069",
      "sample_id": "grand_piano_069",
      "velocity": 78,
      "start_sec": 69.113281,
      "duration_sec": 0.096354
    },
    {
      "event_index": 643,
      "track_index": 1,
      "channel": 0,
      "midi_note": 50,
      "note_id": "midi_050",
      "sample_id": "grand_piano_050",
      "velocity": 66,
      "start_sec": 69.113281,
      "duration_sec": 0.247396
    },
    {
      "event_index": 644,
      "track_index": 1,
      "channel": 0,
      "midi_note": 79,
      "note_id": "midi_079",
      "sample_id": "grand_piano_079",
      "velocity": 76,
      "start_sec": 69.335938,
      "duration_sec": 0.414062
    },
    {
      "event_index": 645,
      "track_index": 1,
      "channel": 0,
      "midi_note": 72,
      "note_id": "midi_072",
      "sample_id": "grand_piano_072",
      "velocity": 71,
      "start_sec": 69.341146,
      "duration_sec": 0.208333
    },
    {
      "event_index": 646,
      "track_index": 1,
      "channel": 0,
      "midi_note": 69,
      "note_id": "midi_069",
      "sample_id": "grand_piano_069",
      "velocity": 71,
      "start_sec": 69.342448,
      "duration_sec": 0.123698
    },
    {
      "event_index": 647,
      "track_index": 1,
      "channel": 0,
      "midi_note": 43,
      "note_id": "midi_043",
      "sample_id": "grand_piano_043",
      "velocity": 44,
      "start_sec": 69.345052,
      "duration_sec": 0.014323
    },
    {
      "event_index": 648,
      "track_index": 1,
      "channel": 0,
      "midi_note": 50,
      "note_id": "midi_050",
      "sample_id": "grand_piano_050",
      "velocity": 64,
      "start_sec": 69.550781,
      "duration_sec": 0.46875
    },
    {
      "event_index": 649,
      "track_index": 1,
      "channel": 0,
      "midi_note": 38,
      "note_id": "midi_038",
      "sample_id": "grand_piano_038",
      "velocity": 56,
      "start_sec": 69.554688,
      "duration_sec": 0.934896
    },
    {
      "event_index": 650,
      "track_index": 1,
      "channel": 0,
      "midi_note": 45,
      "note_id": "midi_045",
      "sample_id": "grand_piano_045",
      "velocity": 52,
      "start_sec": 69.5625,
      "duration_sec": 0.983073
    },
    {
      "event_index": 651,
      "track_index": 1,
      "channel": 0,
      "midi_note": 81,
      "note_id": "midi_081",
      "sample_id": "grand_piano_081",
      "velocity": 82,
      "start_sec": 69.566406,
      "duration_sec": 0.980469
    },
    {
      "event_index": 652,
      "track_index": 1,
      "channel": 0,
      "midi_note": 69,
      "note_id": "midi_069",
      "sample_id": "grand_piano_069",
      "velocity": 82,
      "start_sec": 69.574219,
      "duration_sec": 0.455729
    },
    {
      "event_index": 653,
      "track_index": 1,
      "channel": 0,
      "midi_note": 74,
      "note_id": "midi_074",
      "sample_id": "grand_piano_074",
      "velocity": 69,
      "start_sec": 69.575521,
      "duration_sec": 1.014323
    },
    {
      "event_index": 654,
      "track_index": 1,
      "channel": 0,
      "midi_note": 57,
      "note_id": "midi_057",
      "sample_id": "grand_piano_057",
      "velocity": 66,
      "start_sec": 70.02474,
      "duration_sec": 0.554687
    },
    {
      "event_index": 655,
      "track_index": 1,
      "channel": 0,
      "midi_note": 50,
      "note_id": "midi_050",
      "sample_id": "grand_piano_050",
      "velocity": 63,
      "start_sec": 70.028646,
      "duration_sec": 0.460938
    },
    {
      "event_index": 656,
      "track_index": 1,
      "channel": 0,
      "midi_note": 60,
      "note_id": "midi_060",
      "sample_id": "grand_piano_060",
      "velocity": 66,
      "start_sec": 70.029948,
      "duration_sec": 0.514323
    },
    {
      "event_index": 657,
      "track_index": 1,
      "channel": 0,
      "midi_note": 69,
      "note_id": "midi_069",
      "sample_id": "grand_piano_069",
      "velocity": 64,
      "start_sec": 70.036458,
      "duration_sec": 1.463542
    },
    {
      "event_index": 658,
      "track_index": 1,
      "channel": 0,
      "midi_note": 50,
      "note_id": "midi_050",
      "sample_id": "grand_piano_050",
      "velocity": 67,
      "start_sec": 70.497396,
      "duration_sec": 1.041667
    },
    {
      "event_index": 659,
      "track_index": 1,
      "channel": 0,
      "midi_note": 38,
      "note_id": "midi_038",
      "sample_id": "grand_piano_038",
      "velocity": 60,
      "start_sec": 70.503906,
      "duration_sec": 1.035156
    },
    {
      "event_index": 660,
      "track_index": 1,
      "channel": 0,
      "midi_note": 62,
      "note_id": "midi_062",
      "sample_id": "grand_piano_062",
      "velocity": 69,
      "start_sec": 70.505208,
      "duration_sec": 1.02474
    },
    {
      "event_index": 661,
      "track_index": 1,
      "channel": 0,
      "midi_note": 48,
      "note_id": "midi_048",
      "sample_id": "grand_piano_048",
      "velocity": 79,
      "start_sec": 70.97526,
      "duration_sec": 0.541667
    },
    {
      "event_index": 662,
      "track_index": 1,
      "channel": 0,
      "midi_note": 36,
      "note_id": "midi_036",
      "sample_id": "grand_piano_036",
      "velocity": 60,
      "start_sec": 70.97526,
      "duration_sec": 0.541667
    },
    {
      "event_index": 663,
      "track_index": 1,
      "channel": 0,
      "midi_note": 81,
      "note_id": "midi_081",
      "sample_id": "grand_piano_081",
      "velocity": 78,
      "start_sec": 71.454427,
      "duration_sec": 0.058594
    },
    {
      "event_index": 664,
      "track_index": 1,
      "channel": 0,
      "midi_note": 46,
      "note_id": "midi_046",
      "sample_id": "grand_piano_046",
      "velocity": 69,
      "start_sec": 71.454427,
      "duration_sec": 0.071615
    },
    {
      "event_index": 665,
      "track_index": 1,
      "channel": 0,
      "midi_note": 77,
      "note_id": "midi_077",
      "sample_id": "grand_piano_077",
      "velocity": 71,
      "start_sec": 71.454427,
      "duration_sec": 0.135417
    },
    {
      "event_index": 666,
      "track_index": 1,
      "channel": 0,
      "midi_note": 34,
      "note_id": "midi_034",
      "sample_id": "grand_piano_034",
      "velocity": 63,
      "start_sec": 71.457031,
      "duration_sec": 0.067708
    },
    {
      "event_index": 667,
      "track_index": 1,
      "channel": 0,
      "midi_note": 77,
      "note_id": "midi_077",
      "sample_id": "grand_piano_077",
      "velocity": 68,
      "start_sec": 71.686198,
      "duration_sec": 0.183594
    },
    {
      "event_index": 668,
      "track_index": 1,
      "channel": 0,
      "midi_note": 86,
      "note_id": "midi_086",
      "sample_id": "grand_piano_086",
      "velocity": 79,
      "start_sec": 71.686198,
      "duration_sec": 0.259115
    },
    {
      "event_index": 669,
      "track_index": 1,
      "channel": 0,
      "midi_note": 81,
      "note_id": "midi_081",
      "sample_id": "grand_piano_081",
      "velocity": 79,
      "start_sec": 71.919271,
      "duration_sec": 0.209635
    },
    {
      "event_index": 670,
      "track_index": 1,
      "channel": 0,
      "midi_note": 77,
      "note_id": "midi_077",
      "sample_id": "grand_piano_077",
      "velocity": 72,
      "start_sec": 71.920573,
      "duration_sec": 0.035156
    },
    {
      "event_index": 671,
      "track_index": 1,
      "channel": 0,
      "midi_note": 46,
      "note_id": "midi_046",
      "sample_id": "grand_piano_046",
      "velocity": 65,
      "start_sec": 72.127604,
      "duration_sec": 0.046875
    },
    {
      "event_index": 672,
      "track_index": 1,
      "channel": 0,
      "midi_note": 34,
      "note_id": "midi_034",
      "sample_id": "grand_piano_034",
      "velocity": 56,
      "start_sec": 72.135417,
      "duration_sec": 0.048177
    },
    {
      "event_index": 673,
      "track_index": 1,
      "channel": 0,
      "midi_note": 88,
      "note_id": "midi_088",
      "sample_id": "grand_piano_088",
      "velocity": 72,
      "start_sec": 72.136719,
      "duration_sec": 0.203125
    },
    {
      "event_index": 674,
      "track_index": 1,
      "channel": 0,
      "midi_note": 89,
      "note_id": "midi_089",
      "sample_id": "grand_piano_089",
      "velocity": 70,
      "start_sec": 72.139323,
      "duration_sec": 0.160156
    },
    {
      "event_index": 675,
      "track_index": 1,
      "channel": 0,
      "midi_note": 81,
      "note_id": "midi_081",
      "sample_id": "grand_piano_081",
      "velocity": 79,
      "start_sec": 72.140625,
      "duration_sec": 0.359375
    },
    {
      "event_index": 676,
      "track_index": 1,
      "channel": 0,
      "midi_note": 77,
      "note_id": "midi_077",
      "sample_id": "grand_piano_077",
      "velocity": 73,
      "start_sec": 72.144531,
      "duration_sec": 0.214844
    },
    {
      "event_index": 677,
      "track_index": 1,
      "channel": 0,
      "midi_note": 77,
      "note_id": "midi_077",
      "sample_id": "grand_piano_077",
      "velocity": 74,
      "start_sec": 72.373698,
      "duration_sec": 0.216146
    },
    {
      "event_index": 678,
      "track_index": 1,
      "channel": 0,
      "midi_note": 86,
      "note_id": "midi_086",
      "sample_id": "grand_piano_086",
      "velocity": 77,
      "start_sec": 72.373698,
      "duration_sec": 0.260417
    },
    {
      "event_index": 679,
      "track_index": 1,
      "channel": 0,
      "midi_note": 77,
      "note_id": "midi_077",
      "sample_id": "grand_piano_077",
      "velocity": 72,
      "start_sec": 72.604167,
      "duration_sec": 0.105469
    },
    {
      "event_index": 680,
      "track_index": 1,
      "channel": 0,
      "midi_note": 81,
      "note_id": "midi_081",
      "sample_id": "grand_piano_081",
      "velocity": 82,
      "start_sec": 72.604167,
      "duration_sec": 0.214844
    },
    {
      "event_index": 681,
      "track_index": 1,
      "channel": 0,
      "midi_note": 86,
      "note_id": "midi_086",
      "sample_id": "grand_piano_086",
      "velocity": 76,
      "start_sec": 72.820313,
      "duration_sec": 0.269531
    },
    {
      "event_index": 682,
      "track_index": 1,
      "channel": 0,
      "midi_note": 77,
      "note_id": "midi_077",
      "sample_id": "grand_piano_077",
      "velocity": 75,
      "start_sec": 72.822917,
      "duration_sec": 0.041667
    },
    {
      "event_index": 683,
      "track_index": 1,
      "channel": 0,
      "midi_note": 46,
      "note_id": "midi_046",
      "sample_id": "grand_piano_046",
      "velocity": 62,
      "start_sec": 72.822917,
      "duration_sec": 0.042969
    },
    {
      "event_index": 684,
      "track_index": 1,
      "channel": 0,
      "midi_note": 34,
      "note_id": "midi_034",
      "sample_id": "grand_piano_034",
      "velocity": 56,
      "start_sec": 72.822917,
      "duration_sec": 0.044271
    },
    {
      "event_index": 685,
      "track_index": 1,
      "channel": 0,
      "midi_note": 81,
      "note_id": "midi_081",
      "sample_id": "grand_piano_081",
      "velocity": 71,
      "start_sec": 72.825521,
      "duration_sec": 0.041667
    },
    {
      "event_index": 686,
      "track_index": 1,
      "channel": 0,
      "midi_note": 89,
      "note_id": "midi_089",
      "sample_id": "grand_piano_089",
      "velocity": 63,
      "start_sec": 73.045573,
      "duration_sec": 0.09375
    },
    {
      "event_index": 687,
      "track_index": 1,
      "channel": 0,
      "midi_note": 88,
      "note_id": "midi_088",
      "sample_id": "grand_piano_088",
      "velocity": 70,
      "start_sec": 73.045573,
      "duration_sec": 0.324219
    },
    {
      "event_index": 688,
      "track_index": 1,
      "channel": 0,
      "midi_note": 77,
      "note_id": "midi_077",
      "sample_id": "grand_piano_077",
      "velocity": 68,
      "start_sec": 73.046875,
      "duration_sec": 0.072917
    },
    {
      "event_index": 689,
      "track_index": 1,
      "channel": 0,
      "midi_note": 81,
      "note_id": "midi_081",
      "sample_id": "grand_piano_081",
      "velocity": 73,
      "start_sec": 73.046875,
      "duration_sec": 0.122396
    },
    {
      "event_index": 690,
      "track_index": 1,
      "channel": 0,
      "midi_note": 48,
      "note_id": "midi_048",
      "sample_id": "grand_piano_048",
      "velocity": 69,
      "start_sec": 73.263021,
      "duration_sec": 0.264323
    },
    {
      "event_index": 691,
      "track_index": 1,
      "channel": 0,
      "midi_note": 36,
      "note_id": "midi_036",
      "sample_id": "grand_piano_036",
      "velocity": 62,
      "start_sec": 73.264323,
      "duration_sec": 0.260417
    },
    {
      "event_index": 692,
      "track_index": 1,
      "channel": 0,
      "midi_note": 81,
      "note_id": "midi_081",
      "sample_id": "grand_piano_081",
      "velocity": 77,
      "start_sec": 73.273438,
      "duration_sec": 0.25651
    },
    {
      "event_index": 693,
      "track_index": 1,
      "channel": 0,
      "midi_note": 89,
      "note_id": "midi_089",
      "sample_id": "grand_piano_089",
      "velocity": 71,
      "start_sec": 73.273438,
      "duration_sec": 0.376302
    },
    {
      "event_index": 694,
      "track_index": 1,
      "channel": 0,
      "midi_note": 86,
      "note_id": "midi_086",
      "sample_id": "grand_piano_086",
      "velocity": 72,
      "start_sec": 73.276042,
      "duration_sec": 0.257813
    },
    {
      "event_index": 695,
      "track_index": 1,
      "channel": 0,
      "midi_note": 88,
      "note_id": "midi_088",
      "sample_id": "grand_piano_088",
      "velocity": 65,
      "start_sec": 73.535156,
      "duration_sec": 0.324219
    },
    {
      "event_index": 696,
      "track_index": 1,
      "channel": 0,
      "midi_note": 81,
      "note_id": "midi_081",
      "sample_id": "grand_piano_081",
      "velocity": 68,
      "start_sec": 73.536458,
      "duration_sec": 0.192708
    },
    {
      "event_index": 697,
      "track_index": 1,
      "channel": 0,
      "midi_note": 81,
      "note_id": "midi_081",
      "sample_id": "grand_piano_081",
      "velocity": 72,
      "start_sec": 73.74349,
      "duration_sec": 0.115885
    },
    {
      "event_index": 698,
      "track_index": 1,
      "channel": 0,
      "midi_note": 84,
      "note_id": "midi_084",
      "sample_id": "grand_piano_084",
      "velocity": 73,
      "start_sec": 73.744792,
      "duration_sec": 0.204427
    },
    {
      "event_index": 699,
      "track_index": 1,
      "channel": 0,
      "midi_note": 48,
      "note_id": "midi_048",
      "sample_id": "grand_piano_048",
      "velocity": 73,
      "start_sec": 73.949219,
      "duration_sec": 0.470052
    },
    {
      "event_index": 700,
      "track_index": 1,
      "channel": 0,
      "midi_note": 36,
      "note_id": "midi_036",
      "sample_id": "grand_piano_036",
      "velocity": 62,
      "start_sec": 73.950521,
      "duration_sec": 0.36849
    },
    {
      "event_index": 701,
      "track_index": 1,
      "channel": 0,
      "midi_note": 89,
      "note_id": "midi_089",
      "sample_id": "grand_piano_089",
      "velocity": 71,
      "start_sec": 73.954427,
      "duration_sec": 0.394531
    },
    {
      "event_index": 702,
      "track_index": 1,
      "channel": 0,
      "midi_note": 81,
      "note_id": "midi_081",
      "sample_id": "grand_piano_081",
      "velocity": 72,
      "start_sec": 73.957031,
      "duration_sec": 0.222656
    },
    {
      "event_index": 703,
      "track_index": 1,
      "channel": 0,
      "midi_note": 84,
      "note_id": "midi_084",
      "sample_id": "grand_piano_084",
      "velocity": 72,
      "start_sec": 73.957031,
      "duration_sec": 0.451823
    },
    {
      "event_index": 704,
      "track_index": 1,
      "channel": 0,
      "midi_note": 88,
      "note_id": "midi_088",
      "sample_id": "grand_piano_088",
      "velocity": 69,
      "start_sec": 74.186198,
      "duration_sec": 0.453125
    },
    {
      "event_index": 705,
      "track_index": 1,
      "channel": 0,
      "midi_note": 81,
      "note_id": "midi_081",
      "sample_id": "grand_piano_081",
      "velocity": 66,
      "start_sec": 74.188802,
      "duration_sec": 0.220052
    },
    {
      "event_index": 706,
      "track_index": 1,
      "channel": 0,
      "midi_note": 81,
      "note_id": "midi_081",
      "sample_id": "grand_piano_081",
      "velocity": 74,
      "start_sec": 74.420573,
      "duration_sec": 0.208333
    },
    {
      "event_index": 707,
      "track_index": 1,
      "channel": 0,
      "midi_note": 84,
      "note_id": "midi_084",
      "sample_id": "grand_piano_084",
      "velocity": 72,
      "start_sec": 74.421875,
      "duration_sec": 0.207031
    },
    {
      "event_index": 708,
      "track_index": 1,
      "channel": 0,
      "midi_note": 48,
      "note_id": "midi_048",
      "sample_id": "grand_piano_048",
      "velocity": 71,
      "start_sec": 74.625,
      "duration_sec": 0.324219
    },
    {
      "event_index": 709,
      "track_index": 1,
      "channel": 0,
      "midi_note": 36,
      "note_id": "midi_036",
      "sample_id": "grand_piano_036",
      "velocity": 62,
      "start_sec": 74.630208,
      "duration_sec": 0.25
    },
    {
      "event_index": 710,
      "track_index": 1,
      "channel": 0,
      "midi_note": 84,
      "note_id": "midi_084",
      "sample_id": "grand_piano_084",
      "velocity": 71,
      "start_sec": 74.641927,
      "duration_sec": 0.296875
    },
    {
      "event_index": 711,
      "track_index": 1,
      "channel": 0,
      "midi_note": 81,
      "note_id": "midi_081",
      "sample_id": "grand_piano_081",
      "velocity": 72,
      "start_sec": 74.643229,
      "duration_sec": 0.205729
    },
    {
      "event_index": 712,
      "track_index": 1,
      "channel": 0,
      "midi_note": 88,
      "note_id": "midi_088",
      "sample_id": "grand_piano_088",
      "velocity": 70,
      "start_sec": 74.645833,
      "duration_sec": 0.303385
    },
    {
      "event_index": 713,
      "track_index": 1,
      "channel": 0,
      "midi_note": 81,
      "note_id": "midi_081",
      "sample_id": "grand_piano_081",
      "velocity": 76,
      "start_sec": 74.863281,
      "duration_sec": 0.085938
    },
    {
      "event_index": 714,
      "track_index": 1,
      "channel": 0,
      "midi_note": 89,
      "note_id": "midi_089",
      "sample_id": "grand_piano_089",
      "velocity": 71,
      "start_sec": 74.863281,
      "duration_sec": 0.15625
    },
    {
      "event_index": 715,
      "track_index": 1,
      "channel": 0,
      "midi_note": 50,
      "note_id": "midi_050",
      "sample_id": "grand_piano_050",
      "velocity": 72,
      "start_sec": 75.067708,
      "duration_sec": 0.304688
    },
    {
      "event_index": 716,
      "track_index": 1,
      "channel": 0,
      "midi_note": 81,
      "note_id": "midi_081",
      "sample_id": "grand_piano_081",
      "velocity": 79,
      "start_sec": 75.074219,
      "duration_sec": 0.235677
    },
    {
      "event_index": 717,
      "track_index": 1,
      "channel": 0,
      "midi_note": 38,
      "note_id": "midi_038",
      "sample_id": "grand_piano_038",
      "velocity": 64,
      "start_sec": 75.074219,
      "duration_sec": 0.304688
    },
    {
      "event_index": 718,
      "track_index": 1,
      "channel": 0,
      "midi_note": 84,
      "note_id": "midi_084",
      "sample_id": "grand_piano_084",
      "velocity": 81,
      "start_sec": 75.074219,
      "duration_sec": 0.455729
    },
    {
      "event_index": 719,
      "track_index": 1,
      "channel": 0,
      "midi_note": 93,
      "note_id": "midi_093",
      "sample_id": "grand_piano_093",
      "velocity": 72,
      "start_sec": 75.075521,
      "duration_sec": 0.294271
    },
    {
      "event_index": 720,
      "track_index": 1,
      "channel": 0,
      "midi_note": 81,
      "note_id": "midi_081",
      "sample_id": "grand_piano_081",
      "velocity": 78,
      "start_sec": 75.315104,
      "duration_sec": 0.214844
    },
    {
      "event_index": 721,
      "track_index": 1,
      "channel": 0,
      "midi_note": 89,
      "note_id": "midi_089",
      "sample_id": "grand_piano_089",
      "velocity": 69,
      "start_sec": 75.315104,
      "duration_sec": 0.313802
    },
    {
      "event_index": 722,
      "track_index": 1,
      "channel": 0,
      "midi_note": 81,
      "note_id": "midi_081",
      "sample_id": "grand_piano_081",
      "velocity": 75,
      "start_sec": 75.542969,
      "duration_sec": 0.207031
    },
    {
      "event_index": 723,
      "track_index": 1,
      "channel": 0,
      "midi_note": 84,
      "note_id": "midi_084",
      "sample_id": "grand_piano_084",
      "velocity": 70,
      "start_sec": 75.544271,
      "duration_sec": 0.205729
    },
    {
      "event_index": 724,
      "track_index": 1,
      "channel": 0,
      "midi_note": 50,
      "note_id": "midi_050",
      "sample_id": "grand_piano_050",
      "velocity": 71,
      "start_sec": 75.75,
      "duration_sec": 0.669271
    },
    {
      "event_index": 725,
      "track_index": 1,
      "channel": 0,
      "midi_note": 91,
      "note_id": "midi_091",
      "sample_id": "grand_piano_091",
      "velocity": 77,
      "start_sec": 75.751302,
      "duration_sec": 0.007812
    },
    {
      "event_index": 726,
      "track_index": 1,
      "channel": 0,
      "midi_note": 38,
      "note_id": "midi_038",
      "sample_id": "grand_piano_038",
      "velocity": 63,
      "start_sec": 75.753906,
      "duration_sec": 0.675781
    },
    {
      "event_index": 727,
      "track_index": 1,
      "channel": 0,
      "midi_note": 81,
      "note_id": "midi_081",
      "sample_id": "grand_piano_081",
      "velocity": 72,
      "start_sec": 75.755208,
      "duration_sec": 0.223958
    },
    {
      "event_index": 728,
      "track_index": 1,
      "channel": 0,
      "midi_note": 84,
      "note_id": "midi_084",
      "sample_id": "grand_piano_084",
      "velocity": 72,
      "start_sec": 75.763021,
      "duration_sec": 0.876302
    },
    {
      "event_index": 729,
      "track_index": 1,
      "channel": 0,
      "midi_note": 89,
      "note_id": "midi_089",
      "sample_id": "grand_piano_089",
      "velocity": 68,
      "start_sec": 75.988281,
      "duration_sec": 0.43099
    },
    {
      "event_index": 730,
      "track_index": 1,
      "channel": 0,
      "midi_note": 81,
      "note_id": "midi_081",
      "sample_id": "grand_piano_081",
      "velocity": 50,
      "start_sec": 75.99349,
      "duration_sec": 0.205729
    },
    {
      "event_index": 731,
      "track_index": 1,
      "channel": 0,
      "midi_note": 81,
      "note_id": "midi_081",
      "sample_id": "grand_piano_081",
      "velocity": 75,
      "start_sec": 76.21224,
      "duration_sec": 0.217448
    },
    {
      "event_index": 732,
      "track_index": 1,
      "channel": 0,
      "midi_note": 89,
      "note_id": "midi_089",
      "sample_id": "grand_piano_089",
      "velocity": 70,
      "start_sec": 76.432292,
      "duration_sec": 0.252604
    },
    {
      "event_index": 733,
      "track_index": 1,
      "channel": 0,
      "midi_note": 50,
      "note_id": "midi_050",
      "sample_id": "grand_piano_050",
      "velocity": 64,
      "start_sec": 76.433594,
      "duration_sec": 0.295573
    },
    {
      "event_index": 734,
      "track_index": 1,
      "channel": 0,
      "midi_note": 38,
      "note_id": "midi_038",
      "sample_id": "grand_piano_038",
      "velocity": 59,
      "start_sec": 76.434896,
      "duration_sec": 0.244792
    },
    {
      "event_index": 735,
      "track_index": 1,
      "channel": 0,
      "midi_note": 81,
      "note_id": "midi_081",
      "sample_id": "grand_piano_081",
      "velocity": 75,
      "start_sec": 76.436198,
      "duration_sec": 0.222656
    },
    {
      "event_index": 736,
      "track_index": 1,
      "channel": 0,
      "midi_note": 81,
      "note_id": "midi_081",
      "sample_id": "grand_piano_081",
      "velocity": 74,
      "start_sec": 76.665365,
      "duration_sec": 0.204427
    },
    {
      "event_index": 737,
      "track_index": 1,
      "channel": 0,
      "midi_note": 88,
      "note_id": "midi_088",
      "sample_id": "grand_piano_088",
      "velocity": 74,
      "start_sec": 76.665365,
      "duration_sec": 0.734375
    },
    {
      "event_index": 738,
      "track_index": 1,
      "channel": 0,
      "midi_note": 50,
      "note_id": "midi_050",
      "sample_id": "grand_piano_050",
      "velocity": 71,
      "start_sec": 76.867188,
      "duration_sec": 0.46224
    },
    {
      "event_index": 739,
      "track_index": 1,
      "channel": 0,
      "midi_note": 38,
      "note_id": "midi_038",
      "sample_id": "grand_piano_038",
      "velocity": 65,
      "start_sec": 76.869792,
      "duration_sec": 0.919271
    },
    {
      "event_index": 740,
      "track_index": 1,
      "channel": 0,
      "midi_note": 86,
      "note_id": "midi_086",
      "sample_id": "grand_piano_086",
      "velocity": 77,
      "start_sec": 76.873698,
      "duration_sec": 1.40625
    },
    {
      "event_index": 741,
      "track_index": 1,
      "channel": 0,
      "midi_note": 81,
      "note_id": "midi_081",
      "sample_id": "grand_piano_081",
      "velocity": 70,
      "start_sec": 76.875,
      "duration_sec": 1.204427
    },
    {
      "event_index": 742,
      "track_index": 1,
      "channel": 0,
      "midi_note": 57,
      "note_id": "midi_057",
      "sample_id": "grand_piano_057",
      "velocity": 67,
      "start_sec": 77.333333,
      "duration_sec": 0.966146
    },
    {
      "event_index": 743,
      "track_index": 1,
      "channel": 0,
      "midi_note": 60,
      "note_id": "midi_060",
      "sample_id": "grand_piano_060",
      "velocity": 62,
      "start_sec": 77.334635,
      "duration_sec": 0.942708
    },
    {
      "event_index": 744,
      "track_index": 1,
      "channel": 0,
      "midi_note": 50,
      "note_id": "midi_050",
      "sample_id": "grand_piano_050",
      "velocity": 62,
      "start_sec": 77.335938,
      "duration_sec": 0.44401
    },
    {
      "event_index": 745,
      "track_index": 1,
      "channel": 0,
      "midi_note": 38,
      "note_id": "midi_038",
      "sample_id": "grand_piano_038",
      "velocity": 59,
      "start_sec": 77.794271,
      "duration_sec": 0.484375
    },
    {
      "event_index": 746,
      "track_index": 1,
      "channel": 0,
      "midi_note": 50,
      "note_id": "midi_050",
      "sample_id": "grand_piano_050",
      "velocity": 66,
      "start_sec": 77.794271,
      "duration_sec": 0.486979
    },
    {
      "event_index": 747,
      "track_index": 1,
      "channel": 0,
      "midi_note": 48,
      "note_id": "midi_048",
      "sample_id": "grand_piano_048",
      "velocity": 75,
      "start_sec": 78.240885,
      "duration_sec": 0.447917
    },
    {
      "event_index": 748,
      "track_index": 1,
      "channel": 0,
      "midi_note": 36,
      "note_id": "midi_036",
      "sample_id": "grand_piano_036",
      "velocity": 58,
      "start_sec": 78.242187,
      "duration_sec": 0.317708
    },
    {
      "event_index": 749,
      "track_index": 1,
      "channel": 0,
      "midi_note": 46,
      "note_id": "midi_046",
      "sample_id": "grand_piano_046",
      "velocity": 72,
      "start_sec": 78.669271,
      "duration_sec": 0.054688
    },
    {
      "event_index": 750,
      "track_index": 1,
      "channel": 0,
      "midi_note": 34,
      "note_id": "midi_034",
      "sample_id": "grand_piano_034",
      "velocity": 62,
      "start_sec": 78.675781,
      "duration_sec": 0.013021
    },
    {
      "event_index": 751,
      "track_index": 1,
      "channel": 0,
      "midi_note": 81,
      "note_id": "midi_081",
      "sample_id": "grand_piano_081",
      "velocity": 83,
      "start_sec": 78.682292,
      "duration_sec": 0.266927
    },
    {
      "event_index": 752,
      "track_index": 1,
      "channel": 0,
      "midi_note": 77,
      "note_id": "midi_077",
      "sample_id": "grand_piano_077",
      "velocity": 77,
      "start_sec": 78.684896,
      "duration_sec": 0.289062
    },
    {
      "event_index": 753,
      "track_index": 1,
      "channel": 0,
      "midi_note": 74,
      "note_id": "midi_074",
      "sample_id": "grand_piano_074",
      "velocity": 70,
      "start_sec": 78.684896,
      "duration_sec": 0.334635
    },
    {
      "event_index": 754,
      "track_index": 1,
      "channel": 0,
      "midi_note": 81,
      "note_id": "midi_081",
      "sample_id": "grand_piano_081",
      "velocity": 67,
      "start_sec": 78.957031,
      "duration_sec": 0.111979
    },
    {
      "event_index": 755,
      "track_index": 1,
      "channel": 0,
      "midi_note": 86,
      "note_id": "midi_086",
      "sample_id": "grand_piano_086",
      "velocity": 77,
      "start_sec": 78.958333,
      "duration_sec": 0.110677
    },
    {
      "event_index": 756,
      "track_index": 1,
      "channel": 0,
      "midi_note": 81,
      "note_id": "midi_081",
      "sample_id": "grand_piano_081",
      "velocity": 77,
      "start_sec": 79.075521,
      "duration_sec": 0.09375
    },
    {
      "event_index": 757,
      "track_index": 1,
      "channel": 0,
      "midi_note": 86,
      "note_id": "midi_086",
      "sample_id": "grand_piano_086",
      "velocity": 78,
      "start_sec": 79.075521,
      "duration_sec": 0.113281
    },
    {
      "event_index": 758,
      "track_index": 1,
      "channel": 0,
      "midi_note": 57,
      "note_id": "midi_057",
      "sample_id": "grand_piano_057",
      "velocity": 69,
      "start_sec": 79.170573,
      "duration_sec": 0.338542
    },
    {
      "event_index": 759,
      "track_index": 1,
      "channel": 0,
      "midi_note": 81,
      "note_id": "midi_081",
      "sample_id": "grand_piano_081",
      "velocity": 71,
      "start_sec": 79.183594,
      "duration_sec": 0.235677
    },
    {
      "event_index": 760,
      "track_index": 1,
      "channel": 0,
      "midi_note": 53,
      "note_id": "midi_053",
      "sample_id": "grand_piano_053",
      "velocity": 68,
      "start_sec": 79.183594,
      "duration_sec": 0.261719
    },
    {
      "event_index": 761,
      "track_index": 1,
      "channel": 0,
      "midi_note": 50,
      "note_id": "midi_050",
      "sample_id": "grand_piano_050",
      "velocity": 56,
      "start_sec": 79.1875,
      "duration_sec": 0.264323
    },
    {
      "event_index": 762,
      "track_index": 1,
      "channel": 0,
      "midi_note": 46,
      "note_id": "midi_046",
      "sample_id": "grand_piano_046",
      "velocity": 60,
      "start_sec": 79.190104,
      "duration_sec": 0.255208
    },
    {
      "event_index": 763,
      "track_index": 1,
      "channel": 0,
      "midi_note": 86,
      "note_id": "midi_086",
      "sample_id": "grand_piano_086",
      "velocity": 64,
      "start_sec": 79.199219,
      "duration_sec": 0.247396
    },
    {
      "event_index": 764,
      "track_index": 1,
      "channel": 0,
      "midi_note": 81,
      "note_id": "midi_081",
      "sample_id": "grand_piano_081",
      "velocity": 74,
      "start_sec": 79.432292,
      "duration_sec": 0.106771
    },
    {
      "event_index": 765,
      "track_index": 1,
      "channel": 0,
      "midi_note": 77,
      "note_id": "midi_077",
      "sample_id": "grand_piano_077",
      "velocity": 48,
      "start_sec": 79.433594,
      "duration_sec": 0.005208
    },
    {
      "event_index": 766,
      "track_index": 1,
      "channel": 0,
      "midi_note": 74,
      "note_id": "midi_074",
      "sample_id": "grand_piano_074",
      "velocity": 60,
      "start_sec": 79.433594,
      "duration_sec": 0.105469
    },
    {
      "event_index": 767,
      "track_index": 1,
      "channel": 0,
      "midi_note": 81,
      "note_id": "midi_081",
      "sample_id": "grand_piano_081",
      "velocity": 73,
      "start_sec": 79.546875,
      "duration_sec": 0.111979
    },
    {
      "event_index": 768,
      "track_index": 1,
      "channel": 0,
      "midi_note": 74,
      "note_id": "midi_074",
      "sample_id": "grand_piano_074",
      "velocity": 68,
      "start_sec": 79.550781,
      "duration_sec": 0.098958
    },
    {
      "event_index": 769,
      "track_index": 1,
      "channel": 0,
      "midi_note": 74,
      "note_id": "midi_074",
      "sample_id": "grand_piano_074",
      "velocity": 67,
      "start_sec": 79.66276,
      "duration_sec": 0.196615
    },
    {
      "event_index": 770,
      "track_index": 1,
      "channel": 0,
      "midi_note": 81,
      "note_id": "midi_081",
      "sample_id": "grand_piano_081",
      "velocity": 68,
      "start_sec": 79.665365,
      "duration_sec": 0.183594
    },
    {
      "event_index": 771,
      "track_index": 1,
      "channel": 0,
      "midi_note": 57,
      "note_id": "midi_057",
      "sample_id": "grand_piano_057",
      "velocity": 67,
      "start_sec": 79.865885,
      "duration_sec": 0.333333
    },
    {
      "event_index": 772,
      "track_index": 1,
      "channel": 0,
      "midi_note": 45,
      "note_id": "midi_045",
      "sample_id": "grand_piano_045",
      "velocity": 59,
      "start_sec": 79.876302,
      "duration_sec": 0.303385
    },
    {
      "event_index": 773,
      "track_index": 1,
      "channel": 0,
      "midi_note": 53,
      "note_id": "midi_053",
      "sample_id": "grand_piano_053",
      "velocity": 65,
      "start_sec": 79.876302,
      "duration_sec": 0.403646
    },
    {
      "event_index": 774,
      "track_index": 1,
      "channel": 0,
      "midi_note": 50,
      "note_id": "midi_050",
      "sample_id": "grand_piano_050",
      "velocity": 61,
      "start_sec": 79.880208,
      "duration_sec": 0.282552
    },
    {
      "event_index": 775,
      "track_index": 1,
      "channel": 0,
      "midi_note": 77,
      "note_id": "midi_077",
      "sample_id": "grand_piano_077",
      "velocity": 74,
      "start_sec": 79.884115,
      "duration_sec": 0.105469
    },
    {
      "event_index": 776,
      "track_index": 1,
      "channel": 0,
      "midi_note": 82,
      "note_id": "midi_082",
      "sample_id": "grand_piano_082",
      "velocity": 68,
      "start_sec": 79.884115,
      "duration_sec": 0.105469
    },
    {
      "event_index": 777,
      "track_index": 1,
      "channel": 0,
      "midi_note": 70,
      "note_id": "midi_070",
      "sample_id": "grand_piano_070",
      "velocity": 64,
      "start_sec": 79.893229,
      "duration_sec": 0.096354
    },
    {
      "event_index": 778,
      "track_index": 1,
      "channel": 0,
      "midi_note": 82,
      "note_id": "midi_082",
      "sample_id": "grand_piano_082",
      "velocity": 69,
      "start_sec": 79.994792,
      "duration_sec": 0.114583
    },
    {
      "event_index": 779,
      "track_index": 1,
      "channel": 0,
      "midi_note": 77,
      "note_id": "midi_077",
      "sample_id": "grand_piano_077",
      "velocity": 72,
      "start_sec": 79.996094,
      "duration_sec": 0.113281
    },
    {
      "event_index": 780,
      "track_index": 1,
      "channel": 0,
      "midi_note": 70,
      "note_id": "midi_070",
      "sample_id": "grand_piano_070",
      "velocity": 69,
      "start_sec": 80.0,
      "duration_sec": 0.109375
    },
    {
      "event_index": 781,
      "track_index": 1,
      "channel": 0,
      "midi_note": 70,
      "note_id": "midi_070",
      "sample_id": "grand_piano_070",
      "velocity": 68,
      "start_sec": 80.114583,
      "duration_sec": 0.204427
    },
    {
      "event_index": 782,
      "track_index": 1,
      "channel": 0,
      "midi_note": 82,
      "note_id": "midi_082",
      "sample_id": "grand_piano_082",
      "velocity": 65,
      "start_sec": 80.114583,
      "duration_sec": 0.375
    },
    {
      "event_index": 783,
      "track_index": 1,
      "channel": 0,
      "midi_note": 77,
      "note_id": "midi_077",
      "sample_id": "grand_piano_077",
      "velocity": 63,
      "start_sec": 80.117187,
      "duration_sec": 0.22526
    },
    {
      "event_index": 784,
      "track_index": 1,
      "channel": 0,
      "midi_note": 81,
      "note_id": "midi_081",
      "sample_id": "grand_piano_081",
      "velocity": 76,
      "start_sec": 80.322917,
      "duration_sec": 0.196615
    },
    {
      "event_index": 785,
      "track_index": 1,
      "channel": 0,
      "midi_note": 70,
      "note_id": "midi_070",
      "sample_id": "grand_piano_070",
      "velocity": 63,
      "start_sec": 80.325521,
      "duration_sec": 0.204427
    },
    {
      "event_index": 786,
      "track_index": 1,
      "channel": 0,
      "midi_note": 46,
      "note_id": "midi_046",
      "sample_id": "grand_piano_046",
      "velocity": 63,
      "start_sec": 80.526042,
      "duration_sec": 0.123698
    },
    {
      "event_index": 787,
      "track_index": 1,
      "channel": 0,
      "midi_note": 81,
      "note_id": "midi_081",
      "sample_id": "grand_piano_081",
      "velocity": 77,
      "start_sec": 80.532552,
      "duration_sec": 0.276042
    },
    {
      "event_index": 788,
      "track_index": 1,
      "channel": 0,
      "midi_note": 70,
      "note_id": "midi_070",
      "sample_id": "grand_piano_070",
      "velocity": 70,
      "start_sec": 80.53776,
      "duration_sec": 0.28125
    },
    {
      "event_index": 789,
      "track_index": 1,
      "channel": 0,
      "midi_note": 79,
      "note_id": "midi_079",
      "sample_id": "grand_piano_079",
      "velocity": 73,
      "start_sec": 80.773437,
      "duration_sec": 0.126302
    },
    {
      "event_index": 790,
      "track_index": 1,
      "channel": 0,
      "midi_note": 55,
      "note_id": "midi_055",
      "sample_id": "grand_piano_055",
      "velocity": 66,
      "start_sec": 80.773437,
      "duration_sec": 0.455729
    },
    {
      "event_index": 791,
      "track_index": 1,
      "channel": 0,
      "midi_note": 48,
      "note_id": "midi_048",
      "sample_id": "grand_piano_048",
      "velocity": 62,
      "start_sec": 80.778646,
      "duration_sec": 0.460938
    },
    {
      "event_index": 792,
      "track_index": 1,
      "channel": 0,
      "midi_note": 52,
      "note_id": "midi_052",
      "sample_id": "grand_piano_052",
      "velocity": 62,
      "start_sec": 80.78125,
      "duration_sec": 0.477865
    },
    {
      "event_index": 793,
      "track_index": 1,
      "channel": 0,
      "midi_note": 72,
      "note_id": "midi_072",
      "sample_id": "grand_piano_072",
      "velocity": 69,
      "start_sec": 80.785156,
      "duration_sec": 0.114583
    },
    {
      "event_index": 794,
      "track_index": 1,
      "channel": 0,
      "midi_note": 76,
      "note_id": "midi_076",
      "sample_id": "grand_piano_076",
      "velocity": 55,
      "start_sec": 80.78776,
      "duration_sec": 0.111979
    },
    {
      "event_index": 795,
      "track_index": 1,
      "channel": 0,
      "midi_note": 72,
      "note_id": "midi_072",
      "sample_id": "grand_piano_072",
      "velocity": 74,
      "start_sec": 80.904948,
      "duration_sec": 0.104167
    },
    {
      "event_index": 796,
      "track_index": 1,
      "channel": 0,
      "midi_note": 79,
      "note_id": "midi_079",
      "sample_id": "grand_piano_079",
      "velocity": 68,
      "start_sec": 80.904948,
      "duration_sec": 0.104167
    },
    {
      "event_index": 797,
      "track_index": 1,
      "channel": 0,
      "midi_note": 76,
      "note_id": "midi_076",
      "sample_id": "grand_piano_076",
      "velocity": 51,
      "start_sec": 80.914062,
      "duration_sec": 0.325521
    },
    {
      "event_index": 798,
      "track_index": 1,
      "channel": 0,
      "midi_note": 72,
      "note_id": "midi_072",
      "sample_id": "grand_piano_072",
      "velocity": 72,
      "start_sec": 81.023437,
      "duration_sec": 0.235677
    },
    {
      "event_index": 799,
      "track_index": 1,
      "channel": 0,
      "midi_note": 79,
      "note_id": "midi_079",
      "sample_id": "grand_piano_079",
      "velocity": 70,
      "start_sec": 81.02474,
      "duration_sec": 0.44401
    },
    {
      "event_index": 800,
      "track_index": 1,
      "channel": 0,
      "midi_note": 78,
      "note_id": "midi_078",
      "sample_id": "grand_piano_078",
      "velocity": 81,
      "start_sec": 81.25651,
      "duration_sec": 0.248698
    },
    {
      "event_index": 801,
      "track_index": 1,
      "channel": 0,
      "midi_note": 55,
      "note_id": "midi_055",
      "sample_id": "grand_piano_055",
      "velocity": 54,
      "start_sec": 81.263021,
      "duration_sec": 0.276042
    },
    {
      "event_index": 802,
      "track_index": 1,
      "channel": 0,
      "midi_note": 52,
      "note_id": "midi_052",
      "sample_id": "grand_piano_052",
      "velocity": 53,
      "start_sec": 81.264323,
      "duration_sec": 0.231771
    },
    {
      "event_index": 803,
      "track_index": 1,
      "channel": 0,
      "midi_note": 72,
      "note_id": "midi_072",
      "sample_id": "grand_piano_072",
      "velocity": 77,
      "start_sec": 81.266927,
      "duration_sec": 0.21224
    },
    {
      "event_index": 804,
      "track_index": 1,
      "channel": 0,
      "midi_note": 48,
      "note_id": "midi_048",
      "sample_id": "grand_piano_048",
      "velocity": 45,
      "start_sec": 81.296875,
      "duration_sec": 0.205729
    },
    {
      "event_index": 805,
      "track_index": 1,
      "channel": 0,
      "midi_note": 46,
      "note_id": "midi_046",
      "sample_id": "grand_piano_046",
      "velocity": 60,
      "start_sec": 81.483073,
      "duration_sec": 0.296875
    },
    {
      "event_index": 806,
      "track_index": 1,
      "channel": 0,
      "midi_note": 79,
      "note_id": "midi_079",
      "sample_id": "grand_piano_079",
      "velocity": 76,
      "start_sec": 81.484375,
      "duration_sec": 0.518229
    },
    {
      "event_index": 807,
      "track_index": 1,
      "channel": 0,
      "midi_note": 72,
      "note_id": "midi_072",
      "sample_id": "grand_piano_072",
      "velocity": 74,
      "start_sec": 81.486979,
      "duration_sec": 0.513021
    },
    {
      "event_index": 808,
      "track_index": 1,
      "channel": 0,
      "midi_note": 55,
      "note_id": "midi_055",
      "sample_id": "grand_piano_055",
      "velocity": 69,
      "start_sec": 81.722656,
      "duration_sec": 0.264323
    },
    {
      "event_index": 809,
      "track_index": 1,
      "channel": 0,
      "midi_note": 52,
      "note_id": "midi_052",
      "sample_id": "grand_piano_052",
      "velocity": 66,
      "start_sec": 81.977865,
      "duration_sec": 0.240885
    },
    {
      "event_index": 810,
      "track_index": 1,
      "channel": 0,
      "midi_note": 48,
      "note_id": "midi_048",
      "sample_id": "grand_piano_048",
      "velocity": 76,
      "start_sec": 82.205729,
      "duration_sec": 0.213542
    },
    {
      "event_index": 811,
      "track_index": 1,
      "channel": 0,
      "midi_note": 79,
      "note_id": "midi_079",
      "sample_id": "grand_piano_079",
      "velocity": 78,
      "start_sec": 82.421875,
      "duration_sec": 0.227865
    },
    {
      "event_index": 812,
      "track_index": 1,
      "channel": 0,
      "midi_note": 72,
      "note_id": "midi_072",
      "sample_id": "grand_piano_072",
      "velocity": 79,
      "start_sec": 82.421875,
      "duration_sec": 0.578125
    },
    {
      "event_index": 813,
      "track_index": 1,
      "channel": 0,
      "midi_note": 76,
      "note_id": "midi_076",
      "sample_id": "grand_piano_076",
      "velocity": 72,
      "start_sec": 82.423177,
      "duration_sec": 0.235677
    },
    {
      "event_index": 814,
      "track_index": 1,
      "channel": 0,
      "midi_note": 45,
      "note_id": "midi_045",
      "sample_id": "grand_piano_045",
      "velocity": 61,
      "start_sec": 82.423177,
      "duration_sec": 0.526042
    },
    {
      "event_index": 815,
      "track_index": 1,
      "channel": 0,
      "midi_note": 79,
      "note_id": "midi_079",
      "sample_id": "grand_piano_079",
      "velocity": 73,
      "start_sec": 82.664062,
      "duration_sec": 0.125
    },
    {
      "event_index": 816,
      "track_index": 1,
      "channel": 0,
      "midi_note": 84,
      "note_id": "midi_084",
      "sample_id": "grand_piano_084",
      "velocity": 74,
      "start_sec": 82.665365,
      "duration_sec": 0.123698
    },
    {
      "event_index": 817,
      "track_index": 1,
      "channel": 0,
      "midi_note": 76,
      "note_id": "midi_076",
      "sample_id": "grand_piano_076",
      "velocity": 63,
      "start_sec": 82.669271,
      "duration_sec": 0.119792
    },
    {
      "event_index": 818,
      "track_index": 1,
      "channel": 0,
      "midi_note": 55,
      "note_id": "midi_055",
      "sample_id": "grand_piano_055",
      "velocity": 68,
      "start_sec": 82.674479,
      "duration_sec": 0.494792
    },
    {
      "event_index": 819,
      "track_index": 1,
      "channel": 0,
      "midi_note": 48,
      "note_id": "midi_048",
      "sample_id": "grand_piano_048",
      "velocity": 68,
      "start_sec": 82.675781,
      "duration_sec": 0.257812
    },
    {
      "event_index": 820,
      "track_index": 1,
      "channel": 0,
      "midi_note": 52,
      "note_id": "midi_052",
      "sample_id": "grand_piano_052",
      "velocity": 62,
      "start_sec": 82.675781,
      "duration_sec": 0.49349
    },
    {
      "event_index": 821,
      "track_index": 1,
      "channel": 0,
      "midi_note": 84,
      "note_id": "midi_084",
      "sample_id": "grand_piano_084",
      "velocity": 68,
      "start_sec": 82.794271,
      "duration_sec": 0.125
    },
    {
      "event_index": 822,
      "track_index": 1,
      "channel": 0,
      "midi_note": 79,
      "note_id": "midi_079",
      "sample_id": "grand_piano_079",
      "velocity": 64,
      "start_sec": 82.796875,
      "duration_sec": 0.111979
    },
    {
      "event_index": 823,
      "track_index": 1,
      "channel": 0,
      "midi_note": 76,
      "note_id": "midi_076",
      "sample_id": "grand_piano_076",
      "velocity": 48,
      "start_sec": 82.802083,
      "duration_sec": 0.236979
    },
    {
      "event_index": 824,
      "track_index": 1,
      "channel": 0,
      "midi_note": 79,
      "note_id": "midi_079",
      "sample_id": "grand_piano_079",
      "velocity": 68,
      "start_sec": 82.924479,
      "duration_sec": 0.204427
    },
    {
      "event_index": 825,
      "track_index": 1,
      "channel": 0,
      "midi_note": 84,
      "note_id": "midi_084",
      "sample_id": "grand_piano_084",
      "velocity": 71,
      "start_sec": 82.924479,
      "duration_sec": 0.221354
    },
    {
      "event_index": 826,
      "track_index": 1,
      "channel": 0,
      "midi_note": 72,
      "note_id": "midi_072",
      "sample_id": "grand_piano_072",
      "velocity": 80,
      "start_sec": 83.139323,
      "duration_sec": 0.130208
    },
    {
      "event_index": 827,
      "track_index": 1,
      "channel": 0,
      "midi_note": 79,
      "note_id": "midi_079",
      "sample_id": "grand_piano_079",
      "velocity": 70,
      "start_sec": 83.141927,
      "duration_sec": 0.127604
    },
    {
      "event_index": 828,
      "track_index": 1,
      "channel": 0,
      "midi_note": 76,
      "note_id": "midi_076",
      "sample_id": "grand_piano_076",
      "velocity": 59,
      "start_sec": 83.15625,
      "duration_sec": 0.113281
    },
    {
      "event_index": 829,
      "track_index": 1,
      "channel": 0,
      "midi_note": 48,
      "note_id": "midi_048",
      "sample_id": "grand_piano_048",
      "velocity": 66,
      "start_sec": 83.174479,
      "duration_sec": 0.179688
    },
    {
      "event_index": 830,
      "track_index": 1,
      "channel": 0,
      "midi_note": 55,
      "note_id": "midi_055",
      "sample_id": "grand_piano_055",
      "velocity": 60,
      "start_sec": 83.179687,
      "duration_sec": 0.113281
    },
    {
      "event_index": 831,
      "track_index": 1,
      "channel": 0,
      "midi_note": 52,
      "note_id": "midi_052",
      "sample_id": "grand_piano_052",
      "velocity": 60,
      "start_sec": 83.182292,
      "duration_sec": 0.386719
    },
    {
      "event_index": 832,
      "track_index": 1,
      "channel": 0,
      "midi_note": 72,
      "note_id": "midi_072",
      "sample_id": "grand_piano_072",
      "velocity": 66,
      "start_sec": 83.27474,
      "duration_sec": 0.125
    },
    {
      "event_index": 833,
      "track_index": 1,
      "channel": 0,
      "midi_note": 79,
      "note_id": "midi_079",
      "sample_id": "grand_piano_079",
      "velocity": 69,
      "start_sec": 83.27474,
      "duration_sec": 0.125
    },
    {
      "event_index": 834,
      "track_index": 1,
      "channel": 0,
      "midi_note": 76,
      "note_id": "midi_076",
      "sample_id": "grand_piano_076",
      "velocity": 50,
      "start_sec": 83.27474,
      "duration_sec": 0.315104
    },
    {
      "event_index": 835,
      "track_index": 1,
      "channel": 0,
      "midi_note": 45,
      "note_id": "midi_045",
      "sample_id": "grand_piano_045",
      "velocity": 60,
      "start_sec": 83.373698,
      "duration_sec": 0.645833
    },
    {
      "event_index": 836,
      "track_index": 1,
      "channel": 0,
      "midi_note": 79,
      "note_id": "midi_079",
      "sample_id": "grand_piano_079",
      "velocity": 69,
      "start_sec": 83.40625,
      "duration_sec": 0.66276
    },
    {
      "event_index": 837,
      "track_index": 1,
      "channel": 0,
      "midi_note": 72,
      "note_id": "midi_072",
      "sample_id": "grand_piano_072",
      "velocity": 70,
      "start_sec": 83.407552,
      "duration_sec": 0.182292
    },
    {
      "event_index": 838,
      "track_index": 1,
      "channel": 0,
      "midi_note": 72,
      "note_id": "midi_072",
      "sample_id": "grand_piano_072",
      "velocity": 80,
      "start_sec": 83.601562,
      "duration_sec": 0.117188
    },
    {
      "event_index": 839,
      "track_index": 1,
      "channel": 0,
      "midi_note": 76,
      "note_id": "midi_076",
      "sample_id": "grand_piano_076",
      "velocity": 72,
      "start_sec": 83.604167,
      "duration_sec": 0.114583
    },
    {
      "event_index": 840,
      "track_index": 1,
      "channel": 0,
      "midi_note": 55,
      "note_id": "midi_055",
      "sample_id": "grand_piano_055",
      "velocity": 61,
      "start_sec": 83.605469,
      "duration_sec": 0.40625
    },
    {
      "event_index": 841,
      "track_index": 1,
      "channel": 0,
      "midi_note": 48,
      "note_id": "midi_048",
      "sample_id": "grand_piano_048",
      "velocity": 68,
      "start_sec": 83.606771,
      "duration_sec": 0.434896
    },
    {
      "event_index": 842,
      "track_index": 1,
      "channel": 0,
      "midi_note": 52,
      "note_id": "midi_052",
      "sample_id": "grand_piano_052",
      "velocity": 63,
      "start_sec": 83.614583,
      "duration_sec": 0.410156
    },
    {
      "event_index": 843,
      "track_index": 1,
      "channel": 0,
      "midi_note": 72,
      "note_id": "midi_072",
      "sample_id": "grand_piano_072",
      "velocity": 67,
      "start_sec": 83.731771,
      "duration_sec": 0.117188
    },
    {
      "event_index": 844,
      "track_index": 1,
      "channel": 0,
      "midi_note": 76,
      "note_id": "midi_076",
      "sample_id": "grand_piano_076",
      "velocity": 65,
      "start_sec": 83.731771,
      "duration_sec": 0.127604
    },
    {
      "event_index": 845,
      "track_index": 1,
      "channel": 0,
      "midi_note": 72,
      "note_id": "midi_072",
      "sample_id": "grand_piano_072",
      "velocity": 71,
      "start_sec": 83.863281,
      "duration_sec": 0.205729
    },
    {
      "event_index": 846,
      "track_index": 1,
      "channel": 0,
      "midi_note": 76,
      "note_id": "midi_076",
      "sample_id": "grand_piano_076",
      "velocity": 65,
      "start_sec": 83.864583,
      "duration_sec": 0.178385
    },
    {
      "event_index": 847,
      "track_index": 1,
      "channel": 0,
      "midi_note": 79,
      "note_id": "midi_079",
      "sample_id": "grand_piano_079",
      "velocity": 77,
      "start_sec": 84.075521,
      "duration_sec": 0.223958
    },
    {
      "event_index": 848,
      "track_index": 1,
      "channel": 0,
      "midi_note": 72,
      "note_id": "midi_072",
      "sample_id": "grand_piano_072",
      "velocity": 71,
      "start_sec": 84.083333,
      "duration_sec": 0.226563
    },
    {
      "event_index": 849,
      "track_index": 1,
      "channel": 0,
      "midi_note": 45,
      "note_id": "midi_045",
      "sample_id": "grand_piano_045",
      "velocity": 57,
      "start_sec": 84.089844,
      "duration_sec": 0.209635
    },
    {
      "event_index": 850,
      "track_index": 1,
      "channel": 0,
      "midi_note": 38,
      "note_id": "midi_038",
      "sample_id": "grand_piano_038",
      "velocity": 61,
      "start_sec": 84.295573,
      "duration_sec": 0.954427
    },
    {
      "event_index": 851,
      "track_index": 1,
      "channel": 0,
      "midi_note": 79,
      "note_id": "midi_079",
      "sample_id": "grand_piano_079",
      "velocity": 75,
      "start_sec": 84.307292,
      "duration_sec": 0.942708
    },
    {
      "event_index": 852,
      "track_index": 1,
      "channel": 0,
      "midi_note": 72,
      "note_id": "midi_072",
      "sample_id": "grand_piano_072",
      "velocity": 79,
      "start_sec": 84.315104,
      "duration_sec": 0.234375
    },
    {
      "event_index": 853,
      "track_index": 1,
      "channel": 0,
      "midi_note": 69,
      "note_id": "midi_069",
      "sample_id": "grand_piano_069",
      "velocity": 79,
      "start_sec": 84.321615,
      "duration_sec": 0.227865
    },
    {
      "event_index": 854,
      "track_index": 1,
      "channel": 0,
      "midi_note": 72,
      "note_id": "midi_072",
      "sample_id": "grand_piano_072",
      "velocity": 73,
      "start_sec": 84.559896,
      "duration_sec": 0.119792
    },
    {
      "event_index": 855,
      "track_index": 1,
      "channel": 0,
      "midi_note": 77,
      "note_id": "midi_077",
      "sample_id": "grand_piano_077",
      "velocity": 71,
      "start_sec": 84.5625,
      "duration_sec": 0.117188
    },
    {
      "event_index": 856,
      "track_index": 1,
      "channel": 0,
      "midi_note": 69,
      "note_id": "midi_069",
      "sample_id": "grand_piano_069",
      "velocity": 69,
      "start_sec": 84.563802,
      "duration_sec": 0.115885
    },
    {
      "event_index": 857,
      "track_index": 1,
      "channel": 0,
      "midi_note": 72,
      "note_id": "midi_072",
      "sample_id": "grand_piano_072",
      "velocity": 68,
      "start_sec": 84.684896,
      "duration_sec": 0.125
    },
    {
      "event_index": 858,
      "track_index": 1,
      "channel": 0,
      "midi_note": 77,
      "note_id": "midi_077",
      "sample_id": "grand_piano_077",
      "velocity": 68,
      "start_sec": 84.684896,
      "duration_sec": 0.125
    },
    {
      "event_index": 859,
      "track_index": 1,
      "channel": 0,
      "midi_note": 69,
      "note_id": "midi_069",
      "sample_id": "grand_piano_069",
      "velocity": 71,
      "start_sec": 84.686198,
      "duration_sec": 0.132813
    },
    {
      "event_index": 860,
      "track_index": 1,
      "channel": 0,
      "midi_note": 57,
      "note_id": "midi_057",
      "sample_id": "grand_piano_057",
      "velocity": 75,
      "start_sec": 84.765625,
      "duration_sec": 0.470052
    },
    {
      "event_index": 861,
      "track_index": 1,
      "channel": 0,
      "midi_note": 50,
      "note_id": "midi_050",
      "sample_id": "grand_piano_050",
      "velocity": 71,
      "start_sec": 84.772135,
      "duration_sec": 0.497396
    },
    {
      "event_index": 862,
      "track_index": 1,
      "channel": 0,
      "midi_note": 72,
      "note_id": "midi_072",
      "sample_id": "grand_piano_072",
      "velocity": 71,
      "start_sec": 84.824219,
      "duration_sec": 0.195312
    },
    {
      "event_index": 863,
      "track_index": 1,
      "channel": 0,
      "midi_note": 77,
      "note_id": "midi_077",
      "sample_id": "grand_piano_077",
      "velocity": 68,
      "start_sec": 84.824219,
      "duration_sec": 0.425781
    },
    {
      "event_index": 864,
      "track_index": 1,
      "channel": 0,
      "midi_note": 69,
      "note_id": "midi_069",
      "sample_id": "grand_piano_069",
      "velocity": 73,
      "start_sec": 84.828125,
      "duration_sec": 0.201823
    },
    {
      "event_index": 865,
      "track_index": 1,
      "channel": 0,
      "midi_note": 76,
      "note_id": "midi_076",
      "sample_id": "grand_piano_076",
      "velocity": 70,
      "start_sec": 85.027344,
      "duration_sec": 0.205729
    },
    {
      "event_index": 866,
      "track_index": 1,
      "channel": 0,
      "midi_note": 72,
      "note_id": "midi_072",
      "sample_id": "grand_piano_072",
      "velocity": 63,
      "start_sec": 85.029948,
      "duration_sec": 0.239583
    },
    {
      "event_index": 867,
      "track_index": 1,
      "channel": 0,
      "midi_note": 69,
      "note_id": "midi_069",
      "sample_id": "grand_piano_069",
      "velocity": 72,
      "start_sec": 85.035156,
      "duration_sec": 0.223958
    },
    {
      "event_index": 868,
      "track_index": 1,
      "channel": 0,
      "midi_note": 77,
      "note_id": "midi_077",
      "sample_id": "grand_piano_077",
      "velocity": 71,
      "start_sec": 85.257812,
      "duration_sec": 0.93099
    },
    {
      "event_index": 869,
      "track_index": 1,
      "channel": 0,
      "midi_note": 38,
      "note_id": "midi_038",
      "sample_id": "grand_piano_038",
      "velocity": 62,
      "start_sec": 85.264323,
      "duration_sec": 0.494792
    },
    {
      "event_index": 870,
      "track_index": 1,
      "channel": 0,
      "midi_note": 69,
      "note_id": "midi_069",
      "sample_id": "grand_piano_069",
      "velocity": 68,
      "start_sec": 85.264323,
      "duration_sec": 0.635417
    },
    {
      "event_index": 871,
      "track_index": 1,
      "channel": 0,
      "midi_note": 74,
      "note_id": "midi_074",
      "sample_id": "grand_piano_074",
      "velocity": 63,
      "start_sec": 85.264323,
      "duration_sec": 0.875
    },
    {
      "event_index": 872,
      "track_index": 1,
      "channel": 0,
      "midi_note": 50,
      "note_id": "midi_050",
      "sample_id": "grand_piano_050",
      "velocity": 64,
      "start_sec": 85.276042,
      "duration_sec": 0.953125
    },
    {
      "event_index": 873,
      "track_index": 1,
      "channel": 0,
      "midi_note": 72,
      "note_id": "midi_072",
      "sample_id": "grand_piano_072",
      "velocity": 71,
      "start_sec": 85.28125,
      "duration_sec": 0.588542
    },
    {
      "event_index": 874,
      "track_index": 1,
      "channel": 0,
      "midi_note": 38,
      "note_id": "midi_038",
      "sample_id": "grand_piano_038",
      "velocity": 50,
      "start_sec": 85.764323,
      "duration_sec": 0.440104
    },
    {
      "event_index": 875,
      "track_index": 1,
      "channel": 0,
      "midi_note": 74,
      "note_id": "midi_074",
      "sample_id": "grand_piano_074",
      "velocity": 65,
      "start_sec": 86.147135,
      "duration_sec": 0.481771
    },
    {
      "event_index": 876,
      "track_index": 1,
      "channel": 0,
      "midi_note": 77,
      "note_id": "midi_077",
      "sample_id": "grand_piano_077",
      "velocity": 67,
      "start_sec": 86.201823,
      "duration_sec": 0.384115
    },
    {
      "event_index": 877,
      "track_index": 1,
      "channel": 0,
      "midi_note": 43,
      "note_id": "midi_043",
      "sample_id": "grand_piano_043",
      "velocity": 62,
      "start_sec": 86.266927,
      "duration_sec": 1.772135
    },
    {
      "event_index": 878,
      "track_index": 1,
      "channel": 0,
      "midi_note": 84,
      "note_id": "midi_084",
      "sample_id": "grand_piano_084",
      "velocity": 74,
      "start_sec": 86.273437,
      "duration_sec": 0.30599
    },
    {
      "event_index": 879,
      "track_index": 1,
      "channel": 0,
      "midi_note": 50,
      "note_id": "midi_050",
      "sample_id": "grand_piano_050",
      "velocity": 70,
      "start_sec": 86.540365,
      "duration_sec": 1.308594
    },
    {
      "event_index": 880,
      "track_index": 1,
      "channel": 0,
      "midi_note": 82,
      "note_id": "midi_082",
      "sample_id": "grand_piano_082",
      "velocity": 77,
      "start_sec": 86.544271,
      "duration_sec": 0.575521
    },
    {
      "event_index": 881,
      "track_index": 1,
      "channel": 0,
      "midi_note": 77,
      "note_id": "midi_077",
      "sample_id": "grand_piano_077",
      "velocity": 75,
      "start_sec": 86.796875,
      "duration_sec": 1.052083
    },
    {
      "event_index": 882,
      "track_index": 1,
      "channel": 0,
      "midi_note": 55,
      "note_id": "midi_055",
      "sample_id": "grand_piano_055",
      "velocity": 64,
      "start_sec": 86.796875,
      "duration_sec": 1.622396
    },
    {
      "event_index": 883,
      "track_index": 1,
      "channel": 0,
      "midi_note": 67,
      "note_id": "midi_067",
      "sample_id": "grand_piano_067",
      "velocity": 58,
      "start_sec": 86.8125,
      "duration_sec": 0.00651
    },
    {
      "event_index": 884,
      "track_index": 1,
      "channel": 0,
      "midi_note": 84,
      "note_id": "midi_084",
      "sample_id": "grand_piano_084",
      "velocity": 77,
      "start_sec": 87.049479,
      "duration_sec": 1.459635
    },
    {
      "event_index": 885,
      "track_index": 1,
      "channel": 0,
      "midi_note": 58,
      "note_id": "midi_058",
      "sample_id": "grand_piano_058",
      "velocity": 62,
      "start_sec": 87.075521,
      "duration_sec": 1.223958
    },
    {
      "event_index": 886,
      "track_index": 1,
      "channel": 0,
      "midi_note": 65,
      "note_id": "midi_065",
      "sample_id": "grand_piano_065",
      "velocity": 69,
      "start_sec": 87.302083,
      "duration_sec": 1.046875
    },
    {
      "event_index": 887,
      "track_index": 1,
      "channel": 0,
      "midi_note": 62,
      "note_id": "midi_062",
      "sample_id": "grand_piano_062",
      "velocity": 72,
      "start_sec": 87.579427,
      "duration_sec": 0.85026
    },
    {
      "event_index": 888,
      "track_index": 1,
      "channel": 0,
      "midi_note": 82,
      "note_id": "midi_082",
      "sample_id": "grand_piano_082",
      "velocity": 79,
      "start_sec": 87.816406,
      "duration_sec": 0.532552
    },
    {
      "event_index": 889,
      "track_index": 1,
      "channel": 0,
      "midi_note": 40,
      "note_id": "midi_040",
      "sample_id": "grand_piano_040",
      "velocity": 43,
      "start_sec": 87.842448,
      "duration_sec": 0.576823
    },
    {
      "event_index": 890,
      "track_index": 1,
      "channel": 0,
      "midi_note": 70,
      "note_id": "midi_070",
      "sample_id": "grand_piano_070",
      "velocity": 62,
      "start_sec": 88.214844,
      "duration_sec": 0.954427
    },
    {
      "event_index": 891,
      "track_index": 1,
      "channel": 0,
      "midi_note": 73,
      "note_id": "midi_073",
      "sample_id": "grand_piano_073",
      "velocity": 62,
      "start_sec": 88.269531,
      "duration_sec": 0.880208
    },
    {
      "event_index": 892,
      "track_index": 1,
      "channel": 0,
      "midi_note": 33,
      "note_id": "midi_033",
      "sample_id": "grand_piano_033",
      "velocity": 44,
      "start_sec": 88.352865,
      "duration_sec": 1.106771
    },
    {
      "event_index": 893,
      "track_index": 1,
      "channel": 0,
      "midi_note": 45,
      "note_id": "midi_045",
      "sample_id": "grand_piano_045",
      "velocity": 43,
      "start_sec": 88.354167,
      "duration_sec": 1.545573
    },
    {
      "event_index": 894,
      "track_index": 1,
      "channel": 0,
      "midi_note": 76,
      "note_id": "midi_076",
      "sample_id": "grand_piano_076",
      "velocity": 67,
      "start_sec": 88.355469,
      "duration_sec": 0.794271
    },
    {
      "event_index": 895,
      "track_index": 1,
      "channel": 0,
      "midi_note": 82,
      "note_id": "midi_082",
      "sample_id": "grand_piano_082",
      "velocity": 79,
      "start_sec": 88.356771,
      "duration_sec": 2.143229
    },
    {
      "event_index": 896,
      "track_index": 1,
      "channel": 0,
      "midi_note": 49,
      "note_id": "midi_049",
      "sample_id": "grand_piano_049",
      "velocity": 54,
      "start_sec": 88.89974,
      "duration_sec": 1.589844
    },
    {
      "event_index": 897,
      "track_index": 1,
      "channel": 0,
      "midi_note": 81,
      "note_id": "midi_081",
      "sample_id": "grand_piano_081",
      "velocity": 76,
      "start_sec": 89.15625,
      "duration_sec": 1.34375
    },
    {
      "event_index": 898,
      "track_index": 1,
      "channel": 0,
      "midi_note": 76,
      "note_id": "midi_076",
      "sample_id": "grand_piano_076",
      "velocity": 67,
      "start_sec": 89.160156,
      "duration_sec": 0.739583
    },
    {
      "event_index": 899,
      "track_index": 1,
      "channel": 0,
      "midi_note": 73,
      "note_id": "midi_073",
      "sample_id": "grand_piano_073",
      "velocity": 70,
      "start_sec": 89.161458,
      "duration_sec": 1.342448
    },
    {
      "event_index": 900,
      "track_index": 1,
      "channel": 0,
      "midi_note": 70,
      "note_id": "midi_070",
      "sample_id": "grand_piano_070",
      "velocity": 65,
      "start_sec": 89.178385,
      "duration_sec": 1.322917
    },
    {
      "event_index": 901,
      "track_index": 1,
      "channel": 0,
      "midi_note": 55,
      "note_id": "midi_055",
      "sample_id": "grand_piano_055",
      "velocity": 58,
      "start_sec": 89.420573,
      "duration_sec": 1.080729
    },
    {
      "event_index": 902,
      "track_index": 1,
      "channel": 0,
      "midi_note": 76,
      "note_id": "midi_076",
      "sample_id": "grand_piano_076",
      "velocity": 64,
      "start_sec": 89.91276,
      "duration_sec": 0.516927
    },
    {
      "event_index": 903,
      "track_index": 1,
      "channel": 0,
      "midi_note": 45,
      "note_id": "midi_045",
      "sample_id": "grand_piano_045",
      "velocity": 48,
      "start_sec": 89.914062,
      "duration_sec": 0.588542
    },
    {
      "event_index": 904,
      "track_index": 1,
      "channel": 0,
      "midi_note": 65,
      "note_id": "midi_065",
      "sample_id": "grand_piano_065",
      "velocity": 60,
      "start_sec": 90.252604,
      "duration_sec": 1.707031
    },
    {
      "event_index": 905,
      "track_index": 1,
      "channel": 0,
      "midi_note": 69,
      "note_id": "midi_069",
      "sample_id": "grand_piano_069",
      "velocity": 69,
      "start_sec": 90.359375,
      "duration_sec": 2.290365
    },
    {
      "event_index": 906,
      "track_index": 1,
      "channel": 0,
      "midi_note": 72,
      "note_id": "midi_072",
      "sample_id": "grand_piano_072",
      "velocity": 63,
      "start_sec": 90.403646,
      "duration_sec": 2.395833
    },
    {
      "event_index": 907,
      "track_index": 1,
      "channel": 0,
      "midi_note": 76,
      "note_id": "midi_076",
      "sample_id": "grand_piano_076",
      "velocity": 68,
      "start_sec": 90.436198,
      "duration_sec": 3.292969
    },
    {
      "event_index": 908,
      "track_index": 1,
      "channel": 0,
      "midi_note": 38,
      "note_id": "midi_038",
      "sample_id": "grand_piano_038",
      "velocity": 49,
      "start_sec": 90.441406,
      "duration_sec": 3.257812
    },
    {
      "event_index": 909,
      "track_index": 1,
      "channel": 0,
      "midi_note": 57,
      "note_id": "midi_057",
      "sample_id": "grand_piano_057",
      "velocity": 65,
      "start_sec": 90.941406,
      "duration_sec": 2.777344
    },
    {
      "event_index": 910,
      "track_index": 1,
      "channel": 0,
      "midi_note": 64,
      "note_id": "midi_064",
      "sample_id": "grand_piano_064",
      "velocity": 66,
      "start_sec": 91.463542,
      "duration_sec": 2.276042
    },
    {
      "event_index": 911,
      "track_index": 1,
      "channel": 0,
      "midi_note": 65,
      "note_id": "midi_065",
      "sample_id": "grand_piano_065",
      "velocity": 60,
      "start_sec": 91.972656,
      "duration_sec": 1.746094
    },
    {
      "event_index": 912,
      "track_index": 1,
      "channel": 0,
      "midi_note": 74,
      "note_id": "midi_074",
      "sample_id": "grand_piano_074",
      "velocity": 57,
      "start_sec": 92.523437,
      "duration_sec": 1.169271
    },
    {
      "event_index": 913,
      "track_index": 1,
      "channel": 0,
      "midi_note": 48,
      "note_id": "midi_048",
      "sample_id": "grand_piano_048",
      "velocity": 77,
      "start_sec": 93.644531,
      "duration_sec": 1.266927
    },
    {
      "event_index": 914,
      "track_index": 1,
      "channel": 0,
      "midi_note": 86,
      "note_id": "midi_086",
      "sample_id": "grand_piano_086",
      "velocity": 66,
      "start_sec": 94.964844,
      "duration_sec": 1.394531
    },
    {
      "event_index": 915,
      "track_index": 1,
      "channel": 0,
      "midi_note": 46,
      "note_id": "midi_046",
      "sample_id": "grand_piano_046",
      "velocity": 48,
      "start_sec": 94.983073,
      "duration_sec": 1.341146
    },
    {
      "event_index": 916,
      "track_index": 1,
      "channel": 0,
      "midi_note": 93,
      "note_id": "midi_093",
      "sample_id": "grand_piano_093",
      "velocity": 61,
      "start_sec": 95.634115,
      "duration_sec": 0.695312
    },
    {
      "event_index": 917,
      "track_index": 1,
      "channel": 0,
      "midi_note": 91,
      "note_id": "midi_091",
      "sample_id": "grand_piano_091",
      "velocity": 70,
      "start_sec": 95.932292,
      "duration_sec": 0.407552
    },
    {
      "event_index": 918,
      "track_index": 1,
      "channel": 0,
      "midi_note": 81,
      "note_id": "midi_081",
      "sample_id": "grand_piano_081",
      "velocity": 72,
      "start_sec": 96.261719,
      "duration_sec": 1.260417
    },
    {
      "event_index": 919,
      "track_index": 1,
      "channel": 0,
      "midi_note": 74,
      "note_id": "midi_074",
      "sample_id": "grand_piano_074",
      "velocity": 55,
      "start_sec": 96.263021,
      "duration_sec": 1.263021
    },
    {
      "event_index": 920,
      "track_index": 1,
      "channel": 0,
      "midi_note": 77,
      "note_id": "midi_077",
      "sample_id": "grand_piano_077",
      "velocity": 61,
      "start_sec": 96.263021,
      "duration_sec": 1.936198
    },
    {
      "event_index": 921,
      "track_index": 1,
      "channel": 0,
      "midi_note": 70,
      "note_id": "midi_070",
      "sample_id": "grand_piano_070",
      "velocity": 52,
      "start_sec": 96.283854,
      "duration_sec": 1.235677
    },
    {
      "event_index": 922,
      "track_index": 1,
      "channel": 0,
      "midi_note": 91,
      "note_id": "midi_091",
      "sample_id": "grand_piano_091",
      "velocity": 68,
      "start_sec": 96.833333,
      "duration_sec": 1.916667
    },
    {
      "event_index": 923,
      "track_index": 1,
      "channel": 0,
      "midi_note": 89,
      "note_id": "midi_089",
      "sample_id": "grand_piano_089",
      "velocity": 67,
      "start_sec": 97.446615,
      "duration_sec": 2.382813
    },
    {
      "event_index": 924,
      "track_index": 1,
      "channel": 0,
      "midi_note": 82,
      "note_id": "midi_082",
      "sample_id": "grand_piano_082",
      "velocity": 63,
      "start_sec": 97.453125,
      "duration_sec": 0.606771
    },
    {
      "event_index": 925,
      "track_index": 1,
      "channel": 0,
      "midi_note": 93,
      "note_id": "midi_093",
      "sample_id": "grand_piano_093",
      "velocity": 67,
      "start_sec": 97.453125,
      "duration_sec": 0.666667
    },
    {
      "event_index": 926,
      "track_index": 1,
      "channel": 0,
      "midi_note": 86,
      "note_id": "midi_086",
      "sample_id": "grand_piano_086",
      "velocity": 64,
      "start_sec": 97.453125,
      "duration_sec": 0.68099
    },
    {
      "event_index": 927,
      "track_index": 1,
      "channel": 0,
      "midi_note": 101,
      "note_id": "midi_101",
      "sample_id": "grand_piano_101",
      "velocity": 74,
      "start_sec": 98.059896,
      "duration_sec": 1.589844
    },
    {
      "event_index": 928,
      "track_index": 1,
      "channel": 0,
      "midi_note": 94,
      "note_id": "midi_094",
      "sample_id": "grand_piano_094",
      "velocity": 48,
      "start_sec": 98.065104,
      "duration_sec": 1.744792
    },
    {
      "event_index": 929,
      "track_index": 1,
      "channel": 0,
      "midi_note": 82,
      "note_id": "midi_082",
      "sample_id": "grand_piano_082",
      "velocity": 66,
      "start_sec": 98.067708,
      "duration_sec": 1.161458
    },
    {
      "event_index": 930,
      "track_index": 1,
      "channel": 0,
      "midi_note": 93,
      "note_id": "midi_093",
      "sample_id": "grand_piano_093",
      "velocity": 64,
      "start_sec": 98.654948,
      "duration_sec": 1.184896
    },
    {
      "event_index": 931,
      "track_index": 1,
      "channel": 0,
      "midi_note": 91,
      "note_id": "midi_091",
      "sample_id": "grand_piano_091",
      "velocity": 64,
      "start_sec": 99.233073,
      "duration_sec": 0.876302
    },
    {
      "event_index": 932,
      "track_index": 1,
      "channel": 0,
      "midi_note": 82,
      "note_id": "midi_082",
      "sample_id": "grand_piano_082",
      "velocity": 45,
      "start_sec": 99.236979,
      "duration_sec": 0.578125
    },
    {
      "event_index": 933,
      "track_index": 1,
      "channel": 0,
      "midi_note": 70,
      "note_id": "midi_070",
      "sample_id": "grand_piano_070",
      "velocity": 50,
      "start_sec": 99.690104,
      "duration_sec": 2.78125
    },
    {
      "event_index": 934,
      "track_index": 1,
      "channel": 0,
      "midi_note": 72,
      "note_id": "midi_072",
      "sample_id": "grand_piano_072",
      "velocity": 61,
      "start_sec": 99.734375,
      "duration_sec": 0.984375
    },
    {
      "event_index": 935,
      "track_index": 1,
      "channel": 0,
      "midi_note": 76,
      "note_id": "midi_076",
      "sample_id": "grand_piano_076",
      "velocity": 52,
      "start_sec": 99.786458,
      "duration_sec": 2.684896
    },
    {
      "event_index": 936,
      "track_index": 1,
      "channel": 0,
      "midi_note": 79,
      "note_id": "midi_079",
      "sample_id": "grand_piano_079",
      "velocity": 62,
      "start_sec": 99.794271,
      "duration_sec": 0.915365
    },
    {
      "event_index": 937,
      "track_index": 1,
      "channel": 0,
      "midi_note": 93,
      "note_id": "midi_093",
      "sample_id": "grand_piano_093",
      "velocity": 72,
      "start_sec": 99.846354,
      "duration_sec": 0.572917
    },
    {
      "event_index": 938,
      "track_index": 1,
      "channel": 0,
      "midi_note": 91,
      "note_id": "midi_091",
      "sample_id": "grand_piano_091",
      "velocity": 70,
      "start_sec": 100.123698,
      "duration_sec": 0.575521
    },
    {
      "event_index": 939,
      "track_index": 1,
      "channel": 0,
      "midi_note": 88,
      "note_id": "midi_088",
      "sample_id": "grand_piano_088",
      "velocity": 29,
      "start_sec": 100.161458,
      "duration_sec": 0.007812
    },
    {
      "event_index": 940,
      "track_index": 1,
      "channel": 0,
      "midi_note": 93,
      "note_id": "midi_093",
      "sample_id": "grand_piano_093",
      "velocity": 68,
      "start_sec": 100.424479,
      "duration_sec": 0.614583
    },
    {
      "event_index": 941,
      "track_index": 1,
      "channel": 0,
      "midi_note": 91,
      "note_id": "midi_091",
      "sample_id": "grand_piano_091",
      "velocity": 65,
      "start_sec": 100.713542,
      "duration_sec": 0.945312
    },
    {
      "event_index": 942,
      "track_index": 1,
      "channel": 0,
      "midi_note": 79,
      "note_id": "midi_079",
      "sample_id": "grand_piano_079",
      "velocity": 37,
      "start_sec": 100.723958,
      "duration_sec": 5.235677
    },
    {
      "event_index": 943,
      "track_index": 1,
      "channel": 0,
      "midi_note": 72,
      "note_id": "midi_072",
      "sample_id": "grand_piano_072",
      "velocity": 35,
      "start_sec": 100.726562,
      "duration_sec": 6.002604
    },
    {
      "event_index": 944,
      "track_index": 1,
      "channel": 0,
      "midi_note": 93,
      "note_id": "midi_093",
      "sample_id": "grand_piano_093",
      "velocity": 63,
      "start_sec": 101.045573,
      "duration_sec": 1.44401
    },
    {
      "event_index": 945,
      "track_index": 1,
      "channel": 0,
      "midi_note": 91,
      "note_id": "midi_091",
      "sample_id": "grand_piano_091",
      "velocity": 64,
      "start_sec": 101.671875,
      "duration_sec": 5.997396
    },
    {
      "event_index": 946,
      "track_index": 1,
      "channel": 0,
      "midi_note": 64,
      "note_id": "midi_064",
      "sample_id": "grand_piano_064",
      "velocity": 28,
      "start_sec": 101.673177,
      "duration_sec": 5.996094
    },
    {
      "event_index": 947,
      "track_index": 1,
      "channel": 0,
      "midi_note": 96,
      "note_id": "midi_096",
      "sample_id": "grand_piano_096",
      "velocity": 55,
      "start_sec": 102.403646,
      "duration_sec": 5.996094
    },
    {
      "event_index": 948,
      "track_index": 1,
      "channel": 0,
      "midi_note": 82,
      "note_id": "midi_082",
      "sample_id": "grand_piano_082",
      "velocity": 46,
      "start_sec": 102.404948,
      "duration_sec": 6.003906
    }
  ]
}
